<?xml version="1.0" encoding="UTF-8" standalone="no"?>
<!-- Created with Inkscape (http://www.inkscape.org/) -->

<svg
   xmlns:dc="http://purl.org/dc/elements/1.1/"
   xmlns:cc="http://creativecommons.org/ns#"
   xmlns:rdf="http://www.w3.org/1999/02/22-rdf-syntax-ns#"
   xmlns:svg="http://www.w3.org/2000/svg"
   xmlns="http://www.w3.org/2000/svg"
   xmlns:sodipodi="http://sodipodi.sourceforge.net/DTD/sodipodi-0.dtd"
   xmlns:inkscape="http://www.inkscape.org/namespaces/inkscape"
   id="svg8"
   version="1.1"
   viewBox="0 0 210 297"
   height="297mm"
   width="210mm"
   inkscape:version="0.92.4 (5da689c313, 2019-01-14)"
   sodipodi:docname="Pattern Along Path.svg">
  <defs
     id="defs2">
    <inkscape:path-effect
       effect="curvestitching"
       id="path-effect4793"
       is_visible="true"
       count="10"
       startpoint_edge_variation="1;-1517815252"
       startpoint_spacing_variation="0;-463000882"
       endpoint_edge_variation="0;-1553975192"
       endpoint_spacing_variation="0;-945425445"
       strokepath="M 0,0 H 1"
       prop_scale="1"
       scale_y_rel="false" />
    <inkscape:path-effect
       effect="curvestitching"
       id="path-effect4790"
       is_visible="true"
       count="5"
       startpoint_edge_variation="0;1"
       startpoint_spacing_variation="0;1"
       endpoint_edge_variation="0;1"
       endpoint_spacing_variation="0;1"
       strokepath="M 0,0 H 1"
       prop_scale="1"
       scale_y_rel="false" />
    <inkscape:path-effect
       effect="ruler"
       id="path-effect4786"
       is_visible="true"
       unit="px"
       mark_distance="20"
       mark_length="14"
       minor_mark_length="7"
       major_mark_steps="5"
       shift="0"
       offset="0"
       mark_dir="left"
       border_marks="both" />
    <inkscape:path-effect
       effect="skeletal"
       id="path-effect4775"
       is_visible="true"
       pattern="M 81.905081,12.31139 H 74.116412 V 0 h 1.637109 v 10.85619 h 6.15156 z m -9.425781,0 H 64.69062 V 0 h 1.637112 V 10.85619 H 72.4793 Z m -9.6573,0 H 61.077411 L 59.87025,8.88008 h -5.32474 l -1.207158,3.43131 H 51.67643 L 56.15781,0 h 2.18281 z M 59.36588,7.47448 57.20788,1.4304 55.041602,7.47448 Z m -8.574148,1.05006 q 0,0.9177801 -0.347261,1.62058 -0.34727,0.7028 -0.934309,1.15755 -0.694542,0.5457 -1.529631,0.77721 -0.82682,0.23151 -2.108401,0.23151 H 41.50651 V 0 h 3.646289 q 1.347722,0 2.017451,0.0992 0.669721,0.0992 1.28157,0.41340999 0.678,0.35553002 0.98392,0.91777001 0.305929,0.55398 0.305929,1.33119 0,0.8764299 -0.446489,1.49655 -0.446479,0.61185 -1.19062,0.9839201 v 0.0661 q 1.2485,0.2563198 1.967841,1.09968 Q 50.791732,7.24291 50.791732,8.52448 Z M 48.038411,2.9765601 q 0,-0.4464801 -0.14883,-0.7524101 Q 47.74075,1.91823 47.410031,1.72806 47.021419,1.50482 46.467451,1.45521 45.913479,1.39731 45.094919,1.39731 H 43.14362 v 3.55534 h 2.116672 q 0.76894,0 1.22369,-0.0744 0.454758,-0.0827 0.843359,-0.3307302 0.38861,-0.2480498 0.545709,-0.63666 0.165361,-0.39687 0.165361,-0.9343099 z m 1.050071,5.61413 q 0,-0.7441401 -0.22325,-1.1823599 Q 48.64199,6.9701201 48.054951,6.6641901 47.65807,6.4574902 47.08756,6.3996102 q -0.56224,-0.0661 -1.372518,-0.0661 H 43.14362 V 10.91411 h 2.166271 q 1.074869,0 1.76114,-0.10748 0.686261,-0.11576 1.124479,-0.41342 0.463021,-0.32246 0.67799,-0.7358699 0.214982,-0.4134099 0.214982,-1.0666 z M 32.948891,12.31139 H 24.83776 V 0 h 8.111131 V 1.45521 H 26.47487 v 3.3734401 h 6.474021 V 6.2838502 H 26.47487 V 10.85619 h 6.474021 z m -11.426691,0 H 19.88509 V 6.2838502 H 13.7418 V 12.31139 H 12.10469 V 0 h 1.63711 v 4.8286501 h 6.14329 V 0 H 21.5222 Z M 10.4345,1.45521 H 6.0358099 V 12.31139 H 4.3987 V 1.45521 H 0 V 0 h 10.4345 z"
       copytype="single_stretched"
       prop_scale="1"
       scale_y_rel="false"
       spacing="0"
       normal_offset="0"
       tang_offset="0"
       prop_units="false"
       vertical_pattern="false"
       fuse_tolerance="0" />
    <inkscape:path-effect
       effect="skeletal"
       id="path-effect4681"
       is_visible="true"
       pattern="M 81.905081,12.31139 H 74.116412 V 0 h 1.637109 v 10.85619 h 6.15156 z m -9.425781,0 H 64.69062 V 0 h 1.637112 V 10.85619 H 72.4793 Z m -9.6573,0 H 61.077411 L 59.87025,8.88008 h -5.32474 l -1.207158,3.43131 H 51.67643 L 56.15781,0 h 2.18281 z M 59.36588,7.47448 57.20788,1.4304 55.041602,7.47448 Z m -8.574148,1.05006 q 0,0.9177801 -0.347261,1.62058 -0.34727,0.7028 -0.934309,1.15755 -0.694542,0.5457 -1.529631,0.77721 -0.82682,0.23151 -2.108401,0.23151 H 41.50651 V 0 h 3.646289 q 1.347722,0 2.017451,0.0992 0.669721,0.0992 1.28157,0.41340999 0.678,0.35553002 0.98392,0.91777001 0.305929,0.55398 0.305929,1.33119 0,0.8764299 -0.446489,1.49655 -0.446479,0.61185 -1.19062,0.9839201 v 0.0661 q 1.2485,0.2563198 1.967841,1.09968 Q 50.791732,7.24291 50.791732,8.52448 Z M 48.038411,2.9765601 q 0,-0.4464801 -0.14883,-0.7524101 Q 47.74075,1.91823 47.410031,1.72806 47.021419,1.50482 46.467451,1.45521 45.913479,1.39731 45.094919,1.39731 H 43.14362 v 3.55534 h 2.116672 q 0.76894,0 1.22369,-0.0744 0.454758,-0.0827 0.843359,-0.3307302 0.38861,-0.2480498 0.545709,-0.63666 0.165361,-0.39687 0.165361,-0.9343099 z m 1.050071,5.61413 q 0,-0.7441401 -0.22325,-1.1823599 Q 48.64199,6.9701201 48.054951,6.6641901 47.65807,6.4574902 47.08756,6.3996102 q -0.56224,-0.0661 -1.372518,-0.0661 H 43.14362 V 10.91411 h 2.166271 q 1.074869,0 1.76114,-0.10748 0.686261,-0.11576 1.124479,-0.41342 0.463021,-0.32246 0.67799,-0.7358699 0.214982,-0.4134099 0.214982,-1.0666 z M 32.948891,12.31139 H 24.83776 V 0 h 8.111131 V 1.45521 H 26.47487 v 3.3734401 h 6.474021 V 6.2838502 H 26.47487 V 10.85619 h 6.474021 z m -11.426691,0 H 19.88509 V 6.2838502 H 13.7418 V 12.31139 H 12.10469 V 0 h 1.63711 v 4.8286501 h 6.14329 V 0 H 21.5222 Z M 10.4345,1.45521 H 6.0358099 V 12.31139 H 4.3987 V 1.45521 H 0 V 0 h 10.4345 z"
       copytype="single_stretched"
       prop_scale="0.89574789"
       scale_y_rel="false"
       spacing="0"
       normal_offset="0"
       tang_offset="0"
       prop_units="false"
       vertical_pattern="false"
       fuse_tolerance="0" />
    <inkscape:path-effect
       effect="skeletal"
       id="path-effect4658"
       is_visible="true"
       pattern="M 0,0 H 1"
       copytype="single_stretched"
       prop_scale="1"
       scale_y_rel="false"
       spacing="0"
       normal_offset="0"
       tang_offset="0"
       prop_units="false"
       vertical_pattern="false"
       fuse_tolerance="0" />
    <inkscape:path-effect
       effect="spiro"
       id="path-effect4628"
       is_visible="true" />
    <inkscape:path-effect
       effect="bend_path"
       id="path-effect4614"
       is_visible="true"
       bendpath="m 24.407812,159.71388 c 30.683455,-8.64228 57.565848,-7.57074 81.905078,0"
       prop_scale="1"
       scale_y_rel="false"
       vertical="false"
       bendpath-nodetypes="cc" />
    <inkscape:path-effect
       effect="bend_path"
       id="path-effect4610"
       is_visible="true"
       bendpath="M 24.407812,159.71388 H 106.31289"
       prop_scale="1"
       scale_y_rel="false"
       vertical="false" />
    <inkscape:path-effect
       effect="knot"
       id="path-effect4575"
       is_visible="true"
       interruption_width="3"
       prop_to_stroke_width="true"
       add_stroke_width="true"
       add_other_stroke_width="true"
       switcher_size="15"
       crossing_points_vector="143.89679 | 60.650813 | 0 | 0 | 0 | 1 | 0.085478125 | 0.91545292 | -1" />
    <inkscape:path-effect
       effect="knot"
       id="path-effect4571"
       is_visible="true"
       interruption_width="3"
       prop_to_stroke_width="true"
       add_stroke_width="true"
       add_other_stroke_width="true"
       switcher_size="15"
       crossing_points_vector="161.97538 | 150.45907 | 0 | 0 | 0 | 1 | 0.10598685 | 0.85643537 | 1" />
    <inkscape:path-effect
       effect="interpolate"
       id="path-effect4564"
       is_visible="true"
       trajectory="m 141.81666,119.46458 c -24.6034,-24.43985 -50.296939,-33.799471 -79.110411,0"
       equidistant_spacing="true"
       steps="10"
       trajectory-nodetypes="cc" />
    <inkscape:path-effect
       effect="sketch"
       id="path-effect4559"
       is_visible="true"
       nbiter_approxstrokes="5"
       strokelength="10"
       strokelength_rdm="0.3;-1703485594"
       strokeoverlap="0.3"
       strokeoverlap_rdm="0.3;-224804227"
       ends_tolerance="0.1;1373901571"
       parallel_offset="5;-1661068043"
       tremble_size="5;-1577477305"
       tremble_frequency="1"
       nbtangents="5"
       tgt_places_rdmness="1;892338174"
       tgtscale="5"
       tgtlength="10"
       tgtlength_rdm="0.3;-1050832083" />
    <inkscape:path-effect
       effect="interpolate"
       id="path-effect4557"
       is_visible="true"
       trajectory="M 0,0 V 0"
       equidistant_spacing="true"
       steps="5" />
    <inkscape:path-effect
       effect="powerstroke"
       id="path-effect4555"
       is_visible="true"
       offset_points="2,0.026458334"
       sort_points="true"
       interpolator_type="SpiroInterpolator"
       interpolator_beta="0.20661157"
       start_linecap_type="butt"
       linejoin_type="extrp_arc"
       miter_limit="4"
       end_linecap_type="butt" />
    <inkscape:path-effect
       effect="fill_between_many"
       id="path-effect4553"
       is_visible="true"
       linkedpaths=""
       allow_transforms="false" />
    <inkscape:path-effect
       effect="envelope"
       id="path-effect4539"
       is_visible="true"
       yy="true"
       xx="true"
       bendpath1="M 36.132072,128.82596 H 136.39112"
       bendpath2="m 136.39112,128.82596 v 88.4761"
       bendpath3="M 36.132072,217.30206 H 136.39112"
       bendpath4="m 36.132072,128.82596 v 88.4761" />
    <inkscape:path-effect
       effect="construct_grid"
       id="path-effect4535"
       is_visible="true"
       nr_x="5"
       nr_y="5" />
    <inkscape:path-effect
       effect="simplify"
       id="path-effect817"
       is_visible="true"
       steps="1"
       threshold="0.00425861"
       smooth_angles="360"
       helper_size="0"
       simplify_individual_paths="false"
       simplify_just_coalesce="false"
       simplifyindividualpaths="false"
       simplifyJustCoalesce="false" />
  </defs>
  <sodipodi:namedview
     id="base"
     pagecolor="#ffffff"
     bordercolor="#666666"
     borderopacity="1.0"
     inkscape:pageopacity="0.0"
     inkscape:pageshadow="2"
     inkscape:zoom="0.75989759"
     inkscape:cx="396.85039"
     inkscape:cy="561.25984"
     inkscape:document-units="mm"
     inkscape:current-layer="svg8"
     showgrid="false"
     inkscape:window-width="1920"
     inkscape:window-height="1017"
     inkscape:window-x="-8"
     inkscape:window-y="-8"
     inkscape:window-maximized="1" />
  <metadata
     id="metadata5">
    <rdf:RDF>
      <cc:Work
         rdf:about="">
        <dc:format>image/svg+xml</dc:format>
        <dc:type
           rdf:resource="http://purl.org/dc/dcmitype/StillImage" />
        <dc:title></dc:title>
      </cc:Work>
    </rdf:RDF>
  </metadata>
  <g
     inkscape:label="Layer 1"
     inkscape:groupmode="layer"
     id="layer1" />
  <path
     style="fill:none;stroke:#000000;stroke-width:0.26458332px;stroke-linecap:butt;stroke-linejoin:miter;stroke-opacity:1"
     d="m 94.456249,159.15208 v 0"
     id="path4567"
     inkscape:connector-curvature="0" />
  <path
     id="path4599"
     style="font-style:normal;font-weight:normal;font-size:64px;line-height:1.25;font-family:sans-serif;text-align:center;letter-spacing:0px;word-spacing:0px;text-anchor:middle;fill:#000000;fill-opacity:1;stroke:none;stroke-width:0.26458332"
     d="m 104.39253,165.56297 c -2.38965,-0.74725 -4.801909,-1.41664 -7.232938,-2.01003 l 2.899718,-11.93831 c 0.56273,0.13607 1.12476,0.27576 1.68605,0.4191 l -2.694206,10.49649 c 1.936776,0.49924 3.861556,1.04657 5.772446,1.64291 z m -8.768331,-2.37415 c -2.438746,-0.56152 -4.895447,-1.04742 -7.366247,-1.45956 l 2.018569,-12.1079 c 0.569621,0.0949 1.138747,0.19337 1.707341,0.29535 l -1.913325,10.65412 c 1.969089,0.35398 3.92909,0.75467 5.878103,1.20296 z m -9.146975,-1.74348 c -0.554905,-0.0844 -1.11047,-0.16514 -1.666653,-0.24222 -0.228071,-1.18293 -0.466656,-2.36558 -0.715681,-3.54783 -1.74499,-0.22592 -3.49508,-0.41712 -5.249037,-0.57419 -0.49969,1.10074 -0.98957,2.20426 -1.469683,3.31043 -0.534232,-0.0429 -1.068851,-0.0825 -1.603818,-0.119 1.723753,-3.98684 3.577061,-7.93913 5.562055,-11.85056 0.765085,0.0782 1.529621,0.1625 2.293523,0.25295 1.088568,4.24983 2.039532,8.50851 2.849294,12.77042 z m -2.70342,-5.24395 c -0.464335,-2.08314 -0.961465,-4.16478 -1.490982,-6.24429 -0.970004,1.91473 -1.908709,3.83926 -2.81636,5.77285 1.438526,0.13428 2.874526,0.29132 4.307342,0.47144 z m -8.620637,0.24411 c -0.03804,0.60926 -0.186542,1.1403 -0.44177,1.59334 -0.255307,0.45317 -0.581896,0.82016 -0.979222,1.1022 -0.470455,0.33887 -0.977581,0.57346 -1.523943,0.70499 -0.541494,0.13187 -1.223804,0.18352 -2.052229,0.16163 -1.410487,-0.0373 -2.822478,-0.0528 -4.235295,-0.0468 l -0.04093,-12.30052 c 1.283975,-0.003 2.568005,0.01 3.851696,0.0393 0.947209,0.0218 1.65992,0.0799 2.126763,0.1631 0.468675,0.0835 0.913618,0.23998 1.333099,0.46872 0.464665,0.25838 0.793104,0.58139 0.986498,0.96625 0.193788,0.37958 0.275184,0.82751 0.246853,1.34393 -0.03194,0.58219 -0.213147,1.07082 -0.539309,1.46689 -0.326038,0.39076 -0.74698,0.69765 -1.262736,0.92315 l -0.0028,0.0659 c 0.84008,0.20712 1.487565,0.60858 1.939293,1.19633 0.452493,0.58284 0.64721,1.30047 0.59408,2.15152 -2e-6,2e-5 -3e-6,4e-5 -4e-6,6e-5 z m -2.501494,-5.67616 c 0.01266,-0.2969 -0.02801,-0.54919 -0.122733,-0.757 -0.0947,-0.20775 -0.254519,-0.37963 -0.479776,-0.51503 -0.26463,-0.15892 -0.589952,-0.26171 -0.975088,-0.3071 -0.384573,-0.0509 -0.863498,-0.0841 -1.434128,-0.0969 -0.68058,-0.0152 -1.361276,-0.0258 -2.042028,-0.0317 l -0.02872,3.55129 c 0.720921,0.006 1.441715,0.0172 2.162306,0.0339 0.523911,0.0121 0.940276,-2.6e-4 1.251901,-0.04 0.311403,-0.0452 0.602378,-0.14506 0.873742,-0.3 0.271328,-0.15493 0.466449,-0.3589 0.584817,-0.61281 0.124226,-0.2591 0.194469,-0.56733 0.209711,-0.92462 0,0 0,0 0,1e-5 z m 0.805188,5.64728 c 0.02482,-0.49465 -0.02953,-0.89101 -0.164661,-1.18965 -0.135025,-0.2984 -0.394856,-0.55886 -0.780749,-0.77913 -0.26084,-0.1488 -0.583108,-0.25 -0.96605,-0.30228 -0.376896,-0.0575 -0.839436,-0.0947 -1.385548,-0.10897 -0.866957,-0.0227 -1.734274,-0.0375 -2.601814,-0.0445 l -0.03701,4.57539 c 0.70775,0.005 1.415259,0.0159 2.122445,0.0319 0.702314,0.0159 1.276749,-0.002 1.727927,-0.0574 0.450794,-0.0613 0.823441,-0.18365 1.118941,-0.36918 0.312389,-0.20127 0.54635,-0.43527 0.701109,-0.70324 0.154677,-0.26784 0.243632,-0.61887 0.265406,-1.05287 0,-1e-5 1e-6,-3e-5 2e-6,-5e-5 z m -15.848886,3.82391 c -2.626118,0.16491 -5.250493,0.40164 -7.868773,0.7081 L 48.312286,148.7069 c 2.836663,-0.32937 5.682549,-0.58251 8.533305,-0.75732 l 0.09011,1.45279 c -2.254181,0.1386 -4.505494,0.3266 -6.751727,0.56295 l 0.354651,3.35794 c 2.198195,-0.23192 4.400925,-0.41662 6.605977,-0.55305 l 0.09011,1.45279 c -2.183858,0.13549 -4.365631,0.31877 -6.543104,0.54877 l 0.480692,4.55133 c 2.112363,-0.22399 4.228286,-0.40279 6.345555,-0.53535 z m -11.076215,1.11872 c -0.527308,0.0733 -1.054294,0.14939 -1.580924,0.22827 l -0.892745,-5.96931 c -2.055755,0.30746 -4.105611,0.65601 -6.147675,1.04475 l 1.128798,5.92949 c -0.52345,0.0996 -1.046409,0.20186 -1.568841,0.30686 L 35.03811,150.81366 c 0.564527,-0.11375 1.129709,-0.22453 1.695508,-0.33232 l 0.904278,4.7501 c 2.060848,-0.39239 4.1297,-0.74415 6.204664,-1.05438 l -0.715177,-4.782 c 0.569937,-0.0851 1.140357,-0.16718 1.711226,-0.24617 z m -12.916691,-8.76291 c -1.499839,0.31893 -2.994801,0.65897 -4.484192,1.01978 l 2.552953,10.56164 c -0.518035,0.12483 -1.035411,0.25231 -1.552091,0.38241 l -2.661477,-10.53258 c -1.485147,0.37622 -2.964465,0.77309 -4.437259,1.19027 l -0.395394,-1.40044 c 3.524027,-0.99917 7.085377,-1.88277 10.674784,-2.64634 z"
     inkscape:path-effect="#path-effect4614"
     inkscape:original-d="m 106.31289,165.86958 h -7.788672 v -12.31139 h 1.637112 v 10.85619 h 6.15156 z m -9.425782,0 h -7.788672 v -12.31139 h 1.63711 v 10.85619 h 6.151562 z m -9.657291,0 H 85.48522 l -1.207161,-3.43131 h -5.32474 l -1.207161,3.43131 h -1.661914 l 4.48138,-12.31139 h 2.182812 z m -3.45612,-4.83691 -2.158008,-6.04408 -2.166276,6.04408 z m -8.574154,1.05006 q 0,0.91778 -0.347265,1.62058 -0.347266,0.7028 -0.93431,1.15755 -0.694531,0.5457 -1.529623,0.77721 -0.826822,0.23151 -2.108398,0.23151 h -4.365625 v -12.31139 h 3.646289 q 1.347721,0 2.017448,0.0992 0.669727,0.0992 1.281575,0.41341 0.677995,0.35553 0.98392,0.91777 0.305924,0.55398 0.305924,1.33119 0,0.87643 -0.446484,1.49655 -0.446485,0.61185 -1.190625,0.98392 v 0.0661 q 1.248502,0.25632 1.967838,1.09968 0.719336,0.83509 0.719336,2.11666 z m -2.75332,-5.54798 q 0,-0.44648 -0.148828,-0.75241 -0.148828,-0.30592 -0.479557,-0.49609 -0.388607,-0.22324 -0.942578,-0.27285 -0.553972,-0.0579 -1.372527,-0.0579 h -1.951302 v 3.55534 h 2.116667 q 0.768945,0 1.223698,-0.0744 0.454753,-0.0827 0.843359,-0.33073 0.388607,-0.24805 0.545703,-0.63666 0.165365,-0.39687 0.165365,-0.93431 z m 1.050065,5.61413 q 0,-0.74414 -0.223242,-1.18236 -0.223242,-0.43821 -0.810286,-0.74414 -0.396875,-0.2067 -0.967383,-0.26458 -0.56224,-0.0661 -1.372526,-0.0661 h -2.57142 v 4.5806 h 2.166276 q 1.07487,0 1.761133,-0.10748 0.686263,-0.11576 1.124479,-0.41342 0.463021,-0.32246 0.677995,-0.73587 0.214974,-0.41341 0.214974,-1.0666 z m -16.139583,3.7207 h -8.111133 v -12.31139 h 8.111133 v 1.45521 h -6.474023 v 3.37344 h 6.474023 v 1.4552 h -6.474023 v 4.57234 h 6.474023 z m -11.426693,0 h -1.637109 v -6.02754 h -6.143294 v 6.02754 H 36.5125 v -12.31139 h 1.637109 v 4.82865 h 6.143294 v -4.82865 h 1.637109 z M 34.842317,155.0134 h -4.398698 v 10.85618 H 28.80651 V 155.0134 h -4.398698 v -1.45521 h 10.434505 z" />
  <path
     inkscape:connector-curvature="0"
     id="path4616"
     style="font-style:normal;font-weight:normal;font-size:64px;line-height:1.25;font-family:sans-serif;text-align:center;letter-spacing:0px;word-spacing:0px;text-anchor:middle;fill:#000000;fill-opacity:1;stroke:none;stroke-width:0.26458332"
     d="m 93.050647,61.92597 h -7.78867 V 49.61458 h 1.63711 v 10.85619 h 6.15156 z m -9.42578,0 h -7.78868 V 49.61458 h 1.63711 v 10.85619 h 6.15157 z m -9.6573,0 h -1.74459 l -1.20716,-3.43131 h -5.32474 l -1.20716,3.43131 h -1.66192 l 4.48138,-12.31139 h 2.18281 z m -3.45612,-4.83691 -2.158,-6.04408 -2.16628,6.04408 z m -8.57415,1.05006 q 0,0.91778 -0.34726,1.62058 -0.34727,0.7028 -0.93431,1.15755 -0.69454,0.5457 -1.52963,0.77721 -0.82682,0.23151 -2.1084,0.23151 h -4.36562 V 49.61458 h 3.64629 q 1.34772,0 2.01745,0.0992 0.66972,0.0992 1.28157,0.41341 0.678,0.35553 0.98392,0.91777 0.30593,0.55398 0.30593,1.33119 0,0.87643 -0.44649,1.49655 -0.44648,0.61185 -1.19062,0.98392 v 0.0661 q 1.2485,0.25632 1.96784,1.09968 0.71933,0.83509 0.71933,2.11666 z m -2.75332,-5.54798 q 0,-0.44648 -0.14883,-0.75241 -0.14883,-0.30592 -0.47955,-0.49609 -0.38861,-0.22324 -0.94258,-0.27285 -0.55397,-0.0579 -1.37253,-0.0579 h -1.9513 v 3.55534 h 2.11667 q 0.76894,0 1.22369,-0.0744 0.45476,-0.0827 0.84336,-0.33073 0.38861,-0.24805 0.54571,-0.63666 0.16536,-0.39687 0.16536,-0.93431 z m 1.05007,5.61413 q 0,-0.74414 -0.22325,-1.18236 -0.22324,-0.43821 -0.81028,-0.74414 -0.39688,-0.2067 -0.96739,-0.26458 -0.56224,-0.0661 -1.37252,-0.0661 h -2.57142 v 4.5806 h 2.16627 q 1.07487,0 1.76114,-0.10748 0.68626,-0.11576 1.12448,-0.41342 0.46302,-0.32246 0.67799,-0.73587 0.21498,-0.41341 0.21498,-1.0666 z m -16.13959,3.7207 h -8.11113 V 49.61458 h 8.11113 v 1.45521 h -6.47402 v 3.37344 h 6.47402 v 1.4552 h -6.47402 v 4.57234 h 6.47402 z m -11.42669,0 h -1.63711 v -6.02754 h -6.14329 v 6.02754 h -1.63711 V 49.61458 h 1.63711 v 4.82865 h 6.14329 v -4.82865 h 1.63711 z m -11.0877,-10.85618 h -4.39869 v 10.85618 h -1.63711 V 51.06979 h -4.3987 v -1.45521 h 10.4345 z" />
  <path
     id="path4612"
     style="font-style:normal;font-weight:normal;font-size:64px;line-height:1.25;font-family:sans-serif;text-align:center;letter-spacing:0px;word-spacing:0px;text-anchor:middle;fill:#000000;fill-opacity:1;stroke:none;stroke-width:0.26458332"
     d="m 193.60176,57.586083 c 0,0 -7.07493,-3.2434 -7.07493,-3.2434 0,0 0,-12.31139 0,-12.31139 0,0 1.51711,0.6145 1.51711,0.6145 0,0 0,10.85619 0,10.85619 0,0 5.55782,2.6289 5.55782,2.6289 0,0 0,1.4552 0,1.4552 m -8.60667,-3.82103 c 0,0 -7.44595,-2.27225 -7.44595,-2.27225 0,0 0,-12.31139 0,-12.31139 0,0 1.5818,0.42131 1.5818,0.42131 0,0 0,10.85619 0,10.85619 0,0 5.86415,1.85094 5.86415,1.85094 0,0 0,1.4552 0,1.4552 m -9.26348,-2.70591 c 0,0 -1.70584,-0.36471 -1.70584,-0.36471 0,0 -1.18245,-3.67393 -1.18245,-3.67393 0,0 -5.25848,-0.83083 -5.25848,-0.83083 0,0 -1.19905,3.29208 -1.19905,3.29208 0,0 -1.6527,-0.17262 -1.6527,-0.17262 0,0 4.44836,-11.77638 4.44836,-11.77638 0,0 2.15552,0.34214 2.15552,0.34214 0,0 4.39464,13.18425 4.39464,13.18425 m -3.38499,-5.53179 c 0,0 -2.12615,-6.41249 -2.12615,-6.41249 0,0 -2.14348,5.7311 -2.14348,5.7311 0,0 4.26963,0.68139 4.26963,0.68139 m -8.49492,-0.0812 c 0,0.61185 -0.11532,1.14208 -0.34596,1.59069 -0.23064,0.4486 -0.54062,0.80358 -0.93134,1.08459 -0.46227,0.3376 -0.97131,0.56781 -1.52712,0.69064 -0.55031,0.12314 -1.25256,0.17584 -2.10667,0.15571 0,0 -4.36468,-0.0108 -4.36468,-0.0108 0,0 0,-12.31139 0,-12.31139 0,0 3.64559,-0.006 3.64559,-0.006 0.89818,0.0212 1.57044,0.0701 2.01678,0.14674 0.44633,0.0767 0.87227,0.25273 1.2795,0.48529 0.45126,0.2626 0.77869,0.58709 0.9823,0.97346 0.20362,0.38086 0.30543,0.83037 0.30543,1.34851 0,0.58428 -0.14858,1.07471 -0.44576,1.47128 -0.29716,0.39105 -0.69338,0.69656 -1.18866,0.91653 0,0 0,0.0661 0,0.0661 0.83096,0.21799 1.4862,0.61664 1.96396,1.22016 0.47775,0.59801 0.71663,1.3242 0.71663,2.17858 0,0 0,6e-5 0,6e-5 m -2.74664,-5.73413 c 0,-0.29765 -0.0495,-0.55126 -0.14858,-0.76083 -0.0991,-0.20956 -0.25865,-0.38397 -0.47877,-0.52323 -0.25864,-0.16349 -0.57278,-0.26055 -0.94197,-0.30233 -0.36919,-0.0473 -0.82655,-0.0774 -1.37208,-0.0902 0,0 -1.95084,-0.0127 -1.95084,-0.0127 0,0 0,3.55534 0,3.55534 0,0 2.11616,0.0167 2.11616,0.0167 0.51245,0.0121 0.92021,-0.003 1.22328,-0.0456 0.30307,-0.048 0.58426,-0.15563 0.8429,-0.30632 0.25865,-0.15071 0.44025,-0.35263 0.54482,-0.60578 0.11005,-0.25834 0.16508,-0.56665 0.16508,-0.92495 0,0 0,10e-6 0,10e-6 m 1.04835,5.67357 c 0,-0.4961 -0.0743,-0.89443 -0.22288,-1.195 -0.14858,-0.30056 -0.41823,-0.5639 -0.80895,-0.79 -0.26416,-0.15278 -0.58573,-0.2684 -0.96594,-0.31595 -0.3747,-0.0529 -0.83206,-0.0857 -1.37206,-0.0984 0,0 -2.57076,-0.0274 -2.57076,-0.0274 0,0 0,4.5806 0,4.5806 0,0 2.16574,0.0178 2.16574,0.0178 0.71634,0.0169 1.30319,-0.005 1.76056,-0.066 0.45735,-0.0664 0.83112,-0.1718 1.12279,-0.35371 0.30817,-0.1975 0.5338,-0.43 0.67688,-0.69749 0.14308,-0.2675 0.21462,-0.61897 0.21462,-1.05443 0,0 0,-5e-5 0,-5e-5 m -16.10816,4.19239 c 0,0 -7.99554,1.34001 -7.99554,1.34001 0,0 0,-12.31139 0,-12.31139 0,0 7.99554,-1.34001 7.99554,-1.34001 0,0 0,1.45521 0,1.45521 0,0 -6.39224,1.01071 -6.39224,1.01071 0,0 0,3.37344 0,3.37344 0,0 6.39224,-1.01071 6.39224,-1.01071 0,0 0,1.4552 0,1.4552 0,0 -6.39224,1.01071 -6.39224,1.01071 0,0 0,4.57234 0,4.57234 0,0 6.39224,-1.01071 6.39224,-1.01071 0,0 0,1.4552 0,1.4552 m -11.22002,2.10907 c 0,0 -1.58212,0.42039 -1.58212,0.42039 0,0 0,-6.02754 0,-6.02754 0,0 -5.84342,1.88943 -5.84342,1.88943 0,0 0,6.02754 0,6.02754 0,0 -1.52351,0.59877 -1.52351,0.59877 0,0 0,-12.31139 0,-12.31139 0,0 1.52351,-0.59877 1.52351,-0.59877 0,0 0,4.82865 0,4.82865 0,0 5.84342,-1.88943 5.84342,-1.88943 0,0 0,-4.82865 0,-4.82865 0,0 1.58212,-0.42039 1.58212,-0.42039 0,0 0,12.31139 0,12.31139 m -10.49601,-7.31898 c 0,0 -3.98222,1.8649 -3.98222,1.8649 0,0 0,10.85618 0,10.85618 0,0 -1.44559,0.76712 -1.44559,0.76712 0,0 0,-10.85618 0,-10.85618 0,0 -3.77459,2.25507 -3.77459,2.25507 0,0 0,-1.45521 0,-1.45521 0,0 9.2024,-4.88709 9.2024,-4.88709 0,0 0,1.45521 0,1.45521"
     inkscape:connector-curvature="0" />
  <path
     d="m 204.9694,151.8843 h -7.78867 v -12.31139 h 1.63711 v 10.85619 h 6.15156 z m -9.42578,0 h -7.78868 v -12.31139 h 1.63711 v 10.85619 h 6.15157 z m -9.6573,0 h -1.74459 l -1.20716,-3.43131 h -5.32474 l -1.20716,3.43131 h -1.66192 l 4.48138,-12.31139 h 2.18281 z m -3.45612,-4.83691 -2.158,-6.04408 -2.16628,6.04408 z m -8.57415,1.05006 q 0,0.91778 -0.34726,1.62058 -0.34727,0.7028 -0.93431,1.15755 -0.69454,0.5457 -1.52963,0.77721 -0.82682,0.23151 -2.1084,0.23151 h -4.36562 v -12.31139 h 3.64629 q 1.34772,0 2.01745,0.0992 0.66972,0.0992 1.28157,0.41341 0.678,0.35553 0.98392,0.91777 0.30593,0.55398 0.30593,1.33119 0,0.87643 -0.44649,1.49655 -0.44648,0.61185 -1.19062,0.98392 v 0.0661 q 1.2485,0.25632 1.96784,1.09968 0.71933,0.83509 0.71933,2.11666 z m -2.75332,-5.54798 q 0,-0.44648 -0.14883,-0.75241 -0.14883,-0.30592 -0.47955,-0.49609 -0.38861,-0.22324 -0.94258,-0.27285 -0.55397,-0.0579 -1.37253,-0.0579 h -1.9513 v 3.55534 h 2.11667 q 0.76894,0 1.22369,-0.0744 0.45476,-0.0827 0.84336,-0.33073 0.38861,-0.24805 0.54571,-0.63666 0.16536,-0.39687 0.16536,-0.93431 z m 1.05007,5.61413 q 0,-0.74414 -0.22325,-1.18236 -0.22324,-0.43821 -0.81028,-0.74414 -0.39688,-0.2067 -0.96739,-0.26458 -0.56224,-0.0661 -1.37252,-0.0661 h -2.57142 v 4.5806 h 2.16627 q 1.07487,0 1.76114,-0.10748 0.68626,-0.11576 1.12448,-0.41342 0.46302,-0.32246 0.67799,-0.73587 0.21498,-0.41341 0.21498,-1.0666 z m -16.13959,3.7207 h -8.11113 v -12.31139 h 8.11113 v 1.45521 h -6.47402 v 3.37344 h 6.47402 v 1.4552 h -6.47402 v 4.57234 h 6.47402 z m -11.42669,0 h -1.63711 v -6.02754 h -6.14329 v 6.02754 h -1.63711 v -12.31139 h 1.63711 v 4.82865 h 6.14329 v -4.82865 h 1.63711 z m -11.0877,-10.85618 h -4.39869 v 10.85618 h -1.63711 v -10.85618 h -4.3987 v -1.45521 h 10.4345 z"
     style="font-style:normal;font-weight:normal;font-size:64px;line-height:1.25;font-family:sans-serif;text-align:center;letter-spacing:0px;word-spacing:0px;text-anchor:middle;fill:#000000;fill-opacity:1;stroke:none;stroke-width:0.26458332"
     id="path4656"
     inkscape:connector-curvature="0" />
  <path
     style="fill:none;stroke:#000000;stroke-width:0.26458332px;stroke-linecap:butt;stroke-linejoin:miter;stroke-opacity:1"
     d="m 12.733066,42.049377 c 11.518873,-7.62632 28.50122,-11.807816 45.131329,-11.1125 13.731327,0.574116 27.061677,4.410546 36.773671,10.583333"
     id="path4660"
     inkscape:connector-curvature="0" />
  <path
     id="path4694"
     style="font-style:normal;font-weight:normal;font-size:64px;line-height:1.25;font-family:sans-serif;text-align:center;letter-spacing:0px;word-spacing:0px;text-anchor:middle;fill:#000000;fill-opacity:1;stroke:none;stroke-width:0.26458332"
     d="m 193.53478,71.634338 c 0,0 -6.2695,-2.871197 -6.2695,-2.871197 0,0 4.34392,-11.518971 4.34392,-11.518971 0,0 1.71126,0.691526 1.71126,0.691526 0,0 -4.17287,10.02159 -4.17287,10.02159 0,0 5.09104,2.403503 5.09104,2.403503 0,0 -0.70385,1.273549 -0.70385,1.273549 m -7.80123,-3.44883 c 0,0 -6.70259,-2.044344 -6.70259,-2.044344 0,0 2.85719,-11.974775 2.85719,-11.974775 0,0 1.76384,0.467694 1.76384,0.467694 0,0 -2.84051,10.477549 -2.84051,10.477549 0,0 5.43551,1.71234 5.43551,1.71234 0,0 -0.51344,1.361536 -0.51344,1.361536 M 177.21343,65.7075 c 0,0 -1.52534,-0.324496 -1.52534,-0.324496 0,0 -0.40728,-3.587298 -0.40728,-3.587298 0,0 -5.09978,-0.807645 -5.09978,-0.807645 0,0 -1.59483,3.269051 -1.59483,3.269051 0,0 -1.47256,-0.15438 -1.47256,-0.15438 0,0 5.8676,-11.688503 5.8676,-11.688503 0,0 2.33469,0.371014 2.33469,0.371014 0,0 1.8975,12.922257 1.8975,12.922257 m -2.18532,-5.383555 c 0,0 -1.21452,-6.342662 -1.21452,-6.342662 0,0 -3.01672,5.66746 -3.01672,5.66746 0,0 4.23124,0.675202 4.23124,0.675202 m -8.46989,-0.07002 c -0.0527,0.60956 -0.21449,1.137766 -0.48546,1.584616 -0.27097,0.446849 -0.47138,0.810587 -0.87926,1.091106 -0.48286,0.336997 -1.00656,0.566784 -1.57111,0.68936 -0.55905,0.122889 -1.06233,0.183514 -1.91643,0.163379 0,0 -4.14343,-0.0096 -4.14343,-0.0096 0,0 -0.15238,-12.309796 -0.15238,-12.309796 0,0 3.86686,-0.0049 3.86686,-0.0049 0.89818,0.02117 1.56966,0.07008 2.01444,0.146712 0.44477,0.07663 1.06078,0.260311 1.45615,0.492528 0.43785,0.262214 0.74797,0.586199 0.93037,0.971954 0.18271,0.380258 0.25941,0.829032 0.23008,1.346323 -0.0331,0.583328 -0.20989,1.072937 -0.53046,1.468825 -0.32025,0.390384 -0.73504,0.695357 -1.24436,0.914918 0,0 -0.004,0.06599 -0.004,0.06599 0.8213,0.217709 1.46492,0.616418 1.89429,1.21783 0.42984,0.595918 0.60798,1.319466 0.53444,2.170644 0,0 0,6e-5 0,6e-5 m -2.36281,-5.720035 c 0.0168,-0.297165 -0.0185,-0.550365 -0.106,-0.7596 -0.0875,-0.209228 -0.23774,-0.383367 -0.45068,-0.522418 -0.25023,-0.163246 -0.7134,-0.266259 -1.08181,-0.308025 -0.36828,-0.04729 -0.82518,-0.07737 -1.37071,-0.09023 0,0 -2.12187,-0.01372 -2.12187,-0.01372 0,0 0.044,3.55488 0.044,3.55488 0,0 2.15939,0.01689 2.15939,0.01689 0.51246,0.01208 0.9208,-0.0031 1.22504,-0.04554 0.30437,-0.04797 0.63582,-0.15369 0.90382,-0.30411 0.268,-0.150432 0.46162,-0.352008 0.58085,-0.604729 0.12503,-0.257907 0.19769,-0.565713 0.21797,-0.923419 0,0 -1e-5,10e-6 -1e-5,10e-6 m 0.7306,5.664358 c 0.0281,-0.49528 -0.0239,-0.892966 -0.15597,-1.193057 -0.13204,-0.300085 -0.38765,-0.563012 -0.76683,-0.788781 -0.25635,-0.15255 -0.5636,-0.267657 -0.9429,-0.315194 -0.37367,-0.05289 -0.8305,-0.08569 -1.37051,-0.09842 0,0 -2.56436,-0.02733 -2.56436,-0.02733 0,0 0.0567,4.580007 0.0567,4.580007 0,0 1.9947,0.01685 1.9947,0.01685 0.71634,0.01689 1.30403,-0.0051 1.76308,-0.06594 0.45918,-0.06637 0.68966,-0.17753 0.99256,-0.359109 0.32034,-0.19715 0.55985,-0.429247 0.71853,-0.69629 0.15868,-0.267043 0.25035,-0.617938 0.275,-1.052684 0,0 0,-4.9e-5 0,-4.9e-5 m -15.24793,4.153536 c 0,0 -7.35459,1.229639 -7.35459,1.229639 0,0 -2.72673,-12.004954 -2.72673,-12.004954 0,0 8.6365,-1.450375 8.6365,-1.450375 0,0 0.17078,1.44508 0.17078,1.44508 0,0 -6.71767,1.060783 -6.71767,1.060783 0,0 0.62944,3.314018 0.62944,3.314018 0,0 6.48412,-1.024843 6.48412,-1.024843 0,0 0.17078,1.44507 0.17078,1.44507 0,0 -6.38337,1.00934 -6.38337,1.00934 0,0 0.85313,4.4918 0.85313,4.4918 0,0 6.06683,-0.960628 6.06683,-0.960628 0,0 0.17078,1.44507 0.17078,1.44507 m -10.36172,1.945141 c 0,0 -1.58211,0.420393 -1.58211,0.420393 0,0 -1.54781,-5.825068 -1.54781,-5.825068 0,0 -5.83412,1.886579 -5.83412,1.886579 0,0 1.98525,5.690811 1.98525,5.690811 0,0 -1.29196,0.512698 -1.29196,0.512698 0,0 -4.51804,-11.451482 -4.51804,-11.451482 0,0 1.75507,-0.684829 1.75507,-0.684829 0,0 1.59039,4.558897 1.59039,4.558897 0,0 5.93973,-1.918992 5.93973,-1.918992 0,0 -1.23995,-4.666451 -1.23995,-4.666451 0,0 1.58212,-0.420393 1.58212,-0.420393 0,0 3.16143,11.897837 3.16143,11.897837 M 125.3326,59.589358 c 0,0 -4.17023,1.953434 -4.17023,1.953434 0,0 4.83869,9.71717 4.83869,9.71717 0,0 -1.19074,0.632604 -1.19074,0.632604 0,0 -5.28814,-9.479947 -5.28814,-9.479947 0,0 -3.97621,2.374292 -3.97621,2.374292 0,0 -0.77126,-1.233825 -0.77126,-1.233825 0,0 9.9675,-5.29367 9.9675,-5.29367 0,0 0.59039,1.329942 0.59039,1.329942"
     inkscape:connector-curvature="0" />
  <path
     inkscape:connector-curvature="0"
     id="path4762"
     d="m 199.28608,118.38462 c -2.04274,-1.3174 -4.18867,-2.48189 -6.41662,-3.50476 l 5.12761,-11.15104 c 0.56816,0.2616 1.13344,0.53086 1.69565,0.80789 l -4.78769,9.706 c 1.77671,0.87723 3.50072,1.84664 5.16163,2.91378 l -0.78058,1.22813 m -7.83219,-4.13109 c -2.26152,-0.96384 -4.60062,-1.78843 -6.99616,-2.48506 l 3.47758,-11.815829 c 0.59472,0.176799 1.1877,0.360669 1.77874,0.551699 l -3.30978,10.33512 c 1.91372,0.60783 3.79071,1.29931 5.62055,2.08 z m -8.72979,-2.96452 c -0.54237,-0.14243 -1.08732,-0.27858 -1.63461,-0.40857 -0.11069,-1.20445 -0.24057,-2.41092 -0.3892,-3.61881 -1.7586,-0.39095 -3.53524,-0.7212 -5.32317,-0.99437 -0.57895,1.07319 -1.14165,2.15197 -1.68836,3.23566 -0.53667,-0.0742 -1.07451,-0.14327 -1.61331,-0.2074 1.93459,-3.91815 4.07912,-7.77834 6.44646,-11.54675 0.81005,0.141382 1.61883,0.294347 2.42586,0.459143 0.84011,4.373577 1.4392,8.743777 1.77633,13.081097 z m -2.22586,-5.5146 c -0.29971,-2.13177 -0.65798,-4.26709 -1.07243,-6.402569 -1.16178,1.838579 -2.27042,3.699759 -3.32739,5.579679 1.47508,0.23466 2.94289,0.50831 4.39982,0.82289 z m -8.87884,-0.35581 c -0.0655,0.61035 -0.24103,1.13695 -0.52063,1.58015 -0.27975,0.44342 -0.62726,0.79731 -1.04174,1.0635 -0.49105,0.32016 -1.01326,0.53508 -1.57094,0.64652 -0.55299,0.11201 -1.24438,0.13942 -2.08235,0.0919 -0.28212,-0.016 -0.56431,-0.0307 -0.84654,-0.0443 -1.14691,-0.0393 -2.29588,-0.0589 -3.44515,-0.058 l 0.0496,-12.353782 c 1.30709,0.01082 2.61096,0.04814 3.90984,0.1111 0.0536,0.002 0.1071,0.0039 0.16066,0.006 0.99891,0.03806 1.75385,0.115168 2.24481,0.21152 0.49389,0.09693 0.96065,0.268115 1.39744,0.512546 0.48373,0.275806 0.81999,0.613428 1.01039,1.007862 0.19108,0.389281 0.25994,0.842669 0.2108,1.360277 -0.0554,0.58347 -0.26415,1.06648 -0.61924,1.45091 -0.35486,0.37921 -0.80427,0.67084 -1.34807,0.87901 l -0.005,0.0661 c 0.86774,0.23757 1.52685,0.66834 1.97192,1.27908 0.4463,0.60617 0.61566,1.33675 0.52422,2.18949 0,2e-5 0,4e-5 0,6e-5 z m -2.39035,-5.804372 c 0.0224,-0.297569 -0.0125,-0.552126 -0.10586,-0.763824 -0.0933,-0.211594 -0.25651,-0.389264 -0.48991,-0.531902 -0.27419,-0.167412 -0.61425,-0.27975 -1.01866,-0.334938 -0.4035,-0.06063 -0.90722,-0.104938 -1.50666,-0.128064 -0.0316,-0.0012 -0.0632,-0.0024 -0.0948,-0.0036 -0.68252,-0.0321 -1.36637,-0.05712 -2.05126,-0.07493 l -0.0777,3.56169 c 0.66104,0.0152 1.32128,0.037 1.98043,0.0655 0.089,0.004 0.17793,0.007 0.26691,0.0112 0.54445,0.0237 0.97723,0.0222 1.30282,-0.009 0.32522,-0.0367 0.63086,-0.12827 0.91821,-0.27523 0.28729,-0.14696 0.49712,-0.34509 0.62859,-0.59596 0.13773,-0.25582 0.22091,-0.562812 0.24791,-0.920872 z m 0.648,5.700022 c 0.0433,-0.49586 0.002,-0.896 -0.12744,-1.20132 -0.12899,-0.30495 -0.38876,-0.57667 -0.78128,-0.81151 -0.2653,-0.15864 -0.59612,-0.27117 -0.99123,-0.33554 -0.3886,-0.0694 -0.86682,-0.1202 -1.43146,-0.14825 -0.24627,-0.0122 -0.49252,-0.0235 -0.73872,-0.0339 -0.65007,-0.027 -1.30113,-0.0477 -1.95292,-0.0618 l -0.10009,4.58878 c 0.62106,0.0107 1.2417,0.0273 1.86166,0.0496 0.1,0.005 0.19997,0.009 0.29995,0.0144 0.71436,0.0354 1.29871,0.0363 1.76,-0.005 0.46074,-0.0462 0.84406,-0.15539 1.1516,-0.33051 0.32522,-0.19027 0.57236,-0.41591 0.74018,-0.67882 0.1677,-0.2627 0.27174,-0.6117 0.30975,-1.04663 z m -16.16909,3.77227 c -2.64049,0.24701 -5.25928,0.61577 -7.83433,1.11714 l -2.40305,-12.117514 c 3.00517,-0.605262 6.03837,-1.046013 9.07755,-1.33311 l 0.13709,1.457821 c -2.38815,0.225369 -4.77131,0.546224 -7.13826,0.968084 l 0.58762,3.336489 c 2.27427,-0.40196 4.56749,-0.70848 6.86844,-0.92508 l 0.13709,1.45781 c -2.26334,0.21282 -4.51776,0.51316 -6.75205,0.90652 l 0.79646,4.52226 c 2.10867,-0.36639 4.24119,-0.64729 6.38634,-0.84823 0.0457,0.48593 0.0914,0.97187 0.1371,1.45781 z m -10.96868,1.79917 c -0.51177,0.12344 -1.02139,0.25246 -1.52869,0.38715 l -1.57086,-5.82196 c -2.07024,0.55841 -4.11208,1.20565 -6.11595,1.94644 l 2.08393,5.63616 c -0.48725,0.17851 -0.9715,0.36304 -1.45255,0.55366 l -4.54487,-11.3923 c 0.57782,-0.23181 1.1582,-0.45623 1.74094,-0.67333 l 1.66944,4.51511 c 2.04622,-0.75791 4.12935,-1.42011 6.23982,-1.99131 l -1.25842,-4.663967 c 0.59798,-0.163529 1.19765,-0.320086 1.79883,-0.46976 0.97946,3.991367 1.95892,7.982737 2.93838,11.974107 z M 128.4224,104.2587 c -1.50689,0.64972 -2.99348,1.35238 -4.45626,2.10971 l 4.97995,9.59452 c -0.4549,0.23704 -0.90594,0.48051 -1.35293,0.7305 l -5.2502,-9.45662 c -1.44456,0.79826 -2.86401,1.65185 -4.25481,2.56248 l -0.80334,-1.21338 c 3.37927,-2.20569 6.91663,-4.08412 10.56514,-5.6584 z"
     style="fill:none;stroke:#000000;stroke-width:0.26458332px;stroke-linecap:butt;stroke-linejoin:miter;stroke-opacity:1"
     inkscape:path-effect="#path-effect4775"
     inkscape:original-d="m 120.68303,113.71862 c 11.51887,-7.62632 28.50122,-11.80781 45.13132,-11.1125 13.73133,0.57412 27.06168,4.41055 36.77368,10.58334"
     transform="translate(-1.5875,-18.25625)" />
  <path
     d="m 205.23391,182.80771 h -7.78867 v -12.31139 h 1.63711 v 10.85619 h 6.15156 z m -9.42578,0 h -7.78868 v -12.31139 h 1.63711 v 10.85619 h 6.15157 z m -9.6573,0 h -1.74459 l -1.20716,-3.43131 h -5.32474 l -1.20716,3.43131 h -1.66192 l 4.48138,-12.31139 h 2.18281 z m -3.45612,-4.83691 -2.158,-6.04408 -2.16628,6.04408 z m -8.57415,1.05006 q 0,0.91778 -0.34726,1.62058 -0.34727,0.7028 -0.93431,1.15755 -0.69454,0.5457 -1.52963,0.77721 -0.82682,0.23151 -2.1084,0.23151 h -4.36562 v -12.31139 h 3.64629 q 1.34772,0 2.01745,0.0992 0.66972,0.0992 1.28157,0.41341 0.678,0.35553 0.98392,0.91777 0.30593,0.55398 0.30593,1.33119 0,0.87643 -0.44649,1.49655 -0.44648,0.61185 -1.19062,0.98392 v 0.0661 q 1.2485,0.25632 1.96784,1.09968 0.71933,0.83509 0.71933,2.11666 z m -2.75332,-5.54798 q 0,-0.44648 -0.14883,-0.75241 -0.14883,-0.30592 -0.47955,-0.49609 -0.38861,-0.22324 -0.94258,-0.27285 -0.55397,-0.0579 -1.37253,-0.0579 h -1.9513 v 3.55534 h 2.11667 q 0.76894,0 1.22369,-0.0744 0.45476,-0.0827 0.84336,-0.33073 0.38861,-0.24805 0.54571,-0.63666 0.16536,-0.39687 0.16536,-0.93431 z m 1.05007,5.61413 q 0,-0.74414 -0.22325,-1.18236 -0.22324,-0.43821 -0.81028,-0.74414 -0.39688,-0.2067 -0.96739,-0.26458 -0.56224,-0.0661 -1.37252,-0.0661 h -2.57142 v 4.5806 h 2.16627 q 1.07487,0 1.76114,-0.10748 0.68626,-0.11576 1.12448,-0.41342 0.46302,-0.32246 0.67799,-0.73587 0.21498,-0.41341 0.21498,-1.0666 z m -16.13959,3.7207 h -8.11113 v -12.31139 h 8.11113 v 1.45521 h -6.47402 v 3.37344 h 6.47402 v 1.4552 h -6.47402 v 4.57234 h 6.47402 z m -11.42669,0 h -1.63711 v -6.02754 h -6.14329 v 6.02754 h -1.63711 v -12.31139 h 1.63711 v 4.82865 h 6.14329 v -4.82865 h 1.63711 z m -11.0877,-10.85618 h -4.39869 v 10.85618 h -1.63711 v -10.85618 h -4.3987 v -1.45521 h 10.4345 z"
     style="font-style:normal;font-weight:normal;font-size:64px;line-height:1.25;font-family:sans-serif;text-align:center;letter-spacing:0px;word-spacing:0px;text-anchor:middle;fill:#000000;fill-opacity:1;stroke:none;stroke-width:0.26458332"
     id="path4764"
     inkscape:connector-curvature="0" />
</svg>
