<?xml version="1.0" encoding="UTF-8" standalone="no"?>
<!-- Created with Inkscape (http://www.inkscape.org/) -->

<svg
   xmlns:dc="http://purl.org/dc/elements/1.1/"
   xmlns:cc="http://creativecommons.org/ns#"
   xmlns:rdf="http://www.w3.org/1999/02/22-rdf-syntax-ns#"
   xmlns:svg="http://www.w3.org/2000/svg"
   xmlns="http://www.w3.org/2000/svg"
   xmlns:sodipodi="http://sodipodi.sourceforge.net/DTD/sodipodi-0.dtd"
   xmlns:inkscape="http://www.inkscape.org/namespaces/inkscape"
   width="210mm"
   height="297mm"
   viewBox="0 0 210 297"
   version="1.1"
   id="svg6473"
   inkscape:version="0.92.4 (5da689c313, 2019-01-14)"
   sodipodi:docname="tweek.svg">
  <defs
     id="defs6467" />
  <sodipodi:namedview
     id="base"
     pagecolor="#ffffff"
     bordercolor="#666666"
     borderopacity="1.0"
     inkscape:pageopacity="0.0"
     inkscape:pageshadow="2"
     inkscape:zoom="1.7021528"
     inkscape:cx="396.85039"
     inkscape:cy="560"
     inkscape:document-units="mm"
     inkscape:current-layer="layer1"
     showgrid="false"
     inkscape:window-width="1920"
     inkscape:window-height="1017"
     inkscape:window-x="-8"
     inkscape:window-y="-8"
     inkscape:window-maximized="1" />
  <metadata
     id="metadata6470">
    <rdf:RDF>
      <cc:Work
         rdf:about="">
        <dc:format>image/svg+xml</dc:format>
        <dc:type
           rdf:resource="http://purl.org/dc/dcmitype/StillImage" />
        <dc:title></dc:title>
      </cc:Work>
    </rdf:RDF>
  </metadata>
  <g
     inkscape:label="Layer 1"
     inkscape:groupmode="layer"
     id="layer1">
    <path
       style="opacity:0.80699978;fill:#50d1bb;fill-opacity:0.3254902;fill-rule:evenodd;stroke:#61ccc2;stroke-width:0.26499999;stroke-linecap:butt;stroke-linejoin:round;stroke-miterlimit:4;stroke-dasharray:none;stroke-opacity:1;"
       d="M 83.259766 115.28516 C 83.281405 115.38563 83.287971 115.21323 83.259766 115.28516 z M 83.058594 115.31445 C 83.251113 115.36096 82.940125 115.42194 83.097874 115.48331 C 82.983807 115.62227 83.175422 115.63359 83.123047 115.75 C 83.271076 115.79853 83.011516 115.7828 83.061507 115.77394 C 82.949352 115.91627 82.784085 115.74701 82.605469 115.72656 C 82.616514 115.53492 82.946454 115.84357 82.900469 115.60709 C 83.014705 115.40975 82.858956 115.31038 82.705078 115.44727 C 82.857653 115.53987 82.666605 115.67086 82.618681 115.5366 C 82.417966 115.5155 82.352917 115.46548 82.576172 115.6543 C 82.567431 115.73896 82.472029 115.68088 82.390625 115.80273 C 82.475486 115.6245 82.027875 115.68004 82.333984 115.80469 C 82.415182 116.01365 82.192222 116.04355 82.150391 115.88281 C 82.096228 115.91533 82.204636 115.95395 82.111328 115.97656 C 82.03232 115.8483 81.971271 115.69235 81.90625 115.66211 C 81.896881 115.48897 81.744576 115.61401 81.860204 115.78938 C 81.990849 116.0036 81.935206 116.05135 81.703567 116.03919 C 81.69583 116.03651 81.695523 115.95121 81.785156 115.88281 C 81.666363 115.75591 81.755031 115.95705 81.609386 115.78635 C 81.410905 115.78174 81.532315 115.81347 81.332373 115.76596 C 81.28111 116.03077 81.010348 115.48972 81.039062 115.78125 C 80.959449 115.89599 80.952064 115.84319 80.726718 115.91528 C 80.641563 115.86263 80.985506 116.19667 80.898438 115.95117 C 80.823067 115.88004 81.312131 116.13557 81.015625 116.19141 C 81.130665 116.28953 81.087261 116.13998 81.083984 116.2832 C 81.096044 116.35751 80.963899 116.3517 80.9375 116.18555 C 80.783936 116.28188 80.773156 116.56157 80.741198 116.38444 C 80.475423 116.29383 80.709414 116.16779 80.696039 116.08364 C 80.759306 116.11893 80.907474 116.15305 80.78125 116.13281 C 80.753845 115.98537 80.729194 116.06865 80.574219 116.08398 C 80.576434 116.14919 80.425173 116.16578 80.59375 116.05469 C 80.374058 116.14366 80.36473 116.18905 80.141203 116.3099 C 79.945614 116.45146 79.988116 115.96921 79.951368 116.2633 C 79.917473 116.36376 79.91901 116.46291 79.830078 116.22852 C 79.828745 116.47841 79.677409 116.22559 79.666016 116.51758 C 79.548925 116.58379 79.490532 116.3283 79.436305 116.53008 C 79.353745 116.64369 79.385939 116.6955 79.371094 116.73633 C 79.312847 116.68447 79.197604 116.52927 79.203125 116.82031 C 79.022239 116.54846 78.914688 116.92356 78.713978 116.90412 C 78.560831 117.07759 78.398712 116.9182 78.332031 117.07031 C 78.382383 117.24207 78.331304 117.42288 78.125 117.13086 C 77.924313 117.02093 77.750777 117.2211 77.601562 117.27539 C 77.379586 117.46969 77.387673 117.61556 77.098799 117.60829 C 76.852315 117.62122 76.564871 117.52081 76.404816 117.7778 C 76.251284 117.98062 75.954839 117.99034 75.710995 118.01936 C 75.487691 118.04963 75.383575 118.21347 75.234375 118.33984 C 74.96809 118.42284 74.657293 118.31212 74.446972 118.54494 C 74.123504 118.88416 73.613296 118.89512 73.217944 119.11673 C 72.801503 119.31911 72.436456 119.6298 71.97298 119.73188 C 71.236306 119.90366 70.489528 120.19326 69.721699 120.05142 C 69.040952 119.97178 68.449506 119.60717 67.826564 119.35577 C 67.557747 119.23714 67.213325 119.36694 67.143173 119.66638 C 66.967042 120.35281 66.833027 121.05353 66.699195 121.75085 C 66.117044 125.06372 66.15 128.53384 67.158468 131.76248 C 67.575967 133.02906 68.302109 134.28374 69.493089 134.95787 C 70.344049 135.41574 71.441344 134.8428 71.756192 133.98032 C 71.909572 133.56619 71.844621 133.11437 71.885231 132.6821 C 71.911993 131.16265 71.762246 129.63762 71.953311 128.12365 C 72.083808 126.73826 72.419936 125.33303 73.159972 124.14239 C 73.544734 123.70023 74.026244 123.29782 74.625 123.21289 C 75.144668 123.13216 75.670442 123.07077 76.194796 123.03748 C 76.531209 123.08012 76.865693 123.0522 77.190429 122.95584 C 77.556383 122.88965 77.941779 122.85705 78.296875 122.98633 C 78.506164 123.01046 78.660496 122.69749 78.861913 122.90068 C 79.111566 122.98461 79.363374 122.89881 79.616958 122.9422 C 79.858549 123.0061 80.183074 122.99699 80.345174 123.17741 C 80.41102 123.4644 80.706185 123.30745 80.91459 123.35557 C 81.140367 123.25029 81.150389 123.51129 81.358463 123.53003 C 81.624233 123.52 81.769529 123.60872 81.899236 123.8191 C 82.088619 123.98662 82.420278 123.8827 82.591703 124.06271 C 82.798955 124.19825 82.81805 124.48824 83.10364 124.54254 C 83.323216 124.52467 83.52269 124.74046 83.554688 124.93359 C 83.782202 125.04621 83.931262 125.23247 84.105469 125.4043 C 84.299747 125.6971 84.601433 125.88599 84.822266 126.15234 C 85.044462 126.50909 85.336927 126.81512 85.539025 127.18641 C 85.879764 127.64918 86.159688 128.14914 86.407052 128.66636 C 87.45082 130.65969 88.311072 132.81215 89.891151 134.46049 C 90.601354 135.18047 91.65305 135.70566 92.677297 135.43179 C 93.834132 135.12948 94.637711 133.99948 94.723441 132.83239 C 94.863488 131.38231 94.294546 129.98321 93.67077 128.70612 C 93.175037 127.75538 92.609206 126.84064 91.987434 125.96795 C 91.796635 125.59856 91.450922 125.34339 91.287284 124.95743 C 91.090172 124.76509 91.005273 124.51852 90.812008 124.31782 C 90.648579 124.1312 90.407816 123.97949 90.298851 123.74073 C 90.228722 123.49325 90.113019 123.31445 89.946299 123.09162 C 89.838603 122.87453 89.604901 122.881 89.521484 122.58008 C 89.504654 122.35449 89.180411 122.37849 89.346944 122.23739 C 89.198474 122.05684 88.942447 121.8554 88.886719 121.63477 C 88.568614 121.50787 88.911355 121.20271 88.686913 121.21018 C 88.668366 121.14524 88.431866 120.95313 88.417136 120.91901 C 88.371701 121.00643 88.376481 120.6978 88.291396 120.7286 C 88.011897 120.73383 88.054324 120.36887 87.946325 120.30179 C 87.810783 120.12043 87.834971 119.97397 87.647389 119.93501 C 87.732232 119.70072 87.373108 119.83825 87.494141 119.66992 C 87.450207 119.49027 87.597467 119.68626 87.490234 119.51172 C 87.227786 119.67105 87.098188 119.43936 87.232422 119.23633 C 87.236253 119.26799 87.201012 118.86021 86.949219 118.94336 C 87.038123 119.02643 86.610911 118.80892 86.764195 118.7771 C 86.613361 118.55992 86.652685 118.51284 86.537109 118.48828 C 86.364125 118.36296 86.294427 118.57948 86.205554 118.42115 C 86.021957 118.41593 86.314437 118.22108 86.361328 118.26562 C 86.468259 118.36494 86.449318 118.14687 86.426428 118.11605 C 86.725304 118.02082 86.276166 118.07728 86.356852 118.04009 C 86.240449 118.18941 86.336188 117.91041 86.277955 117.94482 C 86.224098 117.90591 86.194055 117.69579 86.035156 117.7832 C 86.061888 117.73924 86.10562 117.51644 85.945312 117.47852 C 85.845788 117.19368 85.886183 117.61199 85.759766 117.52344 C 85.668613 117.45501 85.596686 117.42614 85.84375 117.33008 C 85.562981 117.46024 85.643534 117.25768 85.449219 117.2207 C 85.514854 117.16564 85.641397 117.12465 85.400391 117.14844 C 85.371783 117.10266 85.042796 116.90892 85.369141 116.96875 C 85.3551 117.12621 85.770493 116.94265 85.535973 116.92023 C 85.482388 117.01075 85.380092 116.67252 85.238281 116.76367 C 85.331208 116.64494 85.134968 116.64982 85.121094 116.4707 C 85.154071 116.63446 85.010057 116.51513 85.079048 116.42492 C 85.008599 116.37139 84.873226 116.24059 84.912109 116.29492 C 84.844788 116.31454 84.786006 116.44562 84.96875 116.38281 C 84.899488 116.47192 84.512584 116.60797 84.703911 116.61822 C 84.67207 116.71993 84.478364 116.60192 84.676004 116.47532 C 84.858915 116.53232 84.751547 116.34913 84.685547 116.38086 C 84.663129 116.40997 84.72602 116.28588 84.677734 116.33203 C 84.579313 116.26433 84.601662 116.16803 84.591797 116.06641 C 84.827818 116.10853 84.732277 115.72499 84.566406 115.94336 C 84.565433 115.99911 84.428773 116.03013 84.557327 116.21802 C 84.658226 116.26839 84.218196 116.16916 84.343151 116.14477 C 84.550415 116.15784 84.256373 115.88878 84.197266 116.02344 C 84.154766 116.00907 84.119185 115.87375 84.314007 115.91045 C 84.490299 115.99194 84.419218 115.71015 84.408203 115.82031 C 84.298339 115.86917 84.44586 115.48747 84.255859 115.79102 C 84.135429 115.8169 84.398896 115.59212 84.134766 115.70703 C 84.09563 115.63552 84.129913 115.65531 83.963263 115.70311 C 83.957456 115.62313 83.813897 115.74815 83.79214 115.7661 C 83.776841 115.61146 83.683386 115.55852 83.654297 115.64844 C 83.75165 115.70093 83.666583 115.70978 83.648438 115.65625 C 83.555713 115.70196 83.620921 115.79561 83.527344 115.72266 C 83.45417 115.63823 83.497518 115.57436 83.496094 115.53516 C 83.473847 115.50005 83.720886 115.40093 83.439453 115.48047 C 83.367925 115.45214 83.288836 115.48991 83.2293 115.47013 C 83.317011 115.30685 83.196118 115.27582 83.058594 115.31445 z M 83.6875 115.5625 C 83.721845 115.53381 83.879884 115.5501 83.795869 115.44848 C 83.678136 115.362 83.541101 115.57808 83.6875 115.5625 z M 85.121094 116.48633 C 85.07134 116.47743 85.121903 116.59298 85.121094 116.48633 z M 85.283203 116.69922 C 85.298696 116.70352 85.29396 116.66503 85.283203 116.69922 z M 85.292969 116.69141 C 85.383247 116.78781 85.34403 116.55735 85.292969 116.69141 z M 85.552734 117.1543 C 85.632774 117.37843 85.722319 117.14378 85.552734 117.1543 z M 79.275391 116.64453 C 79.28394 116.45022 79.138467 116.57022 79.287443 116.61666 L 79.275391 116.64453 z M 80.767578 116.05469 C 80.840276 116.06921 80.782193 115.94743 80.703125 115.98828 C 80.78742 116.02858 80.776364 116.0592 80.767578 116.05469 z M 80.685547 115.89844 C 80.673421 115.87576 80.67149 115.90687 80.685547 115.89844 z M 83.53125 115.44922 C 83.595154 115.38687 83.535612 115.33622 83.53125 115.44922 z M 83.019531 115.43164 C 83.094881 115.41604 82.948556 115.35086 83.019531 115.43164 z M 82.966797 115.45117 C 82.975396 115.45652 82.969802 115.43351 82.966797 115.45117 z M 83.789062 115.46289 C 83.821883 115.53589 83.813207 115.44607 83.789062 115.46289 z M 83.03125 115.48047 C 83.015896 115.52595 83.064082 115.44093 83.03125 115.48047 z M 83.484375 115.48438 C 83.508648 115.50474 83.457989 115.47814 83.484375 115.48438 z M 83.845703 115.52734 C 83.915366 115.64971 83.876584 115.44471 83.845703 115.52734 z M 83.351562 115.50977 C 83.364696 115.56134 83.503884 115.52584 83.464844 115.5918 C 83.344733 115.6396 83.474833 115.60732 83.351562 115.50977 z M 83.455078 115.57031 C 83.41522 115.57618 83.486477 115.59848 83.455078 115.57031 z M 83.558594 115.53516 C 83.594356 115.51577 83.515085 115.50674 83.558594 115.53516 z M 83.328125 115.55859 C 83.512191 115.57086 83.218157 115.72138 83.351562 115.78125 C 83.433463 115.79661 83.496081 115.84857 83.41701 115.90713 C 83.523954 116.00082 83.211322 115.95187 83.301967 116.01521 C 83.453813 116.02385 83.162518 116.18885 83.230469 115.95312 C 83.290833 115.88643 83.364617 115.93544 83.363281 115.90234 C 83.283613 115.90255 83.291515 115.6061 83.144531 115.73047 C 83.162309 115.6152 83.210787 115.68018 83.193359 115.69727 C 83.341731 115.63412 83.169835 115.61069 83.328125 115.55859 z M 82.992188 115.60547 C 83.064575 115.81434 83.036752 115.40673 82.992188 115.60547 z M 83.779297 115.58594 C 83.960351 115.77719 83.657365 115.45041 83.779297 115.58594 z M 81.677734 115.56836 C 81.675547 115.78502 81.806448 115.50138 81.677734 115.56836 z M 83.617188 115.58984 C 83.569022 115.58615 83.607289 115.69379 83.664062 115.56836 L 83.620093 115.58851 L 83.617188 115.58984 z M 83.355469 115.5957 C 83.392515 115.55982 83.28371 115.56146 83.355469 115.5957 z M 84.0625 115.61523 C 84.094081 115.5783 84.017427 115.57917 84.0625 115.61523 z M 84.345703 115.62305 C 84.466944 115.64044 84.269884 115.54404 84.345703 115.62305 z M 83.517578 115.60547 C 83.543638 115.6299 83.51905 115.56799 83.517578 115.60547 z M 80.591797 115.70898 C 80.656952 115.81931 80.718693 115.54188 80.591797 115.70898 z M 82.251953 115.65234 C 82.351717 115.66933 82.320199 115.64938 82.251953 115.65234 z M 83.527344 115.6543 C 83.550347 115.65703 83.607049 115.63733 83.527344 115.6543 z M 84.40625 115.74023 C 84.453146 115.78261 84.454349 115.58243 84.40625 115.74023 z M 84.404297 115.74023 C 84.373265 115.70316 84.372464 115.77164 84.404297 115.74023 z M 83.652344 115.71875 C 83.638099 115.73538 83.646496 115.70925 83.652344 115.71875 z M 84.171875 115.74023 C 84.252646 115.81295 84.044862 115.68292 84.171875 115.74023 z M 82.199219 115.74609 C 82.232685 115.80228 82.048348 115.73118 82.107311 115.81508 C 82.075413 115.69475 82.272973 115.97598 82.195312 115.83789 C 82.169902 115.81894 82.280041 115.71871 82.199219 115.74609 z M 82.230469 115.90039 C 82.340946 115.95885 82.17862 115.8104 82.230469 115.90039 z M 84.21875 115.74219 C 84.208343 115.73627 84.244093 115.73715 84.21875 115.74219 z M 80.693359 115.7832 C 80.704564 115.80919 80.635272 115.67097 80.693359 115.7832 z M 84.058594 115.75195 C 84.075889 115.81005 83.936591 115.68062 84.058594 115.75195 z M 81.708984 115.80469 C 81.743859 115.75276 81.606178 115.74015 81.708984 115.80469 z M 83.146484 115.83203 C 83.19712 116.03968 83.106845 115.74187 83.184184 115.79929 L 83.147665 115.83101 L 83.146484 115.83203 z M 83.931641 115.78906 C 84.261184 115.64483 83.986514 116.15831 84.005859 115.94922 C 83.999408 116.04196 83.799041 115.86462 83.931641 115.78906 z M 80.634766 115.7793 C 80.613084 115.90074 80.783907 115.79731 80.634766 115.77148 L 80.634766 115.7793 z M 84.439453 115.82031 C 84.404061 115.9746 84.471725 115.72144 84.439453 115.82031 z M 83.109375 115.8418 C 83.126943 115.79726 83.195416 115.76588 83.109375 115.8418 z M 82.029297 115.82422 C 82.152975 115.99499 82.03152 115.71837 82.029297 115.82422 z M 80.796875 115.83203 C 81.187173 116.06183 80.632698 115.64544 80.796875 115.83203 z M 82.232422 115.85742 C 82.281857 115.963 82.267366 115.73132 82.232422 115.85742 z M 84.298828 115.83203 C 84.392446 115.88351 84.134519 115.89561 84.298828 115.83203 z M 82.113281 115.83008 C 82.12087 115.82693 82.105692 115.82693 82.113281 115.83008 z M 82.119141 115.83203 C 82.188616 115.88371 82.123459 115.80343 82.119141 115.83203 z M 82.457031 115.90625 C 82.36348 116.18878 82.296736 115.64502 82.457031 115.90625 z M 82.134766 115.87305 C 82.179519 115.88533 82.119211 115.82679 82.134766 115.87305 z M 82.173828 115.875 C 82.206768 115.88671 82.174479 115.86068 82.173828 115.875 z M 84.445312 115.87695 C 84.467649 115.95405 84.472514 115.84381 84.445312 115.87695 z M 81.117188 115.92773 C 81.03368 115.97457 81.083477 115.82224 81.117188 115.92773 z M 83.392578 115.92578 C 83.419354 115.92957 83.345233 115.90125 83.392578 115.92578 z M 83.53125 115.95312 C 83.559619 115.93236 83.633734 115.94165 83.53125 115.95312 z M 80.644531 115.99805 C 80.710159 115.99799 80.584339 115.90826 80.644531 115.99805 z M 81.136719 115.98438 C 81.206892 115.97029 81.200763 115.97347 81.136719 115.98438 z M 83.990234 116.01953 C 83.964402 116.15345 84.142845 116.17806 84.013672 116.17969 C 83.818334 116.0987 84.189862 116.27952 83.898438 116.19336 C 84.111484 115.99685 83.756515 116.19682 83.990234 116.01953 z M 84.115234 116.04297 C 84.159738 116.13163 84.00098 116.00281 84.115234 116.04297 z M 84.152344 116.04102 C 84.228105 116.11807 84.124422 116.03891 84.152344 116.04102 z M 80.818359 116.05469 C 80.830604 116.06088 80.820946 116.04716 80.818359 116.05469 z M 84.050781 116.125 C 84.048039 116.07534 84.111927 116.05053 84.050781 116.125 z M 80.857422 116.0918 C 80.871908 116.18884 80.886684 116.14975 80.865234 116.08008 L 80.857422 116.0918 z M 80.925781 116.1543 C 80.993257 116.18724 80.959191 115.99784 80.925781 116.1543 z M 79.599609 116.15625 C 79.492636 116.23433 79.854402 116.20131 79.601562 116.11328 L 79.599609 116.15625 z M 80.789062 116.125 C 80.780553 116.12945 80.788142 116.11871 80.789062 116.125 z M 80.125 116.13086 C 80.028845 116.23028 80.194196 116.12299 80.125 116.13086 z M 79.560547 116.16211 C 79.627901 116.14706 79.511471 116.13831 79.560547 116.16211 z M 79.787109 116.21289 C 79.854295 116.20673 79.775884 116.0974 79.787109 116.21289 z M 84.107422 116.19531 C 84.077548 116.27407 84.054684 116.17105 84.107422 116.19531 z M 84.658203 116.19727 C 84.541585 116.30704 84.820176 116.23191 84.654297 116.18945 L 84.658203 116.19727 z M 80.677734 116.20898 C 80.666618 116.25463 80.768768 116.14362 80.677734 116.20898 z M 80.992188 116.24414 C 81.062999 116.26775 81.030687 116.14107 80.992467 116.24274 L 80.992188 116.24414 z M 80.619141 116.25586 C 80.702552 116.25262 80.639599 116.14089 80.619141 116.25586 z M 84.792969 116.24023 C 84.706192 116.4384 84.914814 116.32759 84.792969 116.24023 z M 84.792969 116.24023 C 84.71199 116.2421 84.7538 116.33279 84.792969 116.24023 z M 84.917969 116.25391 C 84.943208 116.27067 84.912242 116.17456 84.917969 116.25391 z M 80.015625 116.25 C 80.035604 116.2544 80.042368 116.19008 80.015625 116.25 z M 84.972656 116.33594 C 85.063673 116.37202 85.168471 116.10401 84.972656 116.33594 z M 80.035156 116.25391 C 80.110589 116.32681 80.071045 116.1812 80.035156 116.25391 z M 80.335938 116.29492 C 80.532868 116.31156 80.156652 116.25235 80.335938 116.29492 z M 84.648438 116.27344 C 84.705271 116.32705 84.657266 116.21214 84.648438 116.27344 z M 84.695312 116.29102 C 84.725121 116.38462 84.78936 116.19054 84.695312 116.29102 z M 85.138672 116.28516 C 85.282681 116.60865 85.314101 116.16168 85.138672 116.28516 z M 84.677734 116.29883 C 84.71017 116.35876 84.696664 116.27635 84.677734 116.29883 z M 84.664062 116.35742 C 84.442569 116.42551 84.491565 116.23252 84.664062 116.35742 z M 80.208984 116.37305 C 80.302727 116.54434 80.116444 116.29086 80.208984 116.37305 z M 84.697266 116.35352 C 84.696795 116.37827 84.724008 116.33526 84.697266 116.35352 z M 80.09375 116.36328 C 80.073164 116.39436 80.071058 116.33882 80.09375 116.36328 z M 80.089844 116.4043 C 80.075761 116.47537 80.060064 116.36453 80.089844 116.4043 z M 80.123047 116.42578 C 80.205537 116.59858 80.04628 116.36816 80.123047 116.42578 z M 84.658203 116.45508 C 84.599 116.51451 84.657937 116.36866 84.658203 116.45508 z M 85.101562 116.48633 C 85.160174 116.47726 85.049811 116.39609 85.101562 116.48633 z M 84.617188 116.47266 C 84.601207 116.48922 84.613482 116.46367 84.617188 116.47266 z M 85.505859 116.55664 C 85.349875 116.46649 85.253143 116.65635 85.416016 116.57227 C 85.32252 116.83195 85.507559 116.546 85.581768 116.5931 C 85.54089 116.54027 85.467283 116.39269 85.505859 116.55664 z M 84.851562 116.50195 C 84.84303 116.5038 84.834215 116.47974 84.851562 116.50195 z M 85.013672 116.49414 C 84.951738 116.52851 84.950784 116.5096 85.013672 116.49414 z M 85.316406 116.51758 C 85.322366 116.58204 85.391871 116.47247 85.316406 116.51758 z M 85.388672 116.50586 C 85.396261 116.50272 85.381083 116.50272 85.388672 116.50586 z M 85.376953 116.51172 C 85.385665 116.50826 85.361499 116.50041 85.376953 116.51172 z M 85.070312 116.5293 C 85.031134 116.54292 85.066477 116.49926 85.070312 116.5293 z M 85.029297 116.5625 C 85.060601 116.57271 84.986467 116.63513 84.96875 116.55664 C 85.014231 116.63053 85.035832 116.51343 85.029297 116.5625 z M 78.84375 116.58008 C 78.665879 116.5787 78.894632 116.76764 78.954189 116.65915 C 78.801614 116.59558 79.013214 116.52238 78.84375 116.58008 z M 84.912109 116.54883 C 84.988067 116.61989 84.874282 116.5609 84.912109 116.54883 z M 84.941406 116.56641 C 84.941287 116.60266 84.922233 116.5461 84.941406 116.56641 z M 85.373047 116.56836 C 85.338774 116.56447 85.431535 116.55727 85.373047 116.56836 z M 84.9375 116.64844 C 84.984502 116.77244 85.149628 116.62343 85.027344 116.74609 C 85.125921 116.84368 85.103329 116.62766 85.066406 116.85938 C 85.086249 116.71526 84.854196 116.79509 84.917938 116.60072 C 84.8893 116.51983 84.932006 116.63536 84.9375 116.64844 z M 84.931641 116.6543 C 84.92408 116.67114 84.964254 116.66878 84.931641 116.6543 z M 84.769531 116.70117 C 84.708973 116.61837 84.92023 116.53061 84.769531 116.70117 z M 85.089844 116.59961 C 85.065548 116.61814 85.078612 116.56961 85.089844 116.59961 z M 79.21875 116.60352 C 79.237717 116.6486 79.241867 116.56685 79.21875 116.60352 z M 84.9375 116.60742 C 84.993139 116.63413 84.98103 116.69442 84.962891 116.65039 C 84.982106 116.6623 84.926997 116.61441 84.9375 116.60742 z M 85.001953 116.61133 C 85.002573 116.62319 84.993999 116.59338 85.001953 116.61133 z M 79.041016 116.63867 C 79.161093 116.61513 79.182036 116.61102 79.041016 116.63867 z M 85.46875 116.6582 C 85.478842 116.66738 85.550454 116.56046 85.46875 116.6582 z M 85.480469 116.65234 C 85.436973 116.72086 85.559929 116.67843 85.480469 116.65234 z M 85.072266 116.62695 C 85.054925 116.63255 85.070055 116.61431 85.072266 116.62695 z M 85.015625 116.66797 C 85.005687 116.66327 85.037491 116.65281 85.015625 116.66797 z M 85.033203 116.66797 C 85.049553 116.69284 85.009314 116.65378 85.033203 116.66797 z M 85.439453 116.6875 C 85.291112 116.78968 85.537595 116.63835 85.439453 116.6875 z M 85.005859 116.67773 C 84.992107 116.69691 84.99382 116.66753 85.005859 116.67773 z M 85.001953 116.76172 C 85.01736 116.72813 84.865812 116.68766 85.001953 116.76172 z M 84.982422 116.73438 C 84.987568 116.69512 84.899252 116.72467 84.982422 116.73438 z M 84.988281 116.72266 C 84.99873 116.72643 84.985815 116.71656 84.988281 116.72266 z M 84.753906 116.73438 C 84.68677 116.73678 84.68333 116.72116 84.753906 116.73438 z M 85.505859 116.74023 C 85.42956 116.87751 85.732735 116.86207 85.505859 116.74023 z M 78.425781 116.75977 C 78.325093 116.96855 78.541893 116.65476 78.425781 116.75977 z M 78.498047 116.78125 C 78.501752 116.92103 78.533489 116.66053 78.498047 116.78125 z M 85.019531 116.75586 C 85.022214 116.75226 85.013054 116.75383 85.019531 116.75586 z M 85.005859 116.76367 C 85.037532 116.81306 85.019617 116.74306 85.005859 116.76367 z M 79.46875 116.80859 C 79.481683 116.9072 79.351146 116.78898 79.46875 116.80859 z M 85.396484 116.86523 C 85.290089 116.83267 85.269983 116.76819 85.396484 116.86523 z M 78.34375 116.83008 C 78.26821 116.869 78.464665 116.7942 78.34375 116.83008 z M 85.5625 116.89258 C 85.507244 116.85459 85.403827 116.82775 85.548769 116.88624 L 85.5625 116.89258 z M 85.626953 117.04492 C 85.357783 117.05764 85.705025 117.04407 85.628329 117.04276 L 85.626953 117.04492 z M 85.677734 117.16797 C 85.67312 117.19518 85.711096 117.14488 85.677734 117.16797 z M 85.414062 117.18164 C 85.464398 117.25366 85.237609 117.1833 85.414062 117.18164 z M 85.619141 117.23242 C 85.611911 117.25317 85.615965 117.21703 85.619141 117.23242 z M 85.400391 117.28906 C 85.327283 117.37641 85.364687 117.28251 85.400391 117.28906 z M 85.767578 117.52344 C 85.858754 117.58895 85.76617 117.41341 85.767578 117.52344 z M 85.929688 117.49023 C 85.921178 117.49468 85.928767 117.48395 85.929688 117.49023 z M 77.480469 117.58594 C 77.412174 117.71789 77.395018 117.58316 77.480469 117.58594 z M 86.322266 117.79688 C 85.998502 117.73134 86.530441 117.93781 86.322266 117.79688 z M 86.171875 117.84375 C 86.305473 117.87069 85.997958 117.91578 86.171875 117.83398 C 86.253187 117.78227 86.20357 117.81636 86.171875 117.84375 z M 86.140625 117.89453 C 86.126381 117.91116 86.134777 117.88503 86.140625 117.89453 z M 86.548828 118.53125 C 86.729456 118.78732 86.3988 118.67976 86.5 118.54492 C 86.553249 118.6421 86.535312 118.56895 86.548828 118.53125 z M 87.550781 119.58789 C 87.69136 119.61515 87.583411 119.52272 87.550781 119.58789 z M 87.501953 119.64648 C 87.497884 119.67205 87.52651 119.60486 87.501953 119.64648 z M 87.650391 119.9707 C 87.714628 119.99248 87.611545 119.91288 87.650391 119.9707 z "
       id="path7018" />
  </g>
</svg>
