<?xml version="1.0" encoding="UTF-8" standalone="no"?>
<!-- Created with Inkscape (http://www.inkscape.org/) -->

<svg
   xmlns:dc="http://purl.org/dc/elements/1.1/"
   xmlns:cc="http://creativecommons.org/ns#"
   xmlns:rdf="http://www.w3.org/1999/02/22-rdf-syntax-ns#"
   xmlns:svg="http://www.w3.org/2000/svg"
   xmlns="http://www.w3.org/2000/svg"
   xmlns:xlink="http://www.w3.org/1999/xlink"
   xmlns:sodipodi="http://sodipodi.sourceforge.net/DTD/sodipodi-0.dtd"
   xmlns:inkscape="http://www.inkscape.org/namespaces/inkscape"
   sodipodi:docname="A Can of Soup.svg"
   inkscape:version="0.92.4 (5da689c313, 2019-01-14)"
   id="svg937"
   version="1.1"
   viewBox="0 0 200 200"
   height="200"
   width="200">
  <title
     id="title1768">A Three-Dimensional Drawing with Gradients</title>
  <defs
     id="defs931">
    <linearGradient
       inkscape:collect="always"
       id="linearGradient1508">
      <stop
         style="stop-color:#333333;stop-opacity:1"
         offset="0"
         id="stop1504" />
      <stop
         id="stop1512"
         offset="0.5"
         style="stop-color:#ffffff;stop-opacity:1" />
      <stop
         style="stop-color:#333333;stop-opacity:1"
         offset="1"
         id="stop1506" />
    </linearGradient>
    <linearGradient
       inkscape:collect="always"
       xlink:href="#linearGradient1508"
       id="linearGradient1510"
       x1="50"
       y1="349.08331"
       x2="200"
       y2="349.08331"
       gradientUnits="userSpaceOnUse" />
    <filter
       inkscape:collect="always"
       style="color-interpolation-filters:sRGB"
       id="filter1764"
       x="-0.026911148"
       width="1.0538223"
       y="-0.054358952"
       height="1.1087179">
      <feGaussianBlur
         inkscape:collect="always"
         stdDeviation="1.6873922"
         id="feGaussianBlur1766" />
    </filter>
  </defs>
  <sodipodi:namedview
     id="base"
     pagecolor="#ffffff"
     bordercolor="#666666"
     borderopacity="1.0"
     inkscape:pageopacity="0.0"
     inkscape:pageshadow="2"
     inkscape:zoom="2.62"
     inkscape:cx="100"
     inkscape:cy="100"
     inkscape:document-units="px"
     inkscape:current-layer="layer1"
     showgrid="true"
     inkscape:window-width="1366"
     inkscape:window-height="705"
     inkscape:window-x="-8"
     inkscape:window-y="-8"
     inkscape:window-maximized="1"
     units="px"
     inkscape:snap-smooth-nodes="true"
     inkscape:object-nodes="false"
     inkscape:snap-text-baseline="true">
    <inkscape:grid
       spacingy="5"
       spacingx="5"
       id="grid1482"
       type="xygrid" />
  </sodipodi:namedview>
  <metadata
     id="metadata934">
    <rdf:RDF>
      <cc:Work
         rdf:about="">
        <dc:format>image/svg+xml</dc:format>
        <dc:type
           rdf:resource="http://purl.org/dc/dcmitype/StillImage" />
        <dc:title>A Three-Dimensional Drawing with Gradients</dc:title>
      </cc:Work>
    </rdf:RDF>
  </metadata>
  <g
     inkscape:label="Layer 1"
     inkscape:groupmode="layer"
     id="layer1"
     transform="translate(0,-244.08332)">
    <path
       id="ellipse1514"
       style="opacity:0.97000002;fill:#b3b3b3;fill-opacity:1;fill-rule:nonzero;stroke:none;stroke-width:0.99999964;stroke-linecap:square;stroke-linejoin:miter;stroke-miterlimit:4;stroke-dasharray:none;stroke-opacity:1;paint-order:stroke markers fill;filter:url(#filter1764)"
       d="m 99.499998,378.58332 c 0,-10.76955 -22.1619,-19.5 -49.499998,-19.5 -27.338095,0 -58.1547774,13.09079 -49.5,19.5 l 50.381679,40.08014 c 8.406834,6.73115 21.780226,14.91985 49.118321,14.91985 27.3381,0 49.5,-8.73045 49.5,-19.5 z"
       inkscape:connector-curvature="0"
       sodipodi:nodetypes="csccscc" />
    <g
       id="g1494"
       style="stroke:none">
      <path
         sodipodi:nodetypes="csccscc"
         inkscape:connector-curvature="0"
         d="m 149.49999,274.08319 c 0,10.76955 -22.1619,19.5 -49.499998,19.5 -27.338095,0 -49.5,-8.73045 -49.5,-19.5 l 8e-6,140.00012 c 0,10.76955 22.161905,19.5 49.5,19.5 27.3381,0 49.5,-8.73045 49.5,-19.5 z"
         style="opacity:0.97000002;fill:url(#linearGradient1510);fill-opacity:1;fill-rule:nonzero;stroke:none;stroke-width:0.99999964;stroke-linecap:square;stroke-linejoin:miter;stroke-miterlimit:4;stroke-dasharray:none;stroke-opacity:1;paint-order:stroke markers fill"
         id="ellipse1488" />
      <path
         id="path1770"
         style="opacity:0.97000002;fill:url(#linearGradient1510);fill-opacity:1;fill-rule:nonzero;stroke:none;stroke-width:0.99999964;stroke-linecap:square;stroke-linejoin:miter;stroke-miterlimit:4;stroke-dasharray:none;stroke-opacity:1;paint-order:stroke markers fill"
         d="m 149.49999,274.08319 c 0,10.76955 -22.1619,19.5 -49.499998,19.5 -27.338095,0 -49.5,-8.73045 -49.5,-19.5 l 8e-6,140.00012 c 0,10.76955 22.161905,19.5 49.5,19.5 27.3381,0 49.5,-8.73045 49.5,-19.5 z"
         inkscape:connector-curvature="0"
         sodipodi:nodetypes="csccscc" />
    </g>
    <g
       style="stroke:none"
       id="g1780">
      <path
         id="path1776"
         style="opacity:0.97000002;fill:url(#linearGradient1510);fill-opacity:1;fill-rule:nonzero;stroke:none;stroke-width:0.99999964;stroke-linecap:square;stroke-linejoin:miter;stroke-miterlimit:4;stroke-dasharray:none;stroke-opacity:1;paint-order:stroke markers fill"
         d="m 149.49999,274.08319 c 0,10.76955 -22.1619,19.5 -49.499998,19.5 -27.338095,0 -49.5,-8.73045 -49.5,-19.5 l 8e-6,140.00012 c 0,10.76955 22.161905,19.5 49.5,19.5 27.3381,0 49.5,-8.73045 49.5,-19.5 z"
         inkscape:connector-curvature="0"
         sodipodi:nodetypes="csccscc" />
      <path
         style="opacity:0.5;fill:#ff0000;fill-opacity:1;fill-rule:nonzero;stroke:none;stroke-width:0.99999964;stroke-linecap:square;stroke-linejoin:miter;stroke-miterlimit:4;stroke-dasharray:none;stroke-opacity:1;paint-order:stroke markers fill"
         d="M 60,66.982422 V 156.98242 C 69.002516,161.84103 83.561279,165 100,165 c 16.43872,0 30.99748,-3.15897 40,-8.01758 V 66.982422 C 130.99748,71.841031 116.43872,75 100,75 83.561279,75 69.002516,71.841031 60,66.982422 Z"
         id="path1778"
         inkscape:connector-curvature="0"
         sodipodi:nodetypes="ccsccsc"
         transform="translate(0,244.08332)" />
    </g>
    <path
       d="M123.82422 384.888C123.82422 384.888 123.82422 389.29425 123.82422 389.29425C123.82422 390.153623333 123.875 390.696593333 123.97656 390.92316C124.08594 391.141906667 124.27344 391.317686667 124.53906 391.4505C124.8125 391.583313333 125.308593333 391.64972 126.02734 391.64972C126.02734 391.64972 126.02734 392.08331 126.02734 392.08331C126.02734 392.08331 124.0087875 392.08331 121.990235 392.08331C119.9716825 392.08331 117.95313 392.08331 117.95313 392.08331C117.95313 392.08331 117.95313 391.64972 117.95313 391.64972C118.687503333 391.64972 119.183596667 391.583313333 119.44141 391.4505C119.70703 391.309873333 119.890623333 391.130186667 119.99219 390.91144C120.101563333 390.692686667 120.15625 390.153623333 120.15625 389.29425C120.15625 389.29425 120.15625 387.750053376 120.15625 385.856753706C120.15625 384.75064557 120.15625 383.525383031 120.15625 382.419272978C120.15625 380.525961134 120.15625 378.98175 120.15625 378.98175C120.15625 378.122376667 120.101563333 377.583313333 119.99219 377.36456C119.890623333 377.138 119.70703 376.958313333 119.44141 376.8255C119.175783333 376.692686667 118.67969 376.62628 117.95313 376.62628C117.95313 376.62628 117.95313 376.19269 117.95313 376.19269C117.95313 376.19269 119.684575 376.19269 121.41602 376.19269C123.147465 376.19269 124.87891 376.19269 124.87891 376.19269C125.850222057 376.19269 126.704687482 376.26633893 127.442306273 376.413636789C128.43707657 376.612286195 129.219327812 376.944887266 129.78906 377.41144C130.781246667 378.22394 131.27734 379.239563333 131.27734 380.45831C131.27734 381.489563333 130.95703 382.372376667 130.31641 383.10675C129.675783333 383.841123333 128.79297 384.341123333 127.66797 384.60675C126.910156667 384.79425 125.628906667 384.888 123.82422 384.888C123.82422 384.888 123.82422 384.888 123.82422 384.888M123.82422 377.10675C123.82422 377.10675 123.82422 378.8235475 123.82422 380.540345C123.82422 382.2571425 123.82422 383.97394 123.82422 383.97394C124.082033333 383.98954 124.277346667 383.99734 124.41016 383.99734C125.36328 383.99734 126.097653333 383.71609 126.61328 383.15359C127.128906667 382.583276667 127.38672 381.70437 127.38672 380.51687C127.38672 379.337183333 127.128906667 378.4739 126.61328 377.92702C126.097653333 377.380146667 125.328123333 377.10671 124.30469 377.10671C124.30469 377.10671 123.82422 377.10675 123.82422 377.10675M100.5625 376.19269C100.5625 376.19269 102.6132825 376.19269 104.664065 376.19269C106.7148475 376.19269 108.76563 376.19269 108.76563 376.19269C108.76563 376.19269 108.76563 376.62628 108.76563 376.62628C108.76563 376.62628 108.35547 376.62628 108.35547 376.62628C107.738283333 376.62628 107.312503333 376.692686667 107.07813 376.8255C106.851563333 376.9505 106.6875 377.12628 106.58594 377.35284C106.492186667 377.579406667 106.44531 378.145813333 106.44531 379.05206C106.44531 379.05206 106.44531 380.9973725 106.44531 382.942685C106.44531 384.8879975 106.44531 386.83331 106.44531 386.83331C106.44531 388.25519 106.55078 389.196596667 106.76172 389.65753C106.980466667 390.11847 107.335936667 390.501283333 107.82813 390.80597C108.320316667 391.110656667 108.94141 391.263 109.69141 391.263C110.550783333 391.263 111.28125 391.071593333 111.88281 390.68878C112.49219 390.298153333 112.945316667 389.762996667 113.24219 389.08331C113.546876667 388.403623333 113.69922 387.22003 113.69922 385.53253C113.69922 385.53253 113.69922 383.9124125 113.69922 382.292295C113.69922 380.6721775 113.69922 379.05206 113.69922 379.05206C113.69922 378.341126667 113.625 377.833316667 113.47656 377.52863C113.328126667 377.223936667 113.140626667 377.012996667 112.91406 376.89581C112.5625 376.716123333 112.066406667 376.62628 111.42578 376.62628C111.42578 376.62628 111.42578 376.19269 111.42578 376.19269C111.42578 376.19269 112.799805 376.19269 114.17383 376.19269C115.547855 376.19269 116.92188 376.19269 116.92188 376.19269C116.92188 376.19269 116.92188 376.62628 116.92188 376.62628C116.92188 376.62628 116.59375 376.62628 116.59375 376.62628C116.148436667 376.62628 115.777343333 376.716123333 115.48047 376.89581C115.183596667 377.075496667 114.968753333 377.34503 114.83594 377.70441C114.734373333 377.95441 114.68359 378.403626667 114.68359 379.05206C114.68359 379.05206 114.68359 380.56085 114.68359 382.06964C114.68359 383.57843 114.68359 385.08722 114.68359 385.08722C114.68359 386.954406667 114.55859 388.302063333 114.30859 389.13019C114.066403333 389.958316667 113.46875 390.720033333 112.51563 391.41534C111.562503333 392.110653333 110.26172 392.45831 108.61328 392.45831C107.23828 392.45831 106.17578 392.274716667 105.42578 391.90753C104.402346667 391.40753 103.67969 390.766906667 103.25781 389.98566C102.835936667 389.204406667 102.625 388.153623333 102.625 386.83331C102.625 386.83331 102.625 384.8879975 102.625 382.942685C102.625 380.9973725 102.625 379.05206 102.625 379.05206C102.625 378.138 102.57422 377.571593333 102.47266 377.35284C102.371093333 377.12628 102.19531 376.946593333 101.94531 376.81378C101.69531 376.680966667 101.234373333 376.618466667 100.5625 376.62628C100.5625 376.62628 100.5625 376.19269 100.5625 376.19269M90.613281 375.97003C91.8325574282 375.924873219 92.9412596101 376.072767974 93.9393875456 376.413714265C95.0133995106 376.780581459 95.9593849954 377.370970037 96.777344 378.18488C97.5827028021 378.982301354 98.1835759708 379.881463273 98.5799635062 380.882365757C98.9641545021 381.852471242 99.15625 382.918152656 99.15625 384.07941C99.15625 385.075901821 99.0120825955 386.013200089 98.7237477865 386.891304804C98.4288631497 387.789356588 97.9831868875 388.625494987 97.386719 389.39972C96.5810549375 390.447081562 95.6040298833 391.224420222 94.4556438374 391.731735979C93.3768569458 392.208305326 92.1468506667 392.44659 90.765625 392.44659C89.3931806872 392.44659 88.1701242548 392.223408164 87.0964557028 391.777044491C85.9332237519 391.293446005 84.9453425176 390.547877842 84.132812 389.54034C83.5044743096 388.760884604 83.0360589927 387.907540896 82.7275660495 386.980308874C82.4300220165 386.085985806 82.28125 385.122926182 82.28125 384.09113C82.28125 382.928144595 82.4758158801 381.861018973 82.8649476403 380.889753135C83.2652580246 379.890585653 83.8714734779 378.992864608 84.683594 378.19659C85.4973183493 377.398668486 86.4049130378 376.814450625 87.4063780655 376.443936417C88.3855990607 376.081651882 89.4545667056 375.923683076 90.613281 375.97003C90.613281 375.97003 90.613281 375.97003 90.613281 375.97003M90.753906 376.72003C89.3007813333 376.72003 88.1953126667 377.462216667 87.4375 378.94659C87.089428042 379.633924033 86.8395062577 380.490224439 86.6877346471 381.515491219C86.5703908824 382.30818666 86.511719 383.201886253 86.511719 384.19659C86.511719 385.370051089 86.6010119742 386.411036099 86.7795979225 387.31954503C87.0135827833 388.509881324 87.4008521424 389.47280298 87.941406 390.20831C88.6054686667 391.114563333 89.5351563333 391.56769 90.730469 391.56769C91.5351563333 391.56769 92.2070313333 391.372376667 92.746094 390.98175C93.433594 390.48175 93.96875 389.684876667 94.351562 388.59113C94.7343746667 387.489563333 94.925781 386.055966667 94.925781 384.29034C94.925781 382.18878 94.7304686667 380.61847 94.339844 379.57941C93.9492186667 378.53253 93.4492186667 377.794246667 92.839844 377.36456C92.2382813333 376.934873333 91.5429686667 376.72003 90.753906 376.72003C90.753906 376.72003 90.753906 376.72003 90.753906 376.72003M79.257812 375.82941C79.257812 375.82941 79.29003875 377.1536275 79.3222655 378.477845C79.35449225 379.8020625 79.386719 381.12628 79.386719 381.12628C79.386719 381.12628 78.90625 381.12628 78.90625 381.12628C78.6796873333 379.798153333 78.1210936667 378.731746667 77.230469 377.92706C76.3476563333 377.11456 75.390625 376.70831 74.359375 376.70831C73.5624996667 376.70831 72.929687 376.923153333 72.460937 377.35284C71.9999996667 377.77472 71.769531 378.263003333 71.769531 378.81769C71.769531 379.16925 71.8515623333 379.48175 72.015625 379.75519C72.2421876667 380.122376667 72.605469 380.485656667 73.105469 380.84503C73.4726563333 381.102843333 74.3203123333 381.559876667 75.648437 382.21613C77.5078123333 383.13019 78.7617186667 383.99347 79.410156 384.80597C80.0507813333 385.61847 80.371094 386.548156667 80.371094 387.59503C80.371094 388.923156667 79.8515626667 390.06769 78.8125 391.02863C77.78125 391.98175 76.46875 392.45831 74.875 392.45831C74.375 392.45831 73.9023436667 392.40753 73.457031 392.30597C73.0117183333 392.20441 72.4531246667 392.013003333 71.78125 391.73175C71.40625 391.575503333 71.0976563333 391.49738 70.855469 391.49738C70.6523436667 391.49738 70.4374996667 391.575503333 70.210937 391.73175C69.984375 391.888003333 69.8007813333 392.126283333 69.660156 392.44659C69.660156 392.44659 69.226562 392.44659 69.226562 392.44659C69.226562 392.44659 69.226562 390.94659 69.226562 389.44659C69.226562 387.94659 69.226562 386.44659 69.226562 386.44659C69.226562 386.44659 69.660156 386.44659 69.660156 386.44659C70.003906 388.13409 70.6640623333 389.423153333 71.640625 390.31378C72.6249996667 391.196593333 73.6835933333 391.638 74.816406 391.638C75.691406 391.638 76.3867186667 391.39972 76.902344 390.92316C77.4257813333 390.446593333 77.6875 389.891903333 77.6875 389.25909C77.6875 388.88409 77.5859373333 388.52081 77.382812 388.16925C77.1875 387.81769 76.886719 387.48566 76.480469 387.17316C76.074219 386.852846667 75.355469 386.438783333 74.324219 385.93097C72.8789063333 385.22003 71.8398436667 384.61456 71.207031 384.11456C70.5742183333 383.61456 70.085937 383.055966667 69.742187 382.43878C69.4062496667 381.821593333 69.238281 381.141906667 69.238281 380.39972C69.238281 379.134093333 69.7031246667 378.055966667 70.632812 377.16534C71.5625 376.27472 72.734375 375.82941 74.148437 375.82941C74.6640623333 375.82941 75.1640623333 375.89191 75.648437 376.01691C76.015625 376.110656667 76.4609376667 376.286436667 76.984375 376.54425C77.515625 376.79425 77.8867186667 376.91925 78.097656 376.91925C78.3007813333 376.91925 78.4609376667 376.85675 78.578125 376.73175C78.6953123333 376.60675 78.8046873333 376.30597 78.90625 375.82941C78.90625 375.82941 79.257812 375.82941 79.257812 375.82941M116.66406 363.55988C116.66406 363.55988 115.26074 363.55988 113.85742 363.55988C112.4541 363.55988 111.05078 363.55988 111.05078 363.55988C111.05078 363.55988 110.38281 365.10675 110.38281 365.10675C110.164063333 365.622376667 110.05469 366.048156667 110.05469 366.38409C110.05469 366.829403333 110.234376667 367.15753 110.59375 367.36847C110.80469 367.49347 111.32422 367.58722 112.15234 367.64972C112.15234 367.64972 112.15234 368.08331 112.15234 368.08331C112.15234 368.08331 110.8310525 368.08331 109.509765 368.08331C108.1884775 368.08331 106.86719 368.08331 106.86719 368.08331C106.86719 368.08331 106.86719 367.64972 106.86719 367.64972C107.437503333 367.56378 107.906253333 367.329403333 108.27344 366.94659C108.640626667 366.55597 109.09375 365.75519 109.63281 364.54425C109.63281 364.54425 110.483873848 362.645589685 111.527341291 360.317691223C112.136958377 358.957680724 112.81224586 357.451164442 113.421864003 356.091151586C114.465338155 353.763238154 115.31641 351.86456 115.31641 351.86456C115.31641 351.86456 115.53906 351.86456 115.53906 351.86456C115.53906 351.86456 116.397142175 353.815863007 117.449214607 356.208305317C118.063858922 357.60602378 118.744715186 359.154310079 119.359360565 360.552030964C120.411439762 362.944488659 121.26953 364.89581 121.26953 364.89581C121.816403333 366.13019 122.265623333 366.907533333 122.61719 367.22784C122.882816667 367.470033333 123.257816667 367.61066 123.74219 367.64972C123.74219 367.64972 123.74219 368.08331 123.74219 368.08331C123.74219 368.08331 121.820315 368.08331 119.89844 368.08331C117.976565 368.08331 116.05469 368.08331 116.05469 368.08331C116.05469 368.08331 116.05469 367.64972 116.05469 367.64972C116.05469 367.64972 116.37109 367.64972 116.37109 367.64972C116.988283333 367.64972 117.42188 367.563783333 117.67188 367.39191C117.843753333 367.26691 117.92969 367.08722 117.92969 366.85284C117.92969 366.71222 117.906256667 366.56769 117.85939 366.41925C117.84379 366.348936667 117.7266 366.055966667 117.50782 365.54034C117.50782 365.54034 116.66406 363.55988 116.66406 363.55988M116.26563 362.69269C116.26563 362.69269 115.6738325 361.324525 115.082035 359.95636C114.4902375 358.588195 113.89844 357.22003 113.89844 357.22003C113.89844 357.22003 113.289065 358.588195 112.67969 359.95636C112.070315 361.324525 111.46094 362.69269 111.46094 362.69269C111.46094 362.69269 116.26563 362.69269 116.26563 362.69269M97.1875 353.10675C97.1875 353.10675 97.1875 354.7239375 97.1875 356.341125C97.1875 357.9583125 97.1875 359.5755 97.1875 359.5755C97.1875 359.5755 97.503906 359.5755 97.503906 359.5755C98.5117186667 359.5755 99.2421873333 359.259093333 99.695312 358.62628C100.148437333 357.993466667 100.4375 357.059873333 100.5625 355.8255C100.5625 355.8255 101.00781 355.8255 101.00781 355.8255C101.00781 355.8255 101.00781 357.9055775 101.00781 359.985655C101.00781 362.0657325 101.00781 364.14581 101.00781 364.14581C101.00781 364.14581 100.5625 364.14581 100.5625 364.14581C100.468753333 363.239563333 100.269534667 362.497376667 99.964844 361.91925C99.6679686667 361.341123333 99.3203123333 360.954403333 98.921875 360.75909C98.5234376667 360.55597 97.9453126667 360.45441 97.1875 360.45441C97.1875 360.45441 97.1875 364.93097 97.1875 364.93097C97.1875 365.80597 97.2226563333 366.341126667 97.292969 366.53644C97.3710936667 366.731753333 97.5117186667 366.89191 97.714844 367.01691C97.9179686667 367.14191 98.2460936667 367.20441 98.699219 367.20441C98.699219 367.20441 99.648437 367.20441 99.648437 367.20441C101.132812333 367.20441 102.320313333 366.86066 103.21094 366.17316C104.109373333 365.48566 104.753903333 364.438783333 105.14453 363.03253C105.14453 363.03253 105.57813 363.03253 105.57813 363.03253C105.57813 363.03253 105.3994175 364.295225 105.220705 365.55792C105.0419925 366.820615 104.86328 368.08331 104.86328 368.08331C104.86328 368.08331 102.806691009 368.08331 100.285160269 368.08331C98.8120254492 368.08331 97.1801986413 368.08331 95.7070612693 368.08331C93.1855143145 368.08331 91.128906 368.08331 91.128906 368.08331C91.128906 368.08331 91.128906 367.64972 91.128906 367.64972C91.128906 367.64972 91.65625 367.64972 91.65625 367.64972C92.1171873333 367.64972 92.488281 367.56769 92.769531 367.40363C92.9726563333 367.29425 93.1289063333 367.10675 93.238281 366.84113C93.3242183333 366.65363 93.367187 366.16144 93.367187 365.36456C93.367187 365.36456 93.367187 363.799306898 93.367187 361.880190423C93.367187 360.75899953 93.367187 359.51702946 93.367187 358.395836625C93.367187 356.476707809 93.367187 354.91144 93.367187 354.91144C93.367187 354.192686667 93.347657 353.75128 93.308597 353.58722C93.2304716667 353.31378 93.0859403333 353.102843333 92.875003 352.95441C92.5781276667 352.735656667 92.1718776667 352.62628 91.656253 352.62628C91.656253 352.62628 91.128909 352.62628 91.128909 352.62628C91.128909 352.62628 91.128909 352.19269 91.128909 352.19269C91.128909 352.19269 93.1205716541 352.19269 95.5624978868 352.19269C96.9891259677 352.19269 98.5694361443 352.19269 99.9960666968 352.19269C102.438008632 352.19269 104.42969 352.19269 104.42969 352.19269C104.42969 352.19269 104.42969 356.89191 104.42969 356.89191C104.42969 356.89191 103.98438 356.89191 103.98438 356.89191C103.757813333 355.74347 103.4375 354.91925 103.02344 354.41925C102.617186667 353.91925 102.03906 353.552063333 101.28906 353.31769C100.85156 353.177063333 100.031249333 353.10675 98.828128 353.10675C98.828128 353.10675 97.1875 353.10675 97.1875 353.10675M82.457031 360.888C82.457031 360.888 82.457031 365.29425 82.457031 365.29425C82.457031 366.153623333 82.5078123333 366.696593333 82.609375 366.92316C82.7187496667 367.141906667 82.9062496667 367.317686667 83.171875 367.4505C83.4453123333 367.583313333 83.941406 367.64972 84.660156 367.64972C84.660156 367.64972 84.660156 368.08331 84.660156 368.08331C84.660156 368.08331 82.64160125 368.08331 80.6230465 368.08331C78.60449175 368.08331 76.585937 368.08331 76.585937 368.08331C76.585937 368.08331 76.585937 367.64972 76.585937 367.64972C77.3203123333 367.64972 77.8164063333 367.583313333 78.074219 367.4505C78.3398436667 367.309873333 78.5234373333 367.130186667 78.625 366.91144C78.7343746667 366.692686667 78.789062 366.153623333 78.789062 365.29425C78.789062 365.29425 78.789062 363.750053376 78.789062 361.856753706C78.789062 360.75064557 78.789062 359.525383031 78.789062 358.419272978C78.789062 356.525961134 78.789062 354.98175 78.789062 354.98175C78.789062 354.122376667 78.7343746667 353.583313333 78.625 353.36456C78.5234373333 353.138 78.3398436667 352.958313333 78.074219 352.8255C77.8085936667 352.692686667 77.3124996667 352.62628 76.585937 352.62628C76.585937 352.62628 76.585937 352.19269 76.585937 352.19269C76.585937 352.19269 78.3173825 352.19269 80.048828 352.19269C81.7802735 352.19269 83.511719 352.19269 83.511719 352.19269C84.4830324766 352.19269 85.3374990786 352.26633893 86.075118806 352.413636789C87.069890365 352.612286195 87.8521424297 352.944887266 88.421875 353.41144C89.4140623333 354.22394 89.910156 355.239563333 89.910156 356.45831C89.910156 357.489563333 89.5898436667 358.372376667 88.949219 359.10675C88.3085936667 359.841123333 87.425781 360.341123333 86.300781 360.60675C85.5429683333 360.79425 84.2617183333 360.888 82.457031 360.888C82.457031 360.888 82.457031 360.888 82.457031 360.888M82.457031 353.10675C82.457031 353.10675 82.457031 354.8235475 82.457031 356.540345C82.457031 358.2571425 82.457031 359.97394 82.457031 359.97394C82.7148436667 359.98954 82.9101563333 359.99734 83.042969 359.99734C83.9960936667 359.99734 84.7304686667 359.71609 85.246094 359.15359C85.7617186667 358.583276667 86.019531 357.70437 86.019531 356.51687C86.019531 355.337183333 85.7617186667 354.4739 85.246094 353.92702C84.7304686667 353.380146667 83.9609373333 353.10671 82.9375 353.10671C82.9375 353.10671 82.457031 353.10675 82.457031 353.10675M133.82031 328.19269C133.82031 328.19269 133.82031 332.49347 133.82031 332.49347C133.82031 332.49347 133.39844 332.49347 133.39844 332.49347C133.14844 331.501283333 132.871096667 330.790346667 132.56641 330.36066C132.261716667 329.92316 131.843746667 329.575503333 131.3125 329.31769C131.015626667 329.177063333 130.496096667 329.10675 129.75391 329.10675C129.75391 329.10675 128.57031 329.10675 128.57031 329.10675C128.57031 329.10675 128.57031 330.942237886 128.57031 333.192682262C128.57031 334.507442346 128.57031 335.963833658 128.57031 337.278596021C128.57031 339.529054868 128.57031 341.36456 128.57031 341.36456C128.57031 342.17706 128.61328 342.684873333 128.69922 342.888C128.792966667 343.091126667 128.968746667 343.270813333 129.22656 343.42706C129.492186667 343.5755 129.851563333 343.64972 130.30469 343.64972C130.30469 343.64972 130.83203 343.64972 130.83203 343.64972C130.83203 343.64972 130.83203 344.08331 130.83203 344.08331C130.83203 344.08331 128.7519525 344.08331 126.671875 344.08331C124.5917975 344.08331 122.51172 344.08331 122.51172 344.08331C122.51172 344.08331 122.51172 343.64972 122.51172 343.64972C122.51172 343.64972 123.03906 343.64972 123.03906 343.64972C123.5 343.64972 123.871093333 343.56769 124.15234 343.40363C124.355466667 343.29425 124.515623333 343.10675 124.63281 342.84113C124.71875 342.65363 124.76172 342.16144 124.76172 341.36456C124.76172 341.36456 124.76172 339.529072114 124.76172 337.278627738C124.76172 335.963867654 124.76172 334.507476342 124.76172 333.192713979C124.76172 330.942255132 124.76172 329.10675 124.76172 329.10675C124.76172 329.10675 123.61328 329.10675 123.61328 329.10675C122.542966667 329.10675 121.765623333 329.333313333 121.28125 329.78644C120.601563333 330.419253333 120.171876667 331.321596667 119.99219 332.49347C119.99219 332.49347 119.54688 332.49347 119.54688 332.49347C119.54688 332.49347 119.54688 328.19269 119.54688 328.19269C119.54688 328.19269 121.684187387 328.19269 124.304684871 328.19269C125.835638282 328.19269 127.531512132 328.19269 129.062468196 328.19269C131.682982531 328.19269 133.82031 328.19269 133.82031 328.19269M118.14063 343.64972C118.14063 343.64972 118.14063 344.08331 118.14063 344.08331C118.14063 344.08331 116.06348 344.08331 113.98633 344.08331C111.90918 344.08331 109.83203 344.08331 109.83203 344.08331C109.83203 344.08331 109.83203 343.64972 109.83203 343.64972C109.83203 343.64972 110.35938 343.64972 110.35938 343.64972C110.820313333 343.64972 111.191406667 343.56769 111.47266 343.40363C111.67578 343.29425 111.83203 343.10675 111.94141 342.84113C112.027343333 342.65363 112.07031 342.16144 112.07031 341.36456C112.07031 341.36456 112.07031 339.799306898 112.07031 337.880190423C112.07031 336.75899953 112.07031 335.51702946 112.07031 334.395836625C112.07031 332.476707809 112.07031 330.91144 112.07031 330.91144C112.07031 330.09894 112.027343333 329.591126667 111.94141 329.388C111.85547 329.184873333 111.679686667 329.009093333 111.41406 328.86066C111.156246667 328.704406667 110.804686667 328.62628 110.35938 328.62628C110.35938 328.62628 109.83203 328.62628 109.83203 328.62628C109.83203 328.62628 109.83203 328.19269 109.83203 328.19269C109.83203 328.19269 111.90918 328.19269 113.98633 328.19269C116.06348 328.19269 118.14063 328.19269 118.14063 328.19269C118.14063 328.19269 118.14063 328.62628 118.14063 328.62628C118.14063 328.62628 117.61328 328.62628 117.61328 328.62628C117.152346667 328.62628 116.781253333 328.708313333 116.5 328.87238C116.296873333 328.981753333 116.136716667 329.169253333 116.01953 329.43488C115.933596667 329.62238 115.89063 330.114566667 115.89063 330.91144C115.89063 330.91144 115.89063 332.476693102 115.89063 334.395809577C115.89063 335.51700047 115.89063 336.75897054 115.89063 337.880163375C115.89063 339.799292191 115.89063 341.36456 115.89063 341.36456C115.89063 342.17706 115.933596667 342.684873333 116.01953 342.888C116.113283333 343.091126667 116.289066667 343.270813333 116.54688 343.42706C116.8125 343.5755 117.167966667 343.64972 117.61328 343.64972C117.61328 343.64972 118.14063 343.64972 118.14063 343.64972M108.47266 338.50519C108.47266 338.50519 108.323245 339.89972 108.17383 341.29425C108.024415 342.68878 107.875 344.08331 107.875 344.08331C107.875 344.08331 105.762258255 344.08331 103.17188007 344.08331C101.658523029 344.08331 99.9821411012 344.08331 98.4687814382 344.08331C95.8783865963 344.08331 93.765625 344.08331 93.765625 344.08331C93.765625 344.08331 93.765625 343.64972 93.765625 343.64972C93.765625 343.64972 94.292969 343.64972 94.292969 343.64972C94.7539063333 343.64972 95.125 343.56769 95.40625 343.40363C95.6093746667 343.29425 95.7656246667 343.10675 95.875 342.84113C95.9609373333 342.65363 96.003906 342.16144 96.003906 341.36456C96.003906 341.36456 96.003906 339.799306898 96.003906 337.880190423C96.003906 336.75899953 96.003906 335.51702946 96.003906 334.395836625C96.003906 332.476707809 96.003906 330.91144 96.003906 330.91144C96.003906 330.09894 95.9609373333 329.591126667 95.875 329.388C95.7890626667 329.184873333 95.6132813333 329.009093333 95.347656 328.86066C95.0898433333 328.704406667 94.738281 328.62628 94.292969 328.62628C94.292969 328.62628 93.765625 328.62628 93.765625 328.62628C93.765625 328.62628 93.765625 328.19269 93.765625 328.19269C93.765625 328.19269 95.88378875 328.19269 98.0019525 328.19269C100.12011625 328.19269 102.23828 328.19269 102.23828 328.19269C102.23828 328.19269 102.23828 328.62628 102.23828 328.62628C102.23828 328.62628 101.54688 328.62628 101.54688 328.62628C101.08594 328.62628 100.714843333 328.708313333 100.43359 328.87238C100.23047 328.981753333 100.070315 329.169253333 99.953125 329.43488C99.8671876667 329.62238 99.824219 330.114566667 99.824219 330.91144C99.824219 330.91144 99.824219 332.427560322 99.824219 334.286436361C99.824219 335.372433441 99.824219 336.575418479 99.824219 337.66141744C99.824219 339.520305433 99.824219 341.03644 99.824219 341.03644C99.824219 341.84894 99.871094 342.36847 99.964844 342.59503C100.058594667 342.813783333 100.24219 342.977846667 100.51563 343.08722C100.710936667 343.157533333 101.18359 343.19269 101.93359 343.19269C101.93359 343.19269 103.25781 343.19269 103.25781 343.19269C104.101563333 343.19269 104.80469 343.044253333 105.36719 342.74738C105.92969 342.4505 106.414063333 341.98175 106.82031 341.34113C107.234376667 340.700503333 107.625003333 339.75519 107.99219 338.50519C107.99219 338.50519 108.47266 338.50519 108.47266 338.50519M85.128906 336.888C85.128906 336.888 85.128906 341.29425 85.128906 341.29425C85.128906 342.153623333 85.1796873333 342.696593333 85.28125 342.92316C85.3906246667 343.141906667 85.5781246667 343.317686667 85.84375 343.4505C86.1171873333 343.583313333 86.613281 343.64972 87.332031 343.64972C87.332031 343.64972 87.332031 344.08331 87.332031 344.08331C87.332031 344.08331 85.31347625 344.08331 83.2949215 344.08331C81.27636675 344.08331 79.257812 344.08331 79.257812 344.08331C79.257812 344.08331 79.257812 343.64972 79.257812 343.64972C79.9921873333 343.64972 80.4882813333 343.583313333 80.746094 343.4505C81.0117186667 343.309873333 81.1953123333 343.130186667 81.296875 342.91144C81.4062496667 342.692686667 81.460937 342.153623333 81.460937 341.29425C81.460937 341.29425 81.460937 339.750053376 81.460937 337.856753706C81.460937 336.75064557 81.460937 335.525383031 81.460937 334.419272978C81.460937 332.525961134 81.460937 330.98175 81.460937 330.98175C81.460937 330.122376667 81.4062496667 329.583313333 81.296875 329.36456C81.1953123333 329.138 81.0117186667 328.958313333 80.746094 328.8255C80.4804686667 328.692686667 79.9843746667 328.62628 79.257812 328.62628C79.257812 328.62628 79.257812 328.19269 79.257812 328.19269C79.257812 328.19269 80.9892575 328.19269 82.720703 328.19269C84.4521485 328.19269 86.183594 328.19269 86.183594 328.19269C87.1549074766 328.19269 88.0093740786 328.26633893 88.746993806 328.413636789C89.741765365 328.612286195 90.5240174297 328.944887266 91.09375 329.41144C92.0859373333 330.22394 92.582031 331.239563333 92.582031 332.45831C92.582031 333.489563333 92.2617186667 334.372376667 91.621094 335.10675C90.9804686667 335.841123333 90.097656 336.341123333 88.972656 336.60675C88.2148433333 336.79425 86.9335933333 336.888 85.128906 336.888C85.128906 336.888 85.128906 336.888 85.128906 336.888M85.128906 329.10675C85.128906 329.10675 85.128906 330.8235475 85.128906 332.540345C85.128906 334.2571425 85.128906 335.97394 85.128906 335.97394C85.3867186667 335.98954 85.5820313333 335.99734 85.714844 335.99734C86.6679686667 335.99734 87.4023436667 335.71609 87.917969 335.15359C88.4335936667 334.583276667 88.691406 333.70437 88.691406 332.51687C88.691406 331.337183333 88.4335936667 330.4739 87.917969 329.92702C87.4023436667 329.380146667 86.6328123333 329.10671 85.609375 329.10671C85.609375 329.10671 85.128906 329.10675 85.128906 329.10675M76.5625 327.82941C76.5625 327.82941 76.5947265 329.1536275 76.626953 330.477845C76.6591795 331.8020625 76.691406 333.12628 76.691406 333.12628C76.691406 333.12628 76.210937 333.12628 76.210937 333.12628C75.984375 331.798153333 75.4257813333 330.731746667 74.535156 329.92706C73.6523433333 329.11456 72.695312 328.70831 71.664062 328.70831C70.8671873333 328.70831 70.234375 328.923153333 69.765625 329.35284C69.3046876667 329.77472 69.074219 330.263003333 69.074219 330.81769C69.074219 331.16925 69.15625 331.48175 69.320312 331.75519C69.5468746667 332.122376667 69.910156 332.485656667 70.410156 332.84503C70.7773433333 333.102843333 71.6249996667 333.559876667 72.953125 334.21613C74.8124996667 335.13019 76.066406 335.99347 76.714844 336.80597C77.3554686667 337.61847 77.675781 338.548156667 77.675781 339.59503C77.675781 340.923156667 77.1562496667 342.06769 76.117187 343.02863C75.085937 343.98175 73.773437 344.45831 72.179687 344.45831C71.679687 344.45831 71.207031 344.40753 70.761719 344.30597C70.3164063333 344.20441 69.7578123333 344.013003333 69.085937 343.73175C68.710937 343.575503333 68.4023433333 343.49738 68.160156 343.49738C67.9570313333 343.49738 67.7421876667 343.575503333 67.515625 343.73175C67.2890623333 343.888003333 67.1054686667 344.126283333 66.964844 344.44659C66.964844 344.44659 66.53125 344.44659 66.53125 344.44659C66.53125 344.44659 66.53125 342.94659 66.53125 341.44659C66.53125 339.94659 66.53125 338.44659 66.53125 338.44659C66.53125 338.44659 66.964844 338.44659 66.964844 338.44659C67.308594 340.13409 67.96875 341.423153333 68.945312 342.31378C69.9296873333 343.196593333 70.9882813333 343.638 72.121094 343.638C72.996094 343.638 73.6914063333 343.39972 74.207031 342.92316C74.7304683333 342.446593333 74.992187 341.891903333 74.992187 341.25909C74.992187 340.88409 74.8906246667 340.52081 74.6875 340.16925C74.4921873333 339.81769 74.191406 339.48566 73.785156 339.17316C73.378906 338.852846667 72.660156 338.438783333 71.628906 337.93097C70.1835933333 337.22003 69.144531 336.61456 68.511719 336.11456C67.8789063333 335.61456 67.390625 335.055966667 67.046875 334.43878C66.7109376667 333.821593333 66.542969 333.141906667 66.542969 332.39972C66.542969 331.134093333 67.0078126667 330.055966667 67.9375 329.16534C68.8671873333 328.27472 70.0390623333 327.82941 71.453125 327.82941C71.9687496667 327.82941 72.4687496667 327.89191 72.953125 328.01691C73.3203123333 328.110656667 73.7656246667 328.286436667 74.289062 328.54425C74.820312 328.79425 75.191406 328.91925 75.402344 328.91925C75.6054686667 328.91925 75.7656246667 328.85675 75.882812 328.73175C76.0 328.60675 76.109375 328.30597 76.210937 327.82941C76.210937 327.82941 76.5625 327.82941 76.5625 327.82941"
       style="font-style:normal;font-variant:normal;font-weight:bold;font-stretch:normal;font-size:24px;line-height:1;font-family:'Nimbus Roman No9 L';-inkscape-font-specification:'Nimbus Roman No9 L Bold';text-align:center;letter-spacing:0px;word-spacing:0px;text-anchor:middle;fill:#3f7f00;fill-opacity:1;stroke:none"
       id="path1826" />
    <ellipse
       ry="19.5"
       rx="49.5"
       cy="274.08319"
       cx="99.999992"
       id="ellipse1867"
       style="opacity:0.97000002;fill:none;fill-opacity:1;fill-rule:nonzero;stroke:none;stroke-width:1;stroke-linecap:square;stroke-linejoin:miter;stroke-miterlimit:4;stroke-dasharray:none;stroke-opacity:1;paint-order:stroke markers fill" />
    <ellipse
       style="opacity:0.97000002;fill:none;fill-opacity:1;fill-rule:nonzero;stroke:#000000;stroke-width:0.99999964;stroke-linecap:square;stroke-linejoin:miter;stroke-miterlimit:4;stroke-dasharray:none;stroke-opacity:1;paint-order:stroke markers fill"
       id="path1484"
       cx="99.5"
       cy="359.58331"
       rx="49.5"
       ry="19.5" />
  </g>
</svg>
