<?xml version="1.0" encoding="UTF-8" standalone="no"?>
<!-- Created with Inkscape (http://www.inkscape.org/) -->

<svg
   xmlns:dc="http://purl.org/dc/elements/1.1/"
   xmlns:cc="http://creativecommons.org/ns#"
   xmlns:rdf="http://www.w3.org/1999/02/22-rdf-syntax-ns#"
   xmlns:svg="http://www.w3.org/2000/svg"
   xmlns="http://www.w3.org/2000/svg"
   xmlns:xlink="http://www.w3.org/1999/xlink"
   xmlns:sodipodi="http://sodipodi.sourceforge.net/DTD/sodipodi-0.dtd"
   xmlns:inkscape="http://www.inkscape.org/namespaces/inkscape"
   width="200"
   height="200"
   viewBox="0 0 200 200"
   version="1.1"
   id="svg937"
   inkscape:version="0.92.4 (5da689c313, 2019-01-14)"
   sodipodi:docname="A Can of Soup.svg"
   inkscape:export-filename="X:\inkscape_ws\Inkscape\Inkscape Guide\Chapter 1. Quick Start\A Can of Soup.png"
   inkscape:export-xdpi="96"
   inkscape:export-ydpi="96">
  <title
     id="title1768">A Three-Dimensional Drawing with Gradients</title>
  <defs
     id="defs931">
    <linearGradient
       inkscape:collect="always"
       id="linearGradient5787">
      <stop
         style="stop-color:#333333;stop-opacity:1"
         offset="0"
         id="stop5783" />
      <stop
         id="stop5791"
         offset="0.48838004"
         style="stop-color:#b3b3b3;stop-opacity:1" />
      <stop
         style="stop-color:#ffffff;stop-opacity:1"
         offset="0.78229666"
         id="stop5793" />
      <stop
         style="stop-color:#999999;stop-opacity:1"
         offset="1"
         id="stop5785" />
    </linearGradient>
    <linearGradient
       inkscape:collect="always"
       id="linearGradient5773">
      <stop
         style="stop-color:#999999;stop-opacity:1;"
         offset="0"
         id="stop5769" />
      <stop
         id="stop5779"
         offset="0.19736843"
         style="stop-color:#ffffff;stop-opacity:1" />
      <stop
         id="stop5777"
         offset="0.5"
         style="stop-color:#999999;stop-opacity:0.55686275;" />
      <stop
         style="stop-color:#333333;stop-opacity:1"
         offset="1"
         id="stop5771" />
    </linearGradient>
    <linearGradient
       inkscape:collect="always"
       id="linearGradient5751">
      <stop
         style="stop-color:#333333;stop-opacity:1"
         offset="0"
         id="stop5747" />
      <stop
         id="stop5759"
         offset="0.5"
         style="stop-color:#c6c6c6;stop-opacity:1;" />
      <stop
         id="stop5755"
         offset="0.75"
         style="stop-color:#ffffff;stop-opacity:1" />
      <stop
         style="stop-color:#999999;stop-opacity:1"
         offset="1"
         id="stop5749" />
    </linearGradient>
    <linearGradient
       inkscape:collect="always"
       id="linearGradient1508">
      <stop
         style="stop-color:#333333;stop-opacity:1"
         offset="0"
         id="stop1504" />
      <stop
         id="stop1512"
         offset="0.5"
         style="stop-color:#ffffff;stop-opacity:1" />
      <stop
         style="stop-color:#333333;stop-opacity:1"
         offset="1"
         id="stop1506" />
    </linearGradient>
    <linearGradient
       inkscape:collect="always"
       xlink:href="#linearGradient1508"
       id="linearGradient1510"
       x1="50"
       y1="349.08331"
       x2="200"
       y2="349.08331"
       gradientUnits="userSpaceOnUse" />
    <filter
       inkscape:collect="always"
       style="color-interpolation-filters:sRGB"
       id="filter1764"
       x="-0.026911148"
       width="1.0538223"
       y="-0.054358952"
       height="1.1087179">
      <feGaussianBlur
         inkscape:collect="always"
         stdDeviation="1.6873922"
         id="feGaussianBlur1766" />
    </filter>
    <linearGradient
       inkscape:collect="always"
       xlink:href="#linearGradient5751"
       id="linearGradient5753"
       x1="150"
       y1="274.08331"
       x2="50"
       y2="274.08331"
       gradientUnits="userSpaceOnUse" />
    <linearGradient
       inkscape:collect="always"
       xlink:href="#linearGradient5773"
       id="linearGradient5775"
       x1="275"
       y1="259.08331"
       x2="175"
       y2="259.08331"
       gradientUnits="userSpaceOnUse"
       gradientTransform="matrix(0.8,0,0,0.8,-80,69.66357)" />
    <linearGradient
       inkscape:collect="always"
       xlink:href="#linearGradient5787"
       id="linearGradient5789"
       x1="255"
       y1="269.08331"
       x2="185"
       y2="269.08331"
       gradientUnits="userSpaceOnUse"
       gradientTransform="translate(-120,7.607663)" />
  </defs>
  <sodipodi:namedview
     id="base"
     pagecolor="#ffffff"
     bordercolor="#666666"
     borderopacity="1.0"
     inkscape:pageopacity="0.0"
     inkscape:pageshadow="2"
     inkscape:zoom="4.18"
     inkscape:cx="97.84689"
     inkscape:cy="105.98086"
     inkscape:document-units="px"
     inkscape:current-layer="layer1"
     showgrid="true"
     inkscape:window-width="1920"
     inkscape:window-height="1017"
     inkscape:window-x="-8"
     inkscape:window-y="-8"
     inkscape:window-maximized="1"
     units="px"
     inkscape:snap-smooth-nodes="true"
     inkscape:object-nodes="false"
     inkscape:snap-text-baseline="false"
     inkscape:snap-center="true">
    <inkscape:grid
       spacingy="5"
       spacingx="5"
       id="grid1482"
       type="xygrid" />
  </sodipodi:namedview>
  <metadata
     id="metadata934">
    <rdf:RDF>
      <cc:Work
         rdf:about="">
        <dc:format>image/svg+xml</dc:format>
        <dc:type
           rdf:resource="http://purl.org/dc/dcmitype/StillImage" />
        <dc:title>A Three-Dimensional Drawing with Gradients</dc:title>
      </cc:Work>
    </rdf:RDF>
  </metadata>
  <g
     inkscape:label="Layer 1"
     inkscape:groupmode="layer"
     id="layer1"
     transform="translate(0,-244.08332)">
    <path
       id="ellipse1514"
       style="opacity:0.97000002;fill:#b3b3b3;fill-opacity:1;fill-rule:nonzero;stroke:none;stroke-width:0.99999964;stroke-linecap:square;stroke-linejoin:miter;stroke-miterlimit:4;stroke-dasharray:none;stroke-opacity:1;paint-order:stroke markers fill;filter:url(#filter1764)"
       d="m 99.499998,378.58332 c 0,-10.76955 -22.1619,-19.5 -49.499998,-19.5 -27.338095,0 -58.1547774,13.09079 -49.5,19.5 l 50.381679,40.08014 c 8.406834,6.73115 21.780226,14.91985 49.118321,14.91985 27.3381,0 49.5,-8.73045 49.5,-19.5 z"
       inkscape:connector-curvature="0"
       sodipodi:nodetypes="csccscc" />
    <g
       id="g5804"
       inkscape:export-xdpi="96"
       inkscape:export-ydpi="96">
      <ellipse
         style="opacity:0.97000002;fill:url(#linearGradient5753);fill-opacity:1;fill-rule:nonzero;stroke:none;stroke-width:0.99999964;stroke-linecap:square;stroke-linejoin:miter;stroke-miterlimit:4;stroke-dasharray:none;stroke-opacity:1;paint-order:stroke markers fill"
         id="ellipse5745"
         cx="99.999992"
         cy="274.08319"
         rx="49.5"
         ry="19.5" />
      <ellipse
         ry="19.8211"
         rx="49.5"
         cy="277.97128"
         cx="100"
         id="path1484"
         style="opacity:0.97000002;fill:#999999;fill-opacity:1;fill-rule:nonzero;stroke:none;stroke-width:1.00819945;stroke-linecap:square;stroke-linejoin:miter;stroke-miterlimit:4;stroke-dasharray:none;stroke-opacity:1;paint-order:stroke markers fill" />
      <path
         sodipodi:nodetypes="csccscc"
         inkscape:connector-curvature="0"
         d="m 149.49999,274.08319 c 0,10.76955 -22.1619,19.5 -49.499998,19.5 -27.338095,0 -49.5,-8.73045 -49.5,-19.5 l 8e-6,140.00012 c 0,10.76955 22.161905,19.5 49.5,19.5 27.3381,0 49.5,-8.73045 49.5,-19.5 z"
         style="opacity:0.97000002;fill:url(#linearGradient1510);fill-opacity:1;fill-rule:nonzero;stroke:none;stroke-width:0.99999964;stroke-linecap:square;stroke-linejoin:miter;stroke-miterlimit:4;stroke-dasharray:none;stroke-opacity:1;paint-order:stroke markers fill"
         id="ellipse1488" />
      <path
         inkscape:connector-curvature="0"
         id="path835"
         d="m 60,308.64283 v 94.99999 c 9.002516,3.29691 23.561279,5.4405 40,5.4405 16.43872,0 30.99748,-2.14359 40,-5.4405 v -94.99999 c -9.00252,3.2969 -23.56128,5.44049 -40,5.44049 -16.438721,0 -30.997484,-2.14359 -40,-5.44049 z"
         style="opacity:0.5;fill:#ff0000;fill-opacity:1;fill-rule:nonzero;stroke:none;stroke-width:0.82375419;stroke-linecap:square;stroke-linejoin:miter;stroke-miterlimit:4;stroke-dasharray:none;stroke-opacity:1;paint-order:stroke markers fill" />
      <path
         inkscape:connector-curvature="0"
         id="path930"
         style="font-style:normal;font-variant:normal;font-weight:bold;font-stretch:normal;font-size:24px;line-height:24px;font-family:'Nimbus Roman No9 L';-inkscape-font-specification:'Nimbus Roman No9 L Bold';text-align:center;letter-spacing:0px;word-spacing:0px;text-anchor:middle;fill:#3f7f00;fill-opacity:1;stroke:none"
         d="m 123.48878,383.70322 c 0,0 0,4.40625 0,4.40625 0,0.85937 0.0496,1.39163 0.1489,1.59678 0.10691,0.19568 0.29018,0.33191 0.5498,0.4087 0.26726,0.0751 0.75977,0.0686 1.45445,-0.1156 0,0 0,0.43359 0,0.43359 0,0 -7.92438,1.53508 -7.92438,1.53508 0,0 0,-0.43359 0,-0.43359 0.72377,-0.12402 1.2127,-0.27421 1.4668,-0.45056 0.26178,-0.18549 0.44273,-0.39618 0.54283,-0.63208 0.10779,-0.23722 0.16169,-0.78552 0.16169,-1.64489 0,0 0,-10.3125 0,-10.3125 0,-0.85938 -0.0539,-1.3892 -0.16169,-1.58949 -0.1001,-0.2094 -0.28105,-0.35809 -0.54283,-0.44604 -0.2618,-0.088 -0.75073,-0.0706 -1.4668,0.0521 0,0 0,-0.43359 0,-0.43359 0,0 6.8021,-1.29194 6.8021,-1.29194 2.22974,-0.48116 3.79909,-0.54644 4.75806,0.0119 0.95897,0.5583 1.41825,1.37795 1.41825,2.59669 0,1.03126 -0.30493,2.01199 -0.9148,2.9422 -0.60988,0.93022 -1.46619,1.64599 -2.55352,2.19984 -0.73245,0.38165 -1.97493,0.78652 -3.73886,1.16716 0,0 0,0 0,0 m 0,-7.78125 c 0,0 0,6.86719 0,6.86719 0.25199,-0.0388 0.44289,-0.0722 0.57271,-0.10019 0.9316,-0.20103 1.6484,-0.64126 2.14677,-1.33586 0.49836,-0.70242 0.74754,-1.64738 0.74754,-2.83488 0,-1.17968 -0.24918,-1.97692 -0.74754,-2.39169 -0.49837,-0.41477 -1.24954,-0.52181 -2.24986,-0.30595 0,0 -0.46962,0.10138 -0.46962,0.10138 m -23.09674,1.45787 c 0,0 8.19585,-0.29967 8.19585,-0.29967 0,0 0,0.43359 0,0.43359 0,0 -0.40953,0.0223 -0.40953,0.0223 -0.61624,0.0336 -1.04136,0.12319 -1.27538,0.26876 -0.22621,0.13734 -0.39003,0.32205 -0.49143,0.55414 -0.0936,0.23167 -0.14041,0.80063 -0.14041,1.70688 0,0 0,7.78125 0,7.78125 0,1.42188 0.10531,2.35754 0.31592,2.80699 0.21841,0.44903 0.57333,0.81249 1.06477,1.09038 0.49143,0.27789 1.11196,0.40183 1.85879,0.33335 0.85573,-0.0785 1.5831,-0.33657 2.18211,-0.77431 0.6068,-0.44626 1.05801,-1.0228 1.35362,-1.72959 0.3034,-0.70751 0.45422,-1.91295 0.45422,-3.60045 0,0 0,-6.48047 0,-6.48047 0,-0.71093 -0.073,-1.20403 -0.22084,-1.49516 -0.1478,-0.29114 -0.33451,-0.48496 -0.56012,-0.58146 -0.35007,-0.14758 -0.84406,-0.19213 -1.48197,-0.13364 0,0 0,-0.43359 0,-0.43359 0,0 5.45835,-0.63203 5.45835,-0.63203 0,0 0,0.43359 0,0.43359 0,0 -0.32536,0.0424 -0.32536,0.0424 -0.44155,0.0575 -0.8095,0.19536 -1.10387,0.41341 -0.29436,0.21806 -0.50739,0.51536 -0.63908,0.89191 -0.10071,0.26312 -0.15106,0.7189 -0.15106,1.36734 0,0 0,6.03516 0,6.03516 0,1.86718 -0.12395,3.23099 -0.37183,4.09143 -0.24014,0.85943 -0.83284,1.69759 -1.78192,2.47992 -0.94909,0.78234 -2.2412,1.29203 -3.8871,1.38178 -1.37288,0.0749 -2.43375,-0.0509 -3.18259,-0.37725 -1.02186,-0.44428 -1.74463,-1.07921 -2.16642,-1.85282 -0.42178,-0.77361 -0.63267,-1.82058 -0.63267,-3.14089 0,0 0,-7.78125 0,-7.78125 0,-0.91406 -0.0508,-1.47955 -0.1523,-1.69647 -0.10155,-0.22472 -0.27729,-0.40122 -0.52724,-0.52951 -0.24994,-0.12829 -0.71078,-0.18245 -1.38251,-0.16247 0,0 0,-0.43359 0,-0.43359 m -9.939426,-0.57851 c 2.520523,0.13742 4.577319,0.9214 6.155099,2.52028 1.58559,1.59902 2.378385,3.57822 2.378385,5.9376 0,2.01562 -0.589714,3.77838 -1.769143,5.28827 -1.562159,2.00296 -3.773164,3.00474 -6.612643,2.74432 -2.847258,-0.26113 -5.044875,-1.46735 -6.594165,-3.60683 -1.223938,-1.69082 -1.835608,-3.58899 -1.835608,-5.69055 0,-2.35938 0.793712,-4.21873 2.381734,-5.582 1.595767,-1.37008 3.562523,-1.91888 5.896341,-1.61109 0,0 0,0 0,0 m 0.140029,0.76284 c -1.446967,-0.1327 -2.547751,0.50853 -3.302352,1.92369 -0.614572,1.16239 -0.92135,2.87963 -0.92135,5.16088 0,2.71094 0.474035,4.76294 1.42312,6.14686 0.661249,0.9669 1.586997,1.50493 2.777244,1.61409 0.801278,0.0735 1.473468,-0.10369 2.011701,-0.46496 0.686442,-0.46256 1.220774,-1.23029 1.602996,-2.3032 0.382224,-1.08072 0.573335,-2.50389 0.573335,-4.26952 0,-2.10156 -0.195011,-3.6825 -0.585035,-4.74283 -0.390023,-1.06815 -0.889254,-1.83366 -1.49769,-2.29653 -0.600637,-0.46245 -1.29625,-0.69641 -2.081969,-0.76848 0,0 0,0 0,0 m -11.39788,-2.34217 c 0,0 0.127046,5.31865 0.127046,5.31865 0,0 -0.473531,-0.0812 -0.473531,-0.0812 -0.22329,-1.3664 -0.773568,-2.52844 -1.644073,-3.52102 -0.86287,-0.99874 -1.798281,-1.60689 -2.806234,-1.82444 -0.778874,-0.16812 -1.384489,-0.14037 -1.837539,0.1692 -0.445499,0.30376 -0.668248,0.73299 -0.668248,1.28767 0,0.35156 0.07928,0.68509 0.237851,1.00057 0.218974,0.42524 0.570088,0.88162 1.053341,1.36912 0.354889,0.3519 1.176414,1.01676 2.474536,1.9532 1.817371,1.30632 3.047922,2.40847 3.686995,3.3305 0.631374,0.92071 0.947061,1.90451 0.947061,2.95138 0,1.32813 -0.512028,2.3849 -1.536086,3.17033 -1.016357,0.77893 -2.296189,0.96303 -3.853935,0.6268 -0.488704,-0.10548 -0.948387,-0.26551 -1.378784,-0.48118 -0.430398,-0.21568 -0.970282,-0.55023 -1.619653,-1.00365 -0.362439,-0.25234 -0.660697,-0.40955 -0.894773,-0.47161 -0.196321,-0.0521 -0.40693,-0.0189 -0.622611,0.0681 -0.215681,0.087 -0.390458,0.26911 -0.524329,0.54642 0,0 -0.41277,-0.13258 -0.41277,-0.13258 0,0 0,-6 0,-6 0,0 0.41277,0.13258 0.41277,0.13258 0.327241,1.79261 0.961945,3.26223 1.905798,4.4031 0.951405,1.13507 1.96986,1.86719 3.077082,2.10617 0.855233,0.1846 1.534838,0.093 2.038815,-0.27478 0.511613,-0.36614 0.767419,-0.86562 0.767419,-1.49843 0,-0.375 -0.09927,-0.75971 -0.297805,-1.15412 -0.1909,-0.39276 -0.484886,-0.78825 -0.881958,-1.18645 -0.397073,-0.40602 -1.099586,-0.97171 -2.107539,-1.69708 -1.412662,-1.01585 -2.403467,-1.94348 -3.015085,-2.60564 -0.611617,-0.66216 -1.081395,-1.3532 -1.408636,-2.0755 -0.319803,-0.7199 -0.479705,-1.45095 -0.479705,-2.19314 0,-1.26563 0.434807,-2.17534 1.333355,-2.82773 0.898549,-0.65238 2.016142,-0.73495 3.39826,-0.43663 0.503977,0.10877 0.992681,0.27676 1.466114,0.50394 0.358893,0.17121 0.794146,0.44094 1.305758,0.80918 0.519249,0.36207 0.881959,0.56536 1.088131,0.60986 0.198537,0.0429 0.357596,10e-4 0.473091,-0.10408 0.115495,-0.1052 0.223291,-0.38751 0.323386,-0.84691 0,0 0.346485,0.0594 0.346485,0.0594 m 37.245587,-11.60432 c 0,0 -5.57612,0.63295 -5.57612,0.63295 0,0 -0.66514,1.60786 -0.66514,1.60786 -0.21782,0.5356 -0.32673,0.97137 -0.32673,1.3073 0,0.44532 0.17892,0.75704 0.53677,0.93516 0.21005,0.10574 0.72738,0.15206 1.55199,0.13894 0,0 0,0.43359 0,0.43359 0,0 -5.26875,0.4007 -5.26875,0.4007 0,0 0,-0.43359 0,-0.43359 0.56943,-0.11699 1.03746,-0.37689 1.40408,-0.77969 0.36663,-0.41061 0.81904,-1.23627 1.35581,-2.49643 0,0 5.65183,-13.26793 5.65183,-13.26793 0,0 0.22077,-0.0288 0.22077,-0.0288 0,0 5.66122,12.15272 5.66122,12.15272 0.53898,1.14202 0.9793,1.83104 1.32292,2.0772 0.25963,0.18616 0.62617,0.2477 1.0996,0.18459 0,0 0,0.43359 0,0.43359 0,0 -7.57247,1.30401 -7.57247,1.30401 0,0 0,-0.43359 0,-0.43359 0,0 0.31373,-0.0409 0.31373,-0.0409 0.61197,-0.0798 1.0419,-0.22174 1.28979,-0.42593 0.17042,-0.14721 0.2548,-0.34353 0.2548,-0.57791 0,-0.14062 -0.0231,-0.2812 -0.0693,-0.42172 -0.0154,-0.0677 -0.13125,-0.34338 -0.34818,-0.83073 0,0 -0.83663,-1.87141 -0.83663,-1.87141 m -0.39506,-0.8157 c 0,0 -2.34719,-5.16671 -2.34719,-5.16671 0,0 -2.42545,5.71072 -2.42545,5.71072 0,0 4.77264,-0.54401 4.77264,-0.54401 m -19.027511,-8.55104 c 0,0 0,6.46875 0,6.46875 0,0 0.316337,0.006 0.316337,0.006 1.007592,0.0182 1.737901,-0.28493 2.190927,-0.90954 0.453025,-0.62461 0.742027,-1.56656 0.866997,-2.80319 0,0 0.44522,-0.008 0.44522,-0.008 0,0 0,8.32031 0,8.32031 0,0 -0.44522,0.008 -0.44522,0.008 -0.0937,-0.90455 -0.2929,-1.63563 -0.597524,-2.21928 -0.296811,-0.5835 -0.644391,-0.97651 -1.042741,-1.17904 -0.39835,-0.21033 -0.976349,-0.32236 -1.733996,-0.33607 0,0 0,4.47656 0,4.47656 0,0.875 0.03515,1.41079 0.105446,1.60738 0.07811,0.19672 0.218702,0.35943 0.421783,0.4881 0.20308,0.12868 0.531133,0.19712 0.984159,0.20532 0,0 0.949011,0.0172 0.949011,0.0172 1.484052,0.0269 2.671292,-0.37713 3.561722,-1.08075 0.89824,-0.70376 1.54243,-1.76769 1.93246,-3.19522 0,0 0.43293,-0.0236 0.43293,-0.0236 0,0 -0.71375,5.0897 -0.71375,5.0897 0,0 -13.725232,-0.22502 -13.725232,-0.22502 0,0 0,-0.43359 0,-0.43359 0,0 0.526532,0.0287 0.526532,0.0287 0.460228,0.0251 0.83075,-0.0367 1.111567,-0.18547 0.202813,-0.0983 0.358822,-0.27731 0.468028,-0.53698 0.0858,-0.18282 0.128708,-0.67267 0.128708,-1.46955 0,0 0,-10.45312 0,-10.45312 0,-0.71875 -0.0195,-1.16122 -0.0585,-1.32741 -0.078,-0.27769 -0.222314,-0.4965 -0.432926,-0.65642 -0.296419,-0.23492 -0.702043,-0.36642 -1.216874,-0.39449 0,0 -0.526532,-0.0287 -0.526532,-0.0287 0,0 0,-0.43359 0,-0.43359 0,0 13.292079,0.24223 13.292079,0.24223 0,0 0,4.69922 0,4.69922 0,0 -0.44522,0.008 -0.44522,0.008 -0.22651,-1.14434 -0.54676,-1.96276 -0.96073,-2.45527 -0.40616,-0.49264 -0.98416,-0.84936 -1.734,-1.07016 -0.4374,-0.13271 -1.257534,-0.1893 -2.460392,-0.21108 0,0 -1.640269,-0.0297 -1.640269,-0.0297 m -14.669244,6.56509 c 0,0 0,4.40625 0,4.40625 0,0.85937 0.05035,1.4089 0.151056,1.6486 0.10845,0.23288 0.294364,0.4329 0.557744,0.60005 0.271125,0.16817 0.763025,0.2987 1.475698,0.39162 0,0 0,0.43359 0,0.43359 0,0 -7.9588,-1.33736 -7.9588,-1.33736 0,0 0,-0.43359 0,-0.43359 0.717785,0.15493 1.202672,0.19318 1.454661,0.11475 0.259624,-0.0846 0.4421,-0.24118 0.542196,-0.44277 0.107795,-0.20028 0.161693,-0.7301 0.161693,-1.58948 0,0 0,-10.3125 0,-10.3125 0,-0.85937 -0.0539,-1.40767 -0.161693,-1.6449 -0.100096,-0.24371 -0.282572,-0.4465 -0.542196,-0.63535 -0.259625,-0.18885 -0.744512,-0.35991 -1.454661,-0.51319 0,0 0,-0.43359 0,-0.43359 0,0 6.820073,1.1889 6.820073,1.1889 2.261962,0.2949 3.888205,0.88247 4.876188,1.78558 0.987983,0.90311 1.481975,1.96404 1.481975,3.18279 0,1.03125 -0.318955,1.88481 -0.956865,2.56068 -0.637911,0.67587 -1.520329,1.12536 -2.635817,1.24555 -0.751406,0.0895 -2.021823,0.0177 -3.811252,-0.21563 0,0 0,0 0,0 m 0,-7.78125 c 0,0 0,6.86719 0,6.86719 0.255633,0.0489 0.449294,0.082 0.580984,0.0991 0.945066,0.12321 1.673232,-0.0631 2.184498,-0.55895 0.511265,-0.50366 0.766898,-1.34923 0.766898,-2.53673 0,-1.17969 -0.255633,-2.0763 -0.766898,-2.68984 -0.511266,-0.61353 -1.274291,-0.98644 -2.289076,-1.11874 0,0 -0.476406,-0.0621 -0.476406,-0.0621 m 50.768325,-28.68374 c 0,0 0,4.30078 0,4.30078 0,0 -0.40162,0.12897 -0.40162,0.12897 -0.238,-0.91576 -0.50203,-1.54191 -0.79209,-1.87846 -0.29007,-0.34435 -0.68797,-0.56423 -1.19372,-0.65964 -0.28262,-0.0499 -0.76835,0.0688 -1.48569,0.25898 0,0 -1.14397,0.30324 -1.14397,0.30324 0,0 0,12.25781 0,12.25781 0,0.8125 0.0415,1.3093 0.12459,1.49041 0.0906,0.17911 0.2605,0.31376 0.50969,0.40396 0.25673,0.0804 0.60457,0.0642 1.03595,-0.0743 0,0 0.50203,-0.16121 0.50203,-0.16121 0,0 0,0.43359 0,0.43359 0,0 -8.06611,2.0202 -8.06611,2.0202 0,0 0,-0.43359 0,-0.43359 0,0 0.51543,-0.11122 0.51543,-0.11122 0.45053,-0.0972 0.81324,-0.25753 1.08814,-0.48091 0.19854,-0.15222 0.35508,-0.3735 0.46962,-0.66384 0.084,-0.20562 0.126,-0.70688 0.126,-1.50376 0,0 0,-12.25781 0,-12.25781 0,0 -1.12251,0.24223 -1.12251,0.24223 -1.04614,0.22575 -1.80759,0.60771 -2.28497,1.14264 -0.66988,0.7476 -1.09336,1.7225 -1.27045,2.92472 0,0 -0.43889,0.0752 -0.43889,0.0752 0,0 0,-4.30078 0,-4.30078 0,0 13.82857,-3.45724 13.82857,-3.45724 m -15.21452,19.15175 c 0,0 0,0.43359 0,0.43359 0,0 -8.2517,0.94896 -8.2517,0.94896 0,0 0,-0.43359 0,-0.43359 0,0 0.52512,-0.0482 0.52512,-0.0482 0.45898,-0.0421 0.8285,-0.158 1.10856,-0.34774 0.20226,-0.12792 0.35785,-0.32969 0.46676,-0.6053 0.0856,-0.19534 0.12836,-0.69146 0.12836,-1.48834 0,0 0,-10.45312 0,-10.45312 0,-0.8125 -0.0428,-1.31639 -0.12836,-1.51167 -0.0856,-0.19528 -0.26061,-0.35501 -0.52511,-0.47919 -0.25672,-0.13271 -0.60679,-0.17874 -1.05021,-0.13808 0,0 -0.52512,0.0482 -0.52512,0.0482 0,0 0,-0.43359 0,-0.43359 0,0 8.2517,-0.94896 8.2517,-0.94896 0,0 0,0.43359 0,0.43359 0,0 -0.52079,0.082 -0.52079,0.082 -0.45704,0.0596 -0.825,0.18957 -1.10387,0.38999 -0.20141,0.13563 -0.36022,0.34383 -0.47641,0.6246 -0.0852,0.19861 -0.12781,0.69635 -0.12781,1.49322 0,0 0,10.45312 0,10.45312 0,0.8125 0.0426,1.31476 0.12781,1.50678 0.093,0.19101 0.26725,0.34798 0.52289,0.4709 0.26337,0.11411 0.61584,0.14239 1.05739,0.0848 0,0 0.52079,-0.082 0.52079,-0.082 m -9.60697,-4.09414 c 0,0 -0.59674,5.61066 -0.59674,5.61066 0,0 -14.099663,0.0825 -14.099663,0.0825 0,0 0,-0.43359 0,-0.43359 0,0 0.526533,0.0287 0.526533,0.0287 0.460227,0.0251 0.83075,-0.0367 1.111567,-0.18546 0.202812,-0.0983 0.359148,-0.2863 0.468499,-0.54994 0.08592,-0.18595 0.128878,-0.67736 0.128878,-1.47424 0,0 0,-10.45312 0,-10.45312 0,-0.8125 -0.04296,-1.32109 -0.128878,-1.52577 -0.08592,-0.20469 -0.261787,-0.3802 -0.527003,-0.54309 -0.257416,-0.1703 -0.608437,-0.26757 -1.053063,-0.29182 0,0 -0.526533,-0.0287 -0.526533,-0.0287 0,0 0,-0.43359 0,-0.43359 0,0 8.468493,0.13832 8.468493,0.13832 0,0 0,0.43359 0,0.43359 0,0 -0.69125,0.0125 -0.69125,0.0125 -0.46084,0.008 -0.83186,0.0971 -1.11305,0.26625 -0.20307,0.11305 -0.363192,0.30374 -0.480361,0.56724 -0.08592,0.18595 -0.128878,0.67736 -0.128878,1.47423 0,0 0,10.125 0,10.125 0,0.8125 0.04686,1.33288 0.140595,1.56113 0.09373,0.22046 0.277284,0.38133 0.550664,0.48576 0.19527,0.0668 0.66782,0.0934 1.41765,0.0798 0,0 1.32393,-0.024 1.32393,-0.024 0.84357,-0.0153 1.54628,-0.18367 2.10792,-0.51117 0.56163,-0.3275 1.04526,-0.82262 1.45088,-1.48536 0.41343,-0.66317 0.80346,-1.62975 1.17008,-2.89974 0,0 0.47973,-0.0262 0.47973,-0.0262 m -23.29755,-2.24723 c 0,0 0,4.40625 0,4.40625 0,0.85938 0.05035,1.40891 0.151056,1.64861 0.10845,0.23288 0.294364,0.4329 0.557744,0.60005 0.271125,0.16816 0.762944,0.29942 1.478649,0.36506 0,0 0,0.43359 0,0.43359 0,0 -7.990506,-1.13905 -7.990506,-1.13905 0,0 0,-0.43359 0,-0.43359 0.72377,0.12405 1.2127,0.14144 1.46679,0.0522 0.261788,-0.0958 0.442731,-0.24443 0.542827,-0.44602 0.107795,-0.20028 0.161692,-0.73011 0.161692,-1.58948 0,0 0,-10.3125 0,-10.3125 0,-0.85937 -0.0539,-1.40767 -0.161692,-1.6449 -0.100096,-0.24372 -0.281039,-0.45442 -0.542827,-0.6321 -0.26179,-0.17768 -0.750719,-0.32788 -1.46679,-0.45061 0,0 0,-0.43359 0,-0.43359 0,0 6.848827,1.01714 6.848827,1.01714 2.261963,0.2949 3.896956,0.8155 4.887616,1.68203 0.99066,0.86652 1.48599,1.90916 1.48599,3.12791 0,1.03125 -0.31982,1.89662 -0.959458,2.59611 -0.639639,0.69949 -1.518564,1.11687 -2.638797,1.27975 -0.754601,0.11829 -2.031692,0.10647 -3.821121,-0.12683 0,0 0,0 0,0 m 0,-7.78125 c 0,0 0,6.86719 0,6.86719 0.255633,0.0489 0.449294,0.082 0.580984,0.0991 0.945066,0.12321 1.676479,-0.0923 2.18992,-0.60774 0.513439,-0.52322 0.770159,-1.37858 0.770159,-2.56608 0,-1.17969 -0.25672,-2.06652 -0.770159,-2.66049 -0.513441,-0.59396 -1.279713,-0.93765 -2.294498,-1.06996 0,0 -0.476406,-0.0621 -0.476406,-0.0621 m -8.446495,-2.68023 c 0,0 0.125994,5.32406 0.125994,5.32406 0,0 -0.469614,-0.10136 -0.469614,-0.10136 -0.221444,-1.37592 -0.767419,-2.56017 -1.637924,-3.55275 -0.86287,-0.99874 -1.782824,-1.6711 -2.779534,-1.93536 -0.770184,-0.20421 -1.381809,-0.15149 -1.828047,0.13486 -0.4388,0.28094 -0.658199,0.69875 -0.658199,1.25344 0,0.35156 0.07809,0.68914 0.234273,1.01274 0.215682,0.43647 0.556813,0.92686 1.040066,1.41436 0.354889,0.3519 1.174153,1.02615 2.457795,2.02275 1.797096,1.39053 3.030304,2.48666 3.664093,3.43595 0.626152,0.94765 0.939229,1.94491 0.939229,2.99179 0,1.32812 -0.507795,2.36305 -1.523385,3.10479 -1.007953,0.73556 -2.287101,0.91986 -3.82747,0.51145 -0.483253,-0.12813 -0.940078,-0.30003 -1.370474,-0.5157 -0.430398,-0.21568 -0.963365,-0.5738 -1.602972,-1.06049 -0.35699,-0.27091 -0.650763,-0.4434 -0.881319,-0.51745 -0.193369,-0.0621 -0.397895,-0.0497 -0.613576,0.0373 -0.215682,0.087 -0.390458,0.26911 -0.524329,0.54642 0,0 -0.41277,-0.13258 -0.41277,-0.13258 0,0 0,-6 0,-6 0,0 0.41277,0.13258 0.41277,0.13258 0.327241,1.79261 0.955692,3.28353 1.885353,4.47277 0.937098,1.18381 1.955816,1.91155 3.050687,2.20183 0.845692,0.22423 1.51312,0.18322 2.017096,-0.18456 0.511613,-0.36614 0.767419,-0.86562 0.767419,-1.49843 0,-0.375 -0.09927,-0.75971 -0.297804,-1.15412 -0.1909,-0.39277 -0.485742,-0.7847 -0.878385,-1.2013 -0.392643,-0.42442 -1.08732,-1.02266 -2.084029,-1.79474 -1.396903,-1.08131 -2.385333,-2.00698 -2.987753,-2.70048 -0.602421,-0.6935 -1.067252,-1.4014 -1.394492,-2.12369 -0.319804,-0.71991 -0.479705,-1.45096 -0.479705,-2.19315 0,-1.26562 0.442518,-2.20161 1.327556,-2.80796 0.885037,-0.60635 1.9978,-0.68369 3.364501,-0.32133 0.498354,0.13214 0.981607,0.32276 1.449759,0.57189 0.354888,0.18784 0.781498,0.49346 1.293111,0.8617 0.519249,0.36208 0.881959,0.56536 1.088132,0.60986 0.198536,0.0429 0.355074,0.0141 0.469614,-0.0861 0.114541,-0.10028 0.221445,-0.37799 0.320713,-0.83312 0,0 0.34362,0.0742 0.34362,0.0742" />
      <ellipse
         ry="15.6"
         rx="39.599998"
         cy="276.93027"
         cx="100"
         id="ellipse5767"
         style="opacity:0.97000002;fill:url(#linearGradient5775);fill-opacity:1;fill-rule:nonzero;stroke:none;stroke-width:0.79999971;stroke-linecap:square;stroke-linejoin:miter;stroke-miterlimit:4;stroke-dasharray:none;stroke-opacity:1;paint-order:stroke markers fill" />
      <ellipse
         ry="13.65"
         rx="34.650002"
         cy="276.69104"
         cx="100"
         id="ellipse5781"
         style="opacity:0.97000002;fill:url(#linearGradient5789);fill-opacity:1;fill-rule:nonzero;stroke:none;stroke-width:0.69999975;stroke-linecap:square;stroke-linejoin:miter;stroke-miterlimit:4;stroke-dasharray:none;stroke-opacity:1;paint-order:stroke markers fill" />
      <ellipse
         style="opacity:0.97000002;fill:#999999;fill-opacity:1;fill-rule:nonzero;stroke:none;stroke-width:0.59999979;stroke-linecap:square;stroke-linejoin:miter;stroke-miterlimit:4;stroke-dasharray:none;stroke-opacity:1;paint-order:stroke markers fill"
         id="ellipse5757"
         cx="99.52153"
         cy="278.84409"
         rx="29.700001"
         ry="11.7" />
    </g>
  </g>
</svg>
