<?xml version="1.0" encoding="UTF-8" standalone="no"?>
<!-- Created with Inkscape (http://www.inkscape.org/) -->

<svg
   xmlns:dc="http://purl.org/dc/elements/1.1/"
   xmlns:cc="http://creativecommons.org/ns#"
   xmlns:rdf="http://www.w3.org/1999/02/22-rdf-syntax-ns#"
   xmlns:svg="http://www.w3.org/2000/svg"
   xmlns="http://www.w3.org/2000/svg"
   xmlns:xlink="http://www.w3.org/1999/xlink"
   xmlns:sodipodi="http://sodipodi.sourceforge.net/DTD/sodipodi-0.dtd"
   xmlns:inkscape="http://www.inkscape.org/namespaces/inkscape"
   width="200"
   height="200"
   viewBox="0 0 200 200"
   version="1.1"
   id="svg937"
   inkscape:version="0.92.4 (5da689c313, 2019-01-14)"
   sodipodi:docname="A Can of Soup.svg">
  <title
     id="title1768">A Three-Dimensional Drawing with Gradients</title>
  <defs
     id="defs931">
    <linearGradient
       inkscape:collect="always"
       id="linearGradient1508">
      <stop
         style="stop-color:#333333;stop-opacity:1"
         offset="0"
         id="stop1504" />
      <stop
         id="stop1512"
         offset="0.5"
         style="stop-color:#ffffff;stop-opacity:1" />
      <stop
         style="stop-color:#333333;stop-opacity:1"
         offset="1"
         id="stop1506" />
    </linearGradient>
    <linearGradient
       inkscape:collect="always"
       xlink:href="#linearGradient1508"
       id="linearGradient1510"
       x1="50"
       y1="349.08331"
       x2="200"
       y2="349.08331"
       gradientUnits="userSpaceOnUse" />
    <filter
       inkscape:collect="always"
       style="color-interpolation-filters:sRGB"
       id="filter1764"
       x="-0.026911148"
       width="1.0538223"
       y="-0.054358952"
       height="1.1087179">
      <feGaussianBlur
         inkscape:collect="always"
         stdDeviation="1.6873922"
         id="feGaussianBlur1766" />
    </filter>
  </defs>
  <sodipodi:namedview
     id="base"
     pagecolor="#ffffff"
     bordercolor="#666666"
     borderopacity="1.0"
     inkscape:pageopacity="0.0"
     inkscape:pageshadow="2"
     inkscape:zoom="2.62"
     inkscape:cx="99.203539"
     inkscape:cy="88.903186"
     inkscape:document-units="px"
     inkscape:current-layer="layer1"
     showgrid="true"
     inkscape:window-width="1366"
     inkscape:window-height="705"
     inkscape:window-x="-8"
     inkscape:window-y="-8"
     inkscape:window-maximized="1"
     units="px"
     inkscape:snap-smooth-nodes="true"
     inkscape:object-nodes="false"
     inkscape:snap-text-baseline="false"
     inkscape:snap-center="true">
    <inkscape:grid
       type="xygrid"
       id="grid1482"
       spacingx="5"
       spacingy="5" />
  </sodipodi:namedview>
  <metadata
     id="metadata934">
    <rdf:RDF>
      <cc:Work
         rdf:about="">
        <dc:format>image/svg+xml</dc:format>
        <dc:type
           rdf:resource="http://purl.org/dc/dcmitype/StillImage" />
        <dc:title>A Three-Dimensional Drawing with Gradients</dc:title>
      </cc:Work>
    </rdf:RDF>
  </metadata>
  <g
     inkscape:label="Layer 1"
     inkscape:groupmode="layer"
     id="layer1"
     transform="translate(0,-244.08332)">
    <path
       id="ellipse1514"
       style="opacity:0.97000002;fill:#b3b3b3;fill-opacity:1;fill-rule:nonzero;stroke:none;stroke-width:0.99999964;stroke-linecap:square;stroke-linejoin:miter;stroke-miterlimit:4;stroke-dasharray:none;stroke-opacity:1;paint-order:stroke markers fill;filter:url(#filter1764)"
       d="m 99.499998,378.58332 c 0,-10.76955 -22.1619,-19.5 -49.499998,-19.5 -27.338095,0 -58.1547774,13.09079 -49.5,19.5 l 50.381679,40.08014 c 8.406834,6.73115 21.780226,14.91985 49.118321,14.91985 27.3381,0 49.5,-8.73045 49.5,-19.5 z"
       inkscape:connector-curvature="0"
       sodipodi:nodetypes="csccscc" />
    <ellipse
       style="opacity:0.97000002;fill:#999999;fill-opacity:1;fill-rule:nonzero;stroke:none;stroke-width:0.99999964;stroke-linecap:square;stroke-linejoin:miter;stroke-miterlimit:4;stroke-dasharray:none;stroke-opacity:1;paint-order:stroke markers fill"
       id="path1484"
       cx="99.999992"
       cy="274.08319"
       rx="49.5"
       ry="19.5" />
    <g
       id="g1494"
       style="stroke:none">
      <path
         sodipodi:nodetypes="csccscc"
         inkscape:connector-curvature="0"
         d="m 149.49999,274.08319 c 0,10.76955 -22.1619,19.5 -49.499998,19.5 -27.338095,0 -49.5,-8.73045 -49.5,-19.5 l 8e-6,140.00012 c 0,10.76955 22.161905,19.5 49.5,19.5 27.3381,0 49.5,-8.73045 49.5,-19.5 z"
         style="opacity:0.97000002;fill:url(#linearGradient1510);fill-opacity:1;fill-rule:nonzero;stroke:none;stroke-width:0.99999964;stroke-linecap:square;stroke-linejoin:miter;stroke-miterlimit:4;stroke-dasharray:none;stroke-opacity:1;paint-order:stroke markers fill"
         id="ellipse1488" />
    </g>
    <path
       style="opacity:0.5;fill:#ff0000;fill-opacity:1;fill-rule:nonzero;stroke:none;stroke-width:0.82375419;stroke-linecap:square;stroke-linejoin:miter;stroke-miterlimit:4;stroke-dasharray:none;stroke-opacity:1;paint-order:stroke markers fill"
       d="m 60,308.64283 v 94.99999 c 9.002516,3.29691 23.561279,5.4405 40,5.4405 16.43872,0 30.99748,-2.14359 40,-5.4405 v -94.99999 c -9.00252,3.2969 -23.56128,5.44049 -40,5.44049 -16.438721,0 -30.997484,-2.14359 -40,-5.44049 z"
       id="path835"
       inkscape:connector-curvature="0" />
    <path
       style="opacity:0.97000002;fill:none;fill-opacity:1;fill-rule:nonzero;stroke:#000000;stroke-width:0.99999964;stroke-linecap:square;stroke-linejoin:miter;stroke-miterlimit:4;stroke-dasharray:none;stroke-opacity:1;paint-order:stroke markers fill"
       d="M 130.0228,360.08714 A 49.5,19.5 0 0 1 100,364.08332 49.5,19.5 0 0 1 69.962486,360.08271"
       id="ellipse852"
       inkscape:connector-curvature="0" />
    <path
       id="path930"
       style="font-style:normal;font-variant:normal;font-weight:bold;font-stretch:normal;font-size:24px;line-height:24px;font-family:'Nimbus Roman No9 L';-inkscape-font-specification:'Nimbus Roman No9 L Bold';text-align:center;letter-spacing:0px;word-spacing:0px;text-anchor:middle;fill:#3f7f00;fill-opacity:1;stroke:none"
       d="m 123.82422,384.888 v 4.40625 q 0,1.28906 0.15234,1.62891 0.16407,0.32812 0.5625,0.52734 0.41016,0.19922 1.48828,0.19922 v 0.43359 h -8.07421 v -0.43359 q 1.10156,0 1.48828,-0.19922 0.39843,-0.21094 0.55078,-0.53906 0.16406,-0.32813 0.16406,-1.61719 v -10.3125 q 0,-1.28906 -0.16406,-1.61719 -0.15235,-0.33984 -0.55078,-0.53906 -0.39844,-0.19922 -1.48828,-0.19922 v -0.43359 h 6.92578 q 3.42187,0 4.91015,1.21875 1.48828,1.21875 1.48828,3.04687 0,1.54688 -0.96093,2.64844 -0.96094,1.10156 -2.64844,1.5 -1.13672,0.28125 -3.84375,0.28125 z m 0,-7.78125 v 6.86719 q 0.38672,0.0234 0.58594,0.0234 1.42968,0 2.20312,-0.84375 0.77344,-0.85547 0.77344,-2.63672 0,-1.76953 -0.77344,-2.58985 -0.77344,-0.82031 -2.30859,-0.82031 z m -23.26172,-0.91406 h 8.20313 v 0.43359 h -0.41016 q -0.92578,0 -1.27734,0.19922 -0.33985,0.1875 -0.49219,0.52734 -0.14063,0.33985 -0.14063,1.69922 v 7.78125 q 0,2.13282 0.31641,2.82422 0.32812,0.69141 1.06641,1.14844 0.73828,0.45703 1.86328,0.45703 1.28906,0 2.1914,-0.57422 0.91407,-0.58594 1.35938,-1.60547 0.45703,-1.01953 0.45703,-3.55078 v -6.48047 q 0,-1.0664 -0.22266,-1.52343 -0.22265,-0.45704 -0.5625,-0.63282 -0.52734,-0.26953 -1.48828,-0.26953 v -0.43359 h 5.4961 v 0.43359 h -0.32813 q -0.66797,0 -1.11328,0.26953 -0.44531,0.26953 -0.64453,0.8086 -0.15235,0.375 -0.15235,1.34765 v 6.03516 q 0,2.80078 -0.375,4.04297 -0.36328,1.24219 -1.79296,2.28515 -1.42969,1.04297 -3.90235,1.04297 -2.0625,0 -3.1875,-0.55078 -1.53515,-0.75 -2.16797,-1.92187 -0.63281,-1.17188 -0.63281,-3.15235 v -7.78125 q 0,-1.37109 -0.15234,-1.69922 -0.15235,-0.33984 -0.52735,-0.53906 -0.375,-0.19922 -1.38281,-0.1875 z m -9.949219,-0.22266 q 3.796875,-0.14062 6.164063,2.21485 2.378906,2.35546 2.378906,5.89453 0,3.02343 -1.769531,5.32031 -2.34375,3.04687 -6.621094,3.04687 -4.289063,0 -6.632813,-2.90625 -1.851562,-2.29687 -1.851562,-5.44921 0,-3.53907 2.402344,-5.89454 2.414062,-2.36718 5.929687,-2.22656 z m 0.140625,0.75 q -2.179687,0 -3.316406,2.22656 -0.925781,1.82813 -0.925781,5.25 0,4.06641 1.429687,6.01172 0.996094,1.35938 2.789063,1.35938 1.207031,0 2.015625,-0.58594 1.03125,-0.75 1.605468,-2.39062 0.574219,-1.65235 0.574219,-4.30079 0,-3.15234 -0.585937,-4.71093 -0.585938,-1.57032 -1.5,-2.21485 -0.902344,-0.64453 -2.085938,-0.64453 z m -11.496094,-0.89062 0.128907,5.29687 H 78.90625 q -0.339844,-1.99219 -1.675781,-3.19922 -1.324219,-1.21875 -2.871094,-1.21875 -1.195313,0 -1.898438,0.64453 -0.691406,0.63282 -0.691406,1.46485 0,0.52734 0.246094,0.9375 0.339844,0.55078 1.089844,1.08984 0.550781,0.38672 2.542968,1.3711 2.789063,1.37109 3.761719,2.58984 0.960938,1.21875 0.960938,2.78906 0,1.99219 -1.558594,3.4336 -1.546875,1.42968 -3.9375,1.42968 -0.75,0 -1.417969,-0.15234 -0.667969,-0.15234 -1.675781,-0.57422 -0.5625,-0.23437 -0.925781,-0.23437 -0.304688,0 -0.644532,0.23437 -0.339843,0.23438 -0.550781,0.71484 h -0.433594 v -6 h 0.433594 q 0.515625,2.53125 1.980469,3.86719 1.476562,1.32422 3.175781,1.32422 1.3125,0 2.085938,-0.71484 0.785156,-0.71485 0.785156,-1.66407 0,-0.5625 -0.304688,-1.08984 -0.292968,-0.52734 -0.902343,-0.99609 -0.609375,-0.48047 -2.15625,-1.24219 -2.167969,-1.06641 -3.117188,-1.81641 -0.949219,-0.75 -1.464844,-1.67578 -0.503906,-0.92578 -0.503906,-2.03906 0,-1.89844 1.394531,-3.23438 1.394532,-1.33593 3.515625,-1.33593 0.773438,0 1.5,0.1875 0.550782,0.14062 1.335938,0.52734 0.796875,0.375 1.113281,0.375 0.304688,0 0.480469,-0.1875 0.175781,-0.1875 0.328125,-0.90234 z m 37.406248,-12.26953 h -5.61328 l -0.66797,1.54687 q -0.32812,0.77344 -0.32812,1.27734 0,0.66797 0.53906,0.98438 0.31641,0.1875 1.55859,0.28125 v 0.43359 h -5.28515 v -0.43359 q 0.85547,-0.12891 1.40625,-0.70313 0.55078,-0.58593 1.35937,-2.40234 l 5.6836,-12.67969 h 0.22265 l 5.73047,13.03125 q 0.82031,1.85157 1.34766,2.33203 0.39844,0.36329 1.125,0.42188 v 0.43359 h -7.6875 v -0.43359 h 0.3164 q 0.92579,0 1.30079,-0.25781 0.25781,-0.1875 0.25781,-0.53907 0,-0.21093 -0.0703,-0.43359 -0.0234,-0.10547 -0.35157,-0.87891 z m -0.39843,-0.86719 -2.36719,-5.47266 -2.4375,5.47266 z M 97.1875,353.10675 v 6.46875 h 0.316406 q 1.511719,0 2.191406,-0.94922 0.679688,-0.94922 0.867188,-2.80078 h 0.44531 v 8.32031 h -0.44531 q -0.14062,-1.35937 -0.597656,-2.22656 -0.445313,-0.86719 -1.042969,-1.16016 -0.597656,-0.30468 -1.734375,-0.30468 v 4.47656 q 0,1.3125 0.105469,1.60547 0.117187,0.29297 0.421875,0.48047 0.304687,0.1875 0.984375,0.1875 h 0.949218 q 2.226563,0 3.562503,-1.03125 1.34765,-1.03125 1.93359,-3.14063 h 0.4336 l -0.71485,5.05078 H 91.128906 v -0.43359 h 0.527344 q 0.691406,0 1.113281,-0.24609 0.304688,-0.16407 0.46875,-0.5625 0.128906,-0.28125 0.128906,-1.47657 v -10.45312 q 0,-1.07813 -0.05859,-1.32422 -0.117188,-0.41016 -0.433594,-0.63281 -0.445313,-0.32813 -1.21875,-0.32813 h -0.527344 v -0.43359 h 13.300781 v 4.69922 h -0.44531 q -0.33985,-1.72266 -0.96094,-2.47266 -0.60938,-0.75 -1.73438,-1.10156 -0.65625,-0.21094 -2.460932,-0.21094 z M 82.457031,360.888 v 4.40625 q 0,1.28906 0.152344,1.62891 0.164062,0.32812 0.5625,0.52734 0.410156,0.19922 1.488281,0.19922 v 0.43359 h -8.074219 v -0.43359 q 1.101563,0 1.488282,-0.19922 0.398437,-0.21094 0.550781,-0.53906 0.164062,-0.32813 0.164062,-1.61719 v -10.3125 q 0,-1.28906 -0.164062,-1.61719 -0.152344,-0.33984 -0.550781,-0.53906 -0.398438,-0.19922 -1.488282,-0.19922 v -0.43359 h 6.925782 q 3.421875,0 4.910156,1.21875 1.488281,1.21875 1.488281,3.04687 0,1.54688 -0.960937,2.64844 -0.960938,1.10156 -2.648438,1.5 -1.136719,0.28125 -3.84375,0.28125 z m 0,-7.78125 v 6.86719 q 0.386719,0.0234 0.585938,0.0234 1.429687,0 2.203125,-0.84375 0.773437,-0.85547 0.773437,-2.63672 0,-1.76953 -0.773437,-2.58985 -0.773438,-0.82031 -2.308594,-0.82031 z m 51.363279,-24.91406 v 4.30078 h -0.42187 q -0.375,-1.48828 -0.83203,-2.13281 -0.45704,-0.65625 -1.25391,-1.04297 -0.44531,-0.21094 -1.55859,-0.21094 h -1.1836 v 12.25781 q 0,1.21875 0.12891,1.52344 0.14062,0.30469 0.52734,0.53906 0.39844,0.22266 1.07813,0.22266 h 0.52734 v 0.43359 h -8.32031 v -0.43359 h 0.52734 q 0.69141,0 1.11328,-0.24609 0.30469,-0.16407 0.48047,-0.5625 0.12891,-0.28125 0.12891,-1.47657 v -12.25781 h -1.14844 q -1.60547,0 -2.33203,0.67969 -1.01953,0.94922 -1.28906,2.70703 h -0.44531 v -4.30078 z m -15.67968,15.45703 v 0.43359 h -8.3086 v -0.43359 h 0.52735 q 0.6914,0 1.11328,-0.24609 0.30468,-0.16407 0.46875,-0.5625 0.1289,-0.28125 0.1289,-1.47657 v -10.45312 q 0,-1.21875 -0.1289,-1.52344 -0.12891,-0.30469 -0.52735,-0.52734 -0.38672,-0.23438 -1.05468,-0.23438 h -0.52735 v -0.43359 h 8.3086 v 0.43359 h -0.52735 q -0.6914,0 -1.11328,0.2461 -0.30469,0.16406 -0.48047,0.5625 -0.1289,0.28125 -0.1289,1.47656 v 10.45312 q 0,1.21875 0.1289,1.52344 0.14063,0.30469 0.52735,0.53906 0.39843,0.22266 1.0664,0.22266 z m -9.66797,-5.14453 -0.59766,5.57812 H 93.765625 v -0.43359 h 0.527344 q 0.691406,0 1.113281,-0.24609 0.304687,-0.16407 0.46875,-0.5625 0.128906,-0.28125 0.128906,-1.47657 v -10.45312 q 0,-1.21875 -0.128906,-1.52344 -0.128906,-0.30469 -0.527344,-0.52734 -0.386719,-0.23438 -1.054687,-0.23438 h -0.527344 v -0.43359 h 8.472655 v 0.43359 h -0.6914 q -0.69141,0 -1.11329,0.2461 -0.30468,0.16406 -0.480465,0.5625 -0.128906,0.28125 -0.128906,1.47656 v 10.125 q 0,1.21875 0.140625,1.55859 0.140626,0.32813 0.550786,0.49219 0.29296,0.10547 1.41796,0.10547 h 1.32422 q 1.26563,0 2.10938,-0.44531 0.84375,-0.44532 1.45312,-1.40625 0.6211,-0.96094 1.17188,-2.83594 z M 85.128906,336.888 v 4.40625 q 0,1.28906 0.152344,1.62891 0.164062,0.32812 0.5625,0.52734 0.410156,0.19922 1.488281,0.19922 v 0.43359 h -8.074219 v -0.43359 q 1.101563,0 1.488282,-0.19922 0.398437,-0.21094 0.550781,-0.53906 0.164062,-0.32813 0.164062,-1.61719 v -10.3125 q 0,-1.28906 -0.164062,-1.61719 -0.152344,-0.33984 -0.550781,-0.53906 -0.398438,-0.19922 -1.488282,-0.19922 v -0.43359 h 6.925782 q 3.421875,0 4.910156,1.21875 1.488281,1.21875 1.488281,3.04687 0,1.54688 -0.960937,2.64844 -0.960938,1.10156 -2.648438,1.5 -1.136719,0.28125 -3.84375,0.28125 z m 0,-7.78125 v 6.86719 q 0.386719,0.0234 0.585938,0.0234 1.429687,0 2.203125,-0.84375 0.773437,-0.85547 0.773437,-2.63672 0,-1.76953 -0.773437,-2.58985 -0.773438,-0.82031 -2.308594,-0.82031 z m -8.566406,-1.27734 0.128906,5.29687 h -0.480469 q -0.339843,-1.99219 -1.675781,-3.19922 -1.324219,-1.21875 -2.871094,-1.21875 -1.195312,0 -1.898437,0.64453 -0.691406,0.63282 -0.691406,1.46485 0,0.52734 0.246093,0.9375 0.339844,0.55078 1.089844,1.08984 0.550781,0.38672 2.542969,1.3711 2.789062,1.37109 3.761719,2.58984 0.960937,1.21875 0.960937,2.78906 0,1.99219 -1.558594,3.4336 -1.546875,1.42968 -3.9375,1.42968 -0.75,0 -1.417968,-0.15234 -0.667969,-0.15234 -1.675782,-0.57422 -0.5625,-0.23437 -0.925781,-0.23437 -0.304687,0 -0.644531,0.23437 -0.339844,0.23438 -0.550781,0.71484 H 66.53125 v -6 h 0.433594 q 0.515625,2.53125 1.980468,3.86719 1.476563,1.32422 3.175782,1.32422 1.3125,0 2.085937,-0.71484 0.785156,-0.71485 0.785156,-1.66407 0,-0.5625 -0.304687,-1.08984 -0.292969,-0.52734 -0.902344,-0.99609 -0.609375,-0.48047 -2.15625,-1.24219 -2.167969,-1.06641 -3.117187,-1.81641 -0.949219,-0.75 -1.464844,-1.67578 -0.503906,-0.92578 -0.503906,-2.03906 0,-1.89844 1.394531,-3.23438 1.394531,-1.33593 3.515625,-1.33593 0.773437,0 1.5,0.1875 0.550781,0.14062 1.335937,0.52734 0.796875,0.375 1.113282,0.375 0.304687,0 0.480468,-0.1875 0.175782,-0.1875 0.328125,-0.90234 z" />
  </g>
</svg>
