<?xml version="1.0" encoding="UTF-8" standalone="no"?>
<!-- Created with Inkscape (http://www.inkscape.org/) -->

<svg
   xmlns:dc="http://purl.org/dc/elements/1.1/"
   xmlns:cc="http://creativecommons.org/ns#"
   xmlns:rdf="http://www.w3.org/1999/02/22-rdf-syntax-ns#"
   xmlns:svg="http://www.w3.org/2000/svg"
   xmlns="http://www.w3.org/2000/svg"
   xmlns:sodipodi="http://sodipodi.sourceforge.net/DTD/sodipodi-0.dtd"
   xmlns:inkscape="http://www.inkscape.org/namespaces/inkscape"
   width="270"
   height="180"
   viewBox="0 0 270 180"
   version="1.1"
   id="svg25"
   inkscape:version="0.92.4 (5da689c313, 2019-01-14)"
   sodipodi:docname="European Flag.svg"
   inkscape:export-filename="X:\inkscape_ws\ink_start\Inkscape Guide\Chapter 1. Quick Start\European Flag.png"
   inkscape:export-xdpi="96"
   inkscape:export-ydpi="96">
  <title
     id="title27">欧盟盟旗</title>
  <defs
     id="defs19" />
  <sodipodi:namedview
     id="base"
     pagecolor="#ffffff"
     bordercolor="#666666"
     borderopacity="1.0"
     inkscape:pageopacity="0.0"
     inkscape:pageshadow="2"
     inkscape:zoom="4.6444444"
     inkscape:cx="132.0933"
     inkscape:cy="90"
     inkscape:document-units="px"
     inkscape:current-layer="layer1"
     showgrid="true"
     inkscape:window-width="1920"
     inkscape:window-height="1017"
     inkscape:window-x="-8"
     inkscape:window-y="-8"
     inkscape:window-maximized="1"
     units="px"
     showguides="true"
     inkscape:guide-bbox="true"
     inkscape:snap-to-guides="true">
    <inkscape:grid
       type="xygrid"
       id="grid29"
       spacingx="10"
       spacingy="10" />
    <sodipodi:guide
       position="135,90"
       orientation="0,1"
       id="guide838"
       inkscape:locked="true"
       inkscape:label=""
       inkscape:color="rgb(0,0,255)" />
    <sodipodi:guide
       position="135,90"
       orientation="1,0"
       id="guide842"
       inkscape:locked="true"
       inkscape:label=""
       inkscape:color="rgb(0,0,255)" />
  </sodipodi:namedview>
  <metadata
     id="metadata22">
    <rdf:RDF>
      <cc:Work
         rdf:about="">
        <dc:format>image/svg+xml</dc:format>
        <dc:type
           rdf:resource="http://purl.org/dc/dcmitype/StillImage" />
        <dc:title>欧盟盟旗</dc:title>
      </cc:Work>
    </rdf:RDF>
  </metadata>
  <g
     inkscape:label="Layer 1"
     inkscape:groupmode="layer"
     id="layer1"
     transform="translate(0,-249.37498)">
    <rect
       style="fill:#003399;fill-rule:evenodd;fill-opacity:1;opacity:1"
       id="rect31"
       width="270"
       height="180"
       x="0"
       y="249.37498" />
    <path
       inkscape:transform-center-y="-0.95491503"
       d="m 135,269.37497 2.24534,6.90955 7.26523,2.8e-4 -5.87753,4.27061 2.24481,6.90973 -5.87785,-4.27017 -5.87785,4.27017 2.24481,-6.90973 -5.87753,-4.27061 7.26523,-2.8e-4 z"
       inkscape:randomized="0"
       inkscape:rounded="0"
       inkscape:flatsided="false"
       sodipodi:arg2="-0.9424778"
       sodipodi:arg1="-1.5707963"
       sodipodi:r2="3.8199999"
       sodipodi:r1="10"
       sodipodi:cy="279.37497"
       sodipodi:cx="135"
       sodipodi:sides="5"
       id="use866"
       style="opacity:1;fill:#ffcc00;fill-opacity:1"
       sodipodi:type="star" />
    <path
       inkscape:transform-center-y="-0.95491503"
       d="m 135,389.37497 2.24534,6.90955 7.26523,2.8e-4 -5.87753,4.27061 2.24481,6.90973 -5.87785,-4.27017 -5.87785,4.27017 2.24481,-6.90973 -5.87753,-4.27061 7.26523,-2.8e-4 z"
       inkscape:randomized="0"
       inkscape:rounded="0"
       inkscape:flatsided="false"
       sodipodi:arg2="-0.9424778"
       sodipodi:arg1="-1.5707963"
       sodipodi:r2="3.8199999"
       sodipodi:r1="10"
       sodipodi:cy="399.37497"
       sodipodi:cx="135"
       sodipodi:sides="5"
       id="use4572"
       style="opacity:1;fill:#ffcc00;fill-opacity:1"
       sodipodi:type="star" />
    <path
       inkscape:transform-center-y="-0.95491503"
       d="m 195,329.37497 2.24534,6.90955 7.26523,2.8e-4 -5.87753,4.27061 2.24481,6.90973 -5.87785,-4.27017 -5.87785,4.27017 2.24481,-6.90973 -5.87753,-4.27061 7.26523,-2.8e-4 z"
       inkscape:randomized="0"
       inkscape:rounded="0"
       inkscape:flatsided="false"
       sodipodi:arg2="-0.9424778"
       sodipodi:arg1="-1.5707963"
       sodipodi:r2="3.8199999"
       sodipodi:r1="10"
       sodipodi:cy="339.37497"
       sodipodi:cx="195"
       sodipodi:sides="5"
       id="use4574"
       style="opacity:1;fill:#ffcc00;fill-opacity:1"
       sodipodi:type="star" />
    <path
       inkscape:transform-center-y="-0.95491503"
       d="m 75,329.37497 2.24534,6.90955 7.265225,2.8e-4 -5.877529,4.27061 2.244816,6.90973 L 75,343.19497 l -5.877853,4.27017 2.244817,-6.90973 -5.877529,-4.27061 7.265225,-2.8e-4 z"
       inkscape:randomized="0"
       inkscape:rounded="0"
       inkscape:flatsided="false"
       sodipodi:arg2="-0.9424778"
       sodipodi:arg1="-1.5707963"
       sodipodi:r2="3.8199999"
       sodipodi:r1="10"
       sodipodi:cy="339.37497"
       sodipodi:cx="75"
       sodipodi:sides="5"
       id="use4576"
       style="opacity:1;fill:#ffcc00;fill-opacity:1"
       sodipodi:type="star" />
    <path
       inkscape:transform-center-y="-0.95491503"
       d="m 165,277.37497 2.24534,6.90955 7.26523,2.8e-4 -5.87753,4.27061 2.24481,6.90973 -5.87785,-4.27017 -5.87785,4.27017 2.24481,-6.90973 -5.87753,-4.27061 7.26523,-2.8e-4 z"
       inkscape:randomized="0"
       inkscape:rounded="0"
       inkscape:flatsided="false"
       sodipodi:arg2="-0.9424778"
       sodipodi:arg1="-1.5707963"
       sodipodi:r2="3.8199999"
       sodipodi:r1="10"
       sodipodi:cy="287.37497"
       sodipodi:cx="165"
       sodipodi:sides="5"
       id="use4578"
       style="opacity:1;fill:#ffcc00;fill-opacity:1"
       sodipodi:type="star" />
    <path
       inkscape:transform-center-y="-0.95491503"
       d="m 165,381.37497 2.24534,6.90955 7.26523,2.8e-4 -5.87753,4.27061 2.24481,6.90973 -5.87785,-4.27017 -5.87785,4.27017 2.24481,-6.90973 -5.87753,-4.27061 7.26523,-2.8e-4 z"
       inkscape:randomized="0"
       inkscape:rounded="0"
       inkscape:flatsided="false"
       sodipodi:arg2="-0.9424778"
       sodipodi:arg1="-1.5707963"
       sodipodi:r2="3.8199999"
       sodipodi:r1="10"
       sodipodi:cy="391.37497"
       sodipodi:cx="165"
       sodipodi:sides="5"
       id="use4580"
       style="opacity:1;fill:#ffcc00;fill-opacity:1"
       sodipodi:type="star" />
    <path
       inkscape:transform-center-y="-0.95491503"
       d="m 105,381.37497 2.24534,6.90955 7.26523,2.8e-4 -5.87753,4.27061 2.24481,6.90973 -5.87785,-4.27017 -5.877853,4.27017 2.244813,-6.90973 -5.877525,-4.27061 7.265225,-2.8e-4 z"
       inkscape:randomized="0"
       inkscape:rounded="0"
       inkscape:flatsided="false"
       sodipodi:arg2="-0.9424778"
       sodipodi:arg1="-1.5707963"
       sodipodi:r2="3.8199999"
       sodipodi:r1="10"
       sodipodi:cy="391.37497"
       sodipodi:cx="105"
       sodipodi:sides="5"
       id="use4582"
       style="opacity:1;fill:#ffcc00;fill-opacity:1"
       sodipodi:type="star" />
    <path
       inkscape:transform-center-y="-0.95491503"
       d="m 105,277.37497 2.24534,6.90955 7.26523,2.8e-4 -5.87753,4.27061 2.24481,6.90973 -5.87785,-4.27017 -5.877853,4.27017 2.244813,-6.90973 -5.877525,-4.27061 7.265225,-2.8e-4 z"
       inkscape:randomized="0"
       inkscape:rounded="0"
       inkscape:flatsided="false"
       sodipodi:arg2="-0.9424778"
       sodipodi:arg1="-1.5707963"
       sodipodi:r2="3.8199999"
       sodipodi:r1="10"
       sodipodi:cy="287.37497"
       sodipodi:cx="105"
       sodipodi:sides="5"
       id="use4584"
       style="opacity:1;fill:#ffcc00;fill-opacity:1"
       sodipodi:type="star" />
    <path
       inkscape:transform-center-y="-0.95491503"
       d="m 187,299.37497 2.24534,6.90955 7.26523,2.8e-4 -5.87753,4.27061 2.24481,6.90973 -5.87785,-4.27017 -5.87785,4.27017 2.24481,-6.90973 -5.87753,-4.27061 7.26523,-2.8e-4 z"
       inkscape:randomized="0"
       inkscape:rounded="0"
       inkscape:flatsided="false"
       sodipodi:arg2="-0.9424778"
       sodipodi:arg1="-1.5707963"
       sodipodi:r2="3.8199999"
       sodipodi:r1="10"
       sodipodi:cy="309.37497"
       sodipodi:cx="187"
       sodipodi:sides="5"
       id="use4586"
       style="opacity:1;fill:#ffcc00;fill-opacity:1"
       sodipodi:type="star" />
    <path
       inkscape:transform-center-y="-0.95491503"
       d="m 187,359.37497 2.24534,6.90955 7.26523,2.8e-4 -5.87753,4.27061 2.24481,6.90973 -5.87785,-4.27017 -5.87785,4.27017 2.24481,-6.90973 -5.87753,-4.27061 7.26523,-2.8e-4 z"
       inkscape:randomized="0"
       inkscape:rounded="0"
       inkscape:flatsided="false"
       sodipodi:arg2="-0.9424778"
       sodipodi:arg1="-1.5707963"
       sodipodi:r2="3.8199999"
       sodipodi:r1="10"
       sodipodi:cy="369.37497"
       sodipodi:cx="187"
       sodipodi:sides="5"
       id="use4588"
       style="opacity:1;fill:#ffcc00;fill-opacity:1"
       sodipodi:type="star" />
    <path
       inkscape:transform-center-y="-0.95491503"
       d="m 83,359.37497 2.24534,6.90955 7.265225,2.8e-4 -5.877529,4.27061 2.244816,6.90973 L 83,373.19497 l -5.877853,4.27017 2.244817,-6.90973 -5.877529,-4.27061 7.265225,-2.8e-4 z"
       inkscape:randomized="0"
       inkscape:rounded="0"
       inkscape:flatsided="false"
       sodipodi:arg2="-0.9424778"
       sodipodi:arg1="-1.5707963"
       sodipodi:r2="3.8199999"
       sodipodi:r1="10"
       sodipodi:cy="369.37497"
       sodipodi:cx="83"
       sodipodi:sides="5"
       id="use4590"
       style="opacity:1;fill:#ffcc00;fill-opacity:1"
       sodipodi:type="star" />
    <path
       inkscape:transform-center-y="-0.95491503"
       d="m 83,299.37497 2.24534,6.90955 7.265225,2.8e-4 -5.877529,4.27061 2.244816,6.90973 L 83,313.19497 l -5.877853,4.27017 2.244817,-6.90973 -5.877529,-4.27061 7.265225,-2.8e-4 z"
       inkscape:randomized="0"
       inkscape:rounded="0"
       inkscape:flatsided="false"
       sodipodi:arg2="-0.9424778"
       sodipodi:arg1="-1.5707963"
       sodipodi:r2="3.8199999"
       sodipodi:r1="10"
       sodipodi:cy="309.37497"
       sodipodi:cx="83"
       sodipodi:sides="5"
       id="use4592"
       style="opacity:1;fill:#ffcc00;fill-opacity:1"
       sodipodi:type="star" />
  </g>
</svg>
