<?xml version="1.0" encoding="UTF-8" standalone="no"?>
<!-- Created with Inkscape (http://www.inkscape.org/) -->

<svg
   xmlns:dc="http://purl.org/dc/elements/1.1/"
   xmlns:cc="http://creativecommons.org/ns#"
   xmlns:rdf="http://www.w3.org/1999/02/22-rdf-syntax-ns#"
   xmlns:svg="http://www.w3.org/2000/svg"
   xmlns="http://www.w3.org/2000/svg"
   xmlns:sodipodi="http://sodipodi.sourceforge.net/DTD/sodipodi-0.dtd"
   xmlns:inkscape="http://www.inkscape.org/namespaces/inkscape"
   width="500"
   height="300"
   viewBox="0 0 500 300"
   version="1.1"
   id="svg5301"
   inkscape:version="0.92.4 (5da689c313, 2019-01-14)"
   sodipodi:docname="Hiking Club Logo.svg"
   inkscape:export-filename="X:\inkscape_ws\Inkscape\Inkscape Guide\Chapter 1. Quick Start\Hiking Club Logo.png"
   inkscape:export-xdpi="96"
   inkscape:export-ydpi="96">
  <title
     id="title5313">登山俱乐部标识</title>
  <defs
     id="defs5295">
    <inkscape:path-effect
       effect="simplify"
       id="path-effect1281"
       is_visible="true"
       steps="1"
       threshold="0.00425861"
       smooth_angles="360"
       helper_size="0"
       simplify_individual_paths="false"
       simplify_just_coalesce="false"
       simplifyindividualpaths="false"
       simplifyJustCoalesce="false" />
    <inkscape:path-effect
       effect="bspline"
       id="path-effect374"
       is_visible="true"
       weight="33.333333"
       steps="2"
       helper_size="0"
       apply_no_weight="true"
       apply_with_weight="true"
       only_selected="false" />
    <inkscape:path-effect
       effect="simplify"
       id="path-effect372"
       is_visible="true"
       steps="1"
       threshold="0.00425861"
       smooth_angles="360"
       helper_size="0"
       simplify_individual_paths="false"
       simplify_just_coalesce="false"
       simplifyindividualpaths="false"
       simplifyJustCoalesce="false" />
    <inkscape:path-effect
       effect="bspline"
       id="path-effect368"
       is_visible="true"
       weight="33.333333"
       steps="2"
       helper_size="0"
       apply_no_weight="true"
       apply_with_weight="true"
       only_selected="false" />
    <inkscape:path-effect
       effect="simplify"
       id="path-effect366"
       is_visible="true"
       steps="1"
       threshold="0.00425861"
       smooth_angles="360"
       helper_size="0"
       simplify_individual_paths="false"
       simplify_just_coalesce="false"
       simplifyindividualpaths="false"
       simplifyJustCoalesce="false" />
    <inkscape:path-effect
       effect="bspline"
       id="path-effect362"
       is_visible="true"
       weight="33.333333"
       steps="2"
       helper_size="0"
       apply_no_weight="true"
       apply_with_weight="true"
       only_selected="false" />
    <inkscape:path-effect
       effect="simplify"
       id="path-effect360"
       is_visible="true"
       steps="1"
       threshold="0.00425861"
       smooth_angles="360"
       helper_size="0"
       simplify_individual_paths="false"
       simplify_just_coalesce="false"
       simplifyindividualpaths="false"
       simplifyJustCoalesce="false" />
    <inkscape:path-effect
       effect="simplify"
       id="path-effect326"
       is_visible="true"
       steps="1"
       threshold="0.00425861"
       smooth_angles="360"
       helper_size="0"
       simplify_individual_paths="false"
       simplify_just_coalesce="false"
       simplifyindividualpaths="false"
       simplifyJustCoalesce="false" />
    <inkscape:path-effect
       effect="simplify"
       id="path-effect216"
       is_visible="true"
       steps="1"
       threshold="0.00425861"
       smooth_angles="360"
       helper_size="0"
       simplify_individual_paths="false"
       simplify_just_coalesce="false"
       simplifyindividualpaths="false"
       simplifyJustCoalesce="false" />
    <inkscape:path-effect
       effect="simplify"
       id="path-effect206"
       is_visible="true"
       steps="1"
       threshold="0.00425861"
       smooth_angles="360"
       helper_size="0"
       simplify_individual_paths="false"
       simplify_just_coalesce="false"
       simplifyindividualpaths="false"
       simplifyJustCoalesce="false" />
  </defs>
  <sodipodi:namedview
     id="base"
     pagecolor="#ffffff"
     bordercolor="#666666"
     borderopacity="1.0"
     inkscape:pageopacity="0.0"
     inkscape:pageshadow="2"
     inkscape:zoom="1.2350798"
     inkscape:cx="258.43947"
     inkscape:cy="137.84653"
     inkscape:document-units="px"
     inkscape:current-layer="layer1"
     showgrid="true"
     units="px"
     inkscape:window-width="1366"
     inkscape:window-height="705"
     inkscape:window-x="-8"
     inkscape:window-y="-8"
     inkscape:window-maximized="1"
     inkscape:snap-global="false" />
  <metadata
     id="metadata5298">
    <rdf:RDF>
      <cc:Work
         rdf:about="">
        <dc:format>image/svg+xml</dc:format>
        <dc:type
           rdf:resource="http://purl.org/dc/dcmitype/StillImage" />
        <dc:title>登山俱乐部标识</dc:title>
      </cc:Work>
    </rdf:RDF>
  </metadata>
  <g
     inkscape:label="Layer 1"
     inkscape:groupmode="layer"
     id="layer1"
     transform="translate(0,-217.62498)">
    <text
       xml:space="preserve"
       style="font-style:normal;font-weight:normal;font-size:40px;line-height:1.25;font-family:sans-serif;letter-spacing:0px;word-spacing:0px;fill:#000000;fill-opacity:1;stroke:none"
       x="240.07178"
       y="348.96469"
       id="text21"><tspan
         sodipodi:role="line"
         id="tspan19"
         x="240.07178"
         y="385.45789" /></text>
    <flowRoot
       xml:space="preserve"
       id="flowRoot38"
       style="fill:black;fill-opacity:1;stroke:none;font-family:sans-serif;font-style:normal;font-weight:normal;font-size:40px;line-height:1.25;letter-spacing:0px;word-spacing:0px"><flowRegion
         id="flowRegion40"><rect
           id="rect42"
           width="462.5954"
           height="140.83969"
           x="18.32061"
           y="128.8168" /></flowRegion><flowPara
         id="flowPara44" /></flowRoot>    <path
       style="opacity:1;vector-effect:none;fill:#000000;fill-opacity:1;fill-rule:evenodd;stroke:#000000;stroke-width:3;stroke-linecap:butt;stroke-linejoin:miter;stroke-miterlimit:4;stroke-dasharray:none;stroke-dashoffset:0;stroke-opacity:1"
       d="M 207.12305 107.67383 C 206.47724 107.66548 205.92814 107.81404 205.53516 108.20703 C 201.3543 112.38788 191.00221 118.28853 180.28906 124.08594 L 180.28906 183.78516 L 183.38281 183.78516 C 186.05468 183.78516 188.1875 184.25391 189.78125 185.19141 C 191.375 186.08203 192.42968 187.13672 192.94531 188.35547 C 193.46094 189.57422 193.71875 192.62109 193.71875 197.49609 L 193.71875 224.49609 L 160.03906 224.49609 L 160.03906 197.49609 C 160.03906 192.71484 160.29687 189.76172 160.8125 188.63672 C 161.51563 187.04297 162.47656 185.91797 163.69531 185.26172 C 165.38281 184.27735 167.60937 183.78516 170.375 183.78516 L 173.53906 183.78516 L 173.53906 127.7207 C 167.31277 131.04643 161.34533 134.21995 156.87109 136.83203 C 146.86665 142.09095 136.11465 146.96861 123.6875 151.63477 L 123.6875 183.78516 L 126.85156 183.78516 C 129.52343 183.78516 131.63281 184.25391 133.17969 185.19141 C 134.77344 186.08203 135.82812 187.13672 136.34375 188.35547 C 136.85938 189.57422 137.11719 192.62109 137.11719 197.49609 L 137.11719 260.21484 C 137.11719 264.99609 136.85938 267.94922 136.34375 269.07422 C 135.6875 270.66797 134.75 271.79297 133.53125 272.44922 C 131.84375 273.43359 129.61719 273.92578 126.85156 273.92578 L 123.6875 273.92578 L 123.6875 276.52734 L 173.53906 276.52734 L 173.53906 273.92578 L 170.375 273.92578 C 167.70313 273.92578 165.57031 273.48047 163.97656 272.58984 C 162.42969 271.65234 161.375 270.57422 160.8125 269.35547 C 160.29687 268.13672 160.03906 265.08984 160.03906 260.21484 L 160.03906 230.68359 L 193.71875 230.68359 L 193.71875 260.21484 C 193.71875 264.99609 193.46094 267.94922 192.94531 269.07422 C 192.24218 270.66797 191.28125 271.79297 190.0625 272.44922 C 188.42187 273.43359 186.19531 273.92578 183.38281 273.92578 L 180.28906 273.92578 L 180.28906 276.52734 L 230.07031 276.52734 L 230.07031 273.92578 L 226.97656 273.92578 C 224.30469 273.92578 222.17188 273.48047 220.57812 272.58984 C 218.98437 271.65234 217.92969 270.57422 217.41406 269.35547 C 216.89843 268.13672 216.64062 265.08984 216.64062 260.21484 L 216.64062 197.49609 C 216.64062 192.71484 216.89843 189.76172 217.41406 188.63672 C 218.11719 187.04297 219.07812 185.91797 220.29688 185.26172 C 221.9375 184.27735 224.16406 183.78516 226.97656 183.78516 L 230.07031 183.78516 L 230.07031 108.36328 C 229.6519 108.36759 229.27216 108.3392 229.00781 108.20703 C 227.3047 107.35547 222.21537 117.28901 215.83984 109.35156 C 214.51148 110.67993 209.92153 107.70998 207.12305 107.67383 z M 235.48438 107.97852 L 235.48438 183.78516 L 238.50781 183.78516 C 241.17968 183.78516 243.3125 184.25391 244.90625 185.19141 C 246.5 186.08203 247.55468 187.13672 248.07031 188.35547 C 248.58594 189.52734 248.84375 192.52734 248.84375 197.35547 L 248.84375 257.68359 C 248.84375 261.94922 248.79683 264.33984 248.70312 264.85547 C 248.1875 267.0586 247.46094 268.76953 246.52344 269.98828 C 245.58594 271.20703 244.20313 272.19141 242.375 272.94141 C 240.54687 273.64452 238.57812 273.97268 236.46875 273.92578 L 235.48438 273.92578 L 235.48438 276.52734 L 268.10938 276.52734 L 268.10938 273.92578 C 263.75 273.92578 260.53906 273.19922 258.47656 271.74609 C 256.46093 270.24609 255.14843 268.32422 254.53906 265.98047 C 254.30469 264.90234 254.1875 262.01953 254.1875 257.33203 L 254.1875 190.18359 L 291.3125 276.52734 L 293 276.52734 L 329.5625 189.55078 L 329.5625 260.21484 C 329.5625 264.99609 329.30469 267.94922 328.78906 269.07422 C 328.08593 270.66797 327.14843 271.79297 325.97656 272.44922 C 324.28906 273.43359 322.03906 273.92578 319.22656 273.92578 L 316.13281 273.92578 L 316.13281 276.52734 L 365.91406 276.52734 L 365.91406 273.92578 L 362.82031 273.92578 C 360.14844 273.92578 358.01562 273.48047 356.42188 272.58984 C 354.82813 271.65234 353.77344 270.57422 353.25781 269.35547 C 352.74218 268.13672 352.48438 265.08984 352.48438 260.21484 L 352.48438 197.35547 C 352.48438 192.6211 352.74218 189.69141 353.25781 188.56641 C 353.96094 187.01953 354.89844 185.91797 356.07031 185.26172 C 357.75781 184.27735 360.00781 183.78516 362.82031 183.78516 L 365.91406 183.78516 L 365.91406 168.30664 C 358.01325 167.88201 344.22291 164.23737 327.22266 157.83203 L 327.10156 181.18359 L 301.22656 244.04297 L 274.4375 181.18359 L 274.43359 134.01367 C 260.65991 125.91464 256.0321 120.63784 245.61133 116.2207 C 241.64723 114.54041 238.76583 111.09591 235.87695 108.20703 C 235.7746 108.10468 235.63742 108.0347 235.48438 107.97852 z M 277.06055 135.5293 L 277.06055 180.66797 L 324.65625 180.66797 L 324.65625 156.85352 C 323.69481 156.48258 322.73575 156.11234 321.75586 155.72461 C 305.85319 149.96505 296.73893 145.86354 279.38867 136.83203 C 278.57518 136.38719 277.81999 135.95864 277.06055 135.5293 z M 116.30469 154.30469 C 114.94999 154.77874 113.60882 155.2543 112.21289 155.72461 C 98.478794 164.16556 65.86715 175.28739 37.212891 177.48047 C 36.918221 177.73985 36.43664 177.98301 35.867188 178.2168 L 35.867188 183.78516 L 39.03125 183.78516 C 41.703125 183.78516 43.8125 184.25391 45.359375 185.19141 C 46.953125 186.08203 48.007812 187.13672 48.523438 188.35547 C 49.039062 189.57422 49.296875 192.62109 49.296875 197.49609 L 49.296875 260.21484 C 49.296875 264.99609 49.039062 267.94922 48.523438 269.07422 C 47.867188 270.66797 46.929688 271.79297 45.710938 272.44922 C 44.023438 273.43359 41.796875 273.92578 39.03125 273.92578 L 35.867188 273.92578 L 35.867188 276.52734 L 85.71875 276.52734 L 85.71875 273.92578 L 82.554688 273.92578 C 79.882812 273.92578 77.75 273.48047 76.15625 272.58984 C 74.609375 271.65234 73.554688 270.57422 72.992188 269.35547 C 72.476562 268.13672 72.21875 265.08984 72.21875 260.21484 L 72.21875 231.03516 L 74.960938 231.03516 C 79.976563 231.03516 84.453125 232.48828 88.390625 235.39453 C 92.375 238.2539 94.8125 244.20703 95.703125 253.25391 L 98.164062 253.25391 L 98.164062 205.37109 L 95.703125 205.37109 C 95.140625 210.48047 93.921875 214.53516 92.046875 217.53516 C 90.21875 220.53516 87.96875 222.66797 85.296875 223.93359 C 82.625 225.19922 79.179688 225.83203 74.960938 225.83203 L 72.21875 225.83203 L 72.21875 186.66797 L 81.078125 186.66797 C 88.671875 186.66797 93.875 187.01953 96.6875 187.72266 C 101.79687 188.98828 105.68751 191.16797 108.35938 194.26172 C 111.07812 197.35547 112.76562 202.11328 113.42188 208.53516 L 116.30469 208.53516 L 116.30469 154.30469 z M 374.18945 168.88477 L 374.14062 230.61328 C 374.14063 230.61328 376.27343 247.37109 380.53906 255.01172 C 384.85156 262.65235 390.94531 268.51172 398.82031 272.58984 C 406.74218 276.66797 415.78906 278.70703 425.96094 278.70703 C 433.69531 278.70703 440.44531 277.46484 446.21094 274.98047 C 452.02344 272.44922 457.60156 268.39453 462.94531 262.81641 L 462.94531 254.58984 C 457.41406 261.01172 452.14063 265.53516 447.125 268.16016 C 442.15625 270.78516 436.67188 272.09766 430.67188 272.09766 C 423.35937 272.09766 417.40625 270.31641 412.8125 266.75391 C 408.21875 263.14453 404.84375 257.84765 402.6875 250.86328 C 400.53125 243.83203 399.45312 236.05078 399.45312 227.51953 C 399.45313 218.84766 400.92968 210.97266 403.88281 203.89453 C 406.17968 198.36328 409.8125 193.88672 414.78125 190.46484 C 419.75 187.04297 425.21093 185.33203 431.16406 185.33203 C 438.28906 185.33203 444.66406 187.62891 450.28906 192.22266 C 455.91406 196.81641 459.75781 203.42578 461.82031 212.05078 L 464.5625 212.05078 L 464.5625 186.5293 C 460.32008 183.80169 448.04001 181.54376 443.8457 180.34375 C 437.07457 178.40649 436.77783 181.70683 431.55078 180.41797 C 426.32372 179.12912 420.60348 177.25839 416.43945 176.42969 C 408.11138 174.77228 401.42711 173.84665 394.46484 172.90039 C 390.62238 172.37815 380.81859 169.99518 374.18945 168.88477 z "
       transform="translate(0,217.62498)"
       id="rect4660" />
    <path
       style="opacity:1;vector-effect:none;fill:#ffffff;fill-opacity:1;fill-rule:evenodd;stroke:#000000;stroke-width:3;stroke-linecap:butt;stroke-linejoin:miter;stroke-miterlimit:4;stroke-dasharray:none;stroke-dashoffset:0;stroke-opacity:1"
       d="M 207.12305 107.67383 C 206.47724 107.66548 205.92814 107.81404 205.53516 108.20703 C 201.3543 112.38788 191.00221 118.28853 180.28906 124.08594 L 180.28906 144.92773 C 183.97953 142.33173 188.66336 136.43625 189.05664 136.04297 C 199.71978 125.37983 190.95995 140.49609 199.17773 140.49609 C 200.68904 140.49609 202.91842 139.99369 203.63086 139.28125 C 206.62506 136.28704 215.02774 123.72676 221.03906 126.73242 C 225.30186 128.86382 227.58999 132.30379 230.07031 135.42383 L 230.07031 123.59375 C 228.13901 122.22627 226.30078 120.89295 226.30078 120.66016 C 226.30078 119.06152 227.90103 120.73278 230.07031 123.48047 L 230.07031 108.36328 C 229.6519 108.36759 229.27216 108.3392 229.00781 108.20703 C 227.3047 107.35547 222.21537 117.28901 215.83984 109.35156 C 214.51148 110.67993 209.92153 107.70998 207.12305 107.67383 z M 235.48438 107.97852 L 235.48438 144.51953 C 235.96376 145.09993 236.43012 145.34527 236.82617 144.94922 C 238.73108 143.04431 238.20212 137.06395 236.91992 132.38281 C 239.04097 134.98745 240.86986 136.85511 241.68555 136.44727 C 244.06018 135.25996 239.87678 121.87305 240.06641 121.87305 C 247.3367 121.87305 251.40721 141.70412 253.83008 139.28125 C 256.65202 136.4593 253.7653 130.24914 251.46289 126.48438 C 253.05645 128.15618 254.8311 129.75689 255.44922 130.375 C 261.37709 136.30287 267.96371 140.86606 272.45117 145.35352 C 273.09424 145.99659 273.76008 146.45785 274.43555 146.79102 L 274.43359 134.01367 C 260.65991 125.91464 256.0321 120.63784 245.61133 116.2207 C 241.64723 114.54041 238.76583 111.09591 235.87695 108.20703 C 235.7746 108.10468 235.63742 108.0347 235.48438 107.97852 z M 173.53906 127.7207 C 171.35325 128.88824 169.29516 129.99511 167.22656 131.10742 C 168.01659 131.15219 168.81342 131.18555 169.625 131.18555 C 167.01503 131.49858 158.22362 146.50292 159.50391 147.7832 C 160.78837 149.06767 168.15609 143.39979 173.53906 139.53516 L 173.53906 127.7207 z M 277.06055 135.5293 L 277.06055 147.39062 C 280.43911 147.33096 283.83176 144.31807 286.23047 140.34766 C 284.07526 139.25462 281.82764 138.10161 279.38867 136.83203 C 278.57518 136.38719 277.81999 135.95864 277.06055 135.5293 z "
       transform="translate(0,217.62498)"
       id="path4668" />
  </g>
</svg>
