<?xml version="1.0" encoding="UTF-8" standalone="no"?>
<!-- Created with Inkscape (http://www.inkscape.org/) -->

<svg
   xmlns:dc="http://purl.org/dc/elements/1.1/"
   xmlns:cc="http://creativecommons.org/ns#"
   xmlns:rdf="http://www.w3.org/1999/02/22-rdf-syntax-ns#"
   xmlns:svg="http://www.w3.org/2000/svg"
   xmlns="http://www.w3.org/2000/svg"
   xmlns:xlink="http://www.w3.org/1999/xlink"
   xmlns:sodipodi="http://sodipodi.sourceforge.net/DTD/sodipodi-0.dtd"
   xmlns:inkscape="http://www.inkscape.org/namespaces/inkscape"
   width="500"
   height="300"
   viewBox="0 0 500 300"
   version="1.1"
   id="svg5301"
   inkscape:version="0.92.4 (5da689c313, 2019-01-14)"
   sodipodi:docname="Hiking Club Logo.svg">
  <title
     id="title5313">登山俱乐部标识</title>
  <defs
     id="defs5295">
    <inkscape:path-effect
       effect="simplify"
       id="path-effect1281"
       is_visible="true"
       steps="1"
       threshold="0.00425861"
       smooth_angles="360"
       helper_size="0"
       simplify_individual_paths="false"
       simplify_just_coalesce="false"
       simplifyindividualpaths="false"
       simplifyJustCoalesce="false" />
    <inkscape:path-effect
       effect="bspline"
       id="path-effect374"
       is_visible="true"
       weight="33.333333"
       steps="2"
       helper_size="0"
       apply_no_weight="true"
       apply_with_weight="true"
       only_selected="false" />
    <inkscape:path-effect
       effect="simplify"
       id="path-effect372"
       is_visible="true"
       steps="1"
       threshold="0.00425861"
       smooth_angles="360"
       helper_size="0"
       simplify_individual_paths="false"
       simplify_just_coalesce="false"
       simplifyindividualpaths="false"
       simplifyJustCoalesce="false" />
    <inkscape:path-effect
       effect="bspline"
       id="path-effect368"
       is_visible="true"
       weight="33.333333"
       steps="2"
       helper_size="0"
       apply_no_weight="true"
       apply_with_weight="true"
       only_selected="false" />
    <inkscape:path-effect
       effect="simplify"
       id="path-effect366"
       is_visible="true"
       steps="1"
       threshold="0.00425861"
       smooth_angles="360"
       helper_size="0"
       simplify_individual_paths="false"
       simplify_just_coalesce="false"
       simplifyindividualpaths="false"
       simplifyJustCoalesce="false" />
    <inkscape:path-effect
       effect="bspline"
       id="path-effect362"
       is_visible="true"
       weight="33.333333"
       steps="2"
       helper_size="0"
       apply_no_weight="true"
       apply_with_weight="true"
       only_selected="false" />
    <inkscape:path-effect
       effect="simplify"
       id="path-effect360"
       is_visible="true"
       steps="1"
       threshold="0.00425861"
       smooth_angles="360"
       helper_size="0"
       simplify_individual_paths="false"
       simplify_just_coalesce="false"
       simplifyindividualpaths="false"
       simplifyJustCoalesce="false" />
    <inkscape:path-effect
       effect="simplify"
       id="path-effect326"
       is_visible="true"
       steps="1"
       threshold="0.00425861"
       smooth_angles="360"
       helper_size="0"
       simplify_individual_paths="false"
       simplify_just_coalesce="false"
       simplifyindividualpaths="false"
       simplifyJustCoalesce="false" />
    <inkscape:path-effect
       effect="simplify"
       id="path-effect216"
       is_visible="true"
       steps="1"
       threshold="0.00425861"
       smooth_angles="360"
       helper_size="0"
       simplify_individual_paths="false"
       simplify_just_coalesce="false"
       simplifyindividualpaths="false"
       simplifyJustCoalesce="false" />
    <inkscape:path-effect
       effect="simplify"
       id="path-effect206"
       is_visible="true"
       steps="1"
       threshold="0.00425861"
       smooth_angles="360"
       helper_size="0"
       simplify_individual_paths="false"
       simplify_just_coalesce="false"
       simplifyindividualpaths="false"
       simplifyJustCoalesce="false" />
  </defs>
  <sodipodi:namedview
     id="base"
     pagecolor="#ffffff"
     bordercolor="#666666"
     borderopacity="1.0"
     inkscape:pageopacity="0.0"
     inkscape:pageshadow="2"
     inkscape:zoom="3.9409418"
     inkscape:cx="184.18434"
     inkscape:cy="102.17843"
     inkscape:document-units="px"
     inkscape:current-layer="layer1"
     showgrid="true"
     units="px"
     inkscape:window-width="1920"
     inkscape:window-height="1017"
     inkscape:window-x="-8"
     inkscape:window-y="-8"
     inkscape:window-maximized="1"
     inkscape:snap-global="false" />
  <metadata
     id="metadata5298">
    <rdf:RDF>
      <cc:Work
         rdf:about="">
        <dc:format>image/svg+xml</dc:format>
        <dc:type
           rdf:resource="http://purl.org/dc/dcmitype/StillImage" />
        <dc:title>登山俱乐部标识</dc:title>
      </cc:Work>
    </rdf:RDF>
  </metadata>
  <g
     inkscape:label="Layer 1"
     inkscape:groupmode="layer"
     id="layer1"
     transform="translate(0,-217.62498)">
    <g
       aria-label="FHMC "
       style="font-style:normal;font-variant:normal;font-weight:bold;font-stretch:normal;font-size:144px;line-height:1.25;font-family:'Nimbus Roman No9 L';-inkscape-font-specification:'Nimbus Roman No9 L Bold';letter-spacing:0px;word-spacing:0px;fill:#000000;fill-opacity:1;stroke:none"
       id="text5307">
      <path
         id="rect54"
         transform="translate(0,217.62498)"
         style="fill:none;fill-rule:evenodd;stroke:#000000"
         d="m 214.99805,103.09375 c -3.05288,-0.0556 -6.1783,0.24455 -9.39453,0.97656 -8.76057,1.9939 -15.14597,9.16137 -23.33399,14.02149 -1.77435,1.05319 -3.6435,1.98482 -5.54687,2.86914 v 58.66601 h 3.09375 c 2.67188,0 4.80468,0.46875 6.39843,1.40625 1.59375,0.89063 2.64845,1.94532 3.16407,3.16407 0.51563,1.21875 0.77343,4.26562 0.77343,9.14062 v 27 h -33.67968 v -27 c 0,-4.78125 0.2578,-7.73437 0.77343,-8.85937 0.70313,-1.59375 1.66407,-2.71875 2.88282,-3.375 1.6875,-0.98437 3.91405,-1.47657 6.67968,-1.47657 h 3.16407 v -55.74023 c -4.78639,1.98132 -9.55873,3.93564 -13.72657,6.5625 -11.8754,7.48471 -23.49207,13.47033 -36.125,17.53906 v 31.63867 h 3.16407 c 2.67188,0 4.78125,0.46875 6.32812,1.40625 1.59375,0.89063 2.64843,1.94532 3.16406,3.16407 0.51563,1.21875 0.77344,4.26562 0.77344,9.14062 v 62.71875 c 0,4.78125 -0.25781,7.73438 -0.77344,8.85938 -0.65625,1.59375 -1.59375,2.71875 -2.8125,3.375 -1.6875,0.98438 -3.91405,1.47656 -6.67968,1.47656 h -3.16407 v 2.60156 h 49.85157 v -2.60156 h -3.16407 c -2.67187,0 -4.80468,-0.44531 -6.39843,-1.33594 -1.54687,-0.9375 -2.60157,-2.01562 -3.16407,-3.23437 -0.51563,-1.21875 -0.77343,-4.26563 -0.77343,-9.14063 v -29.53125 h 33.67968 v 29.53125 c 0,4.78125 -0.2578,7.73438 -0.77343,8.85938 -0.70312,1.59375 -1.66407,2.71875 -2.88282,3.375 -1.64063,0.98438 -3.86718,1.47656 -6.67968,1.47656 h -3.09375 v 2.60156 h 49.78125 v -2.60156 h -3.09375 c -2.67187,0 -4.80469,-0.44531 -6.39844,-1.33594 -1.59375,-0.9375 -2.64843,-2.01562 -3.16406,-3.23437 -0.51562,-1.21875 -0.77344,-4.26563 -0.77344,-9.14063 v -62.71875 c 0,-4.78125 0.25782,-7.73437 0.77344,-8.85937 0.70313,-1.59375 1.66406,-2.71875 2.88281,-3.375 1.64062,-0.98437 3.86719,-1.47657 6.67969,-1.47657 h 3.09375 v -74.6914 c -0.84366,-0.24743 -1.68921,-0.47998 -2.54102,-0.68164 -2.93018,-0.6937 -5.91197,-1.10454 -8.96484,-1.16016 z m 16.91992,3.73437 v 72.79883 h 3.02344 c 2.67188,0 4.80468,0.46875 6.39843,1.40625 1.59375,0.89063 2.64845,1.94532 3.16407,3.16407 0.51563,1.17188 0.77343,4.17188 0.77343,9 v 60.32812 c 0,4.26563 -0.0469,6.65626 -0.14062,7.17188 -0.51563,2.20313 -1.24219,3.91406 -2.17969,5.13281 -0.9375,1.21875 -2.32031,2.20312 -4.14844,2.95312 -1.82813,0.70312 -3.79688,1.03128 -5.90625,0.98438 h -0.98437 v 2.60156 h 32.625 v -2.60156 c -4.35938,0 -7.57031,-0.72656 -9.63281,-2.17969 -2.01562,-1.5 -3.32812,-3.42187 -3.9375,-5.76562 -0.23437,-1.07812 -0.35157,-3.96094 -0.35157,-8.64844 v -67.14844 l 37.125,86.34375 h 1.6875 l 36.5625,-86.97656 v 70.66406 c 0,4.78125 -0.2578,7.73438 -0.77343,8.85938 -0.70312,1.59375 -1.64062,2.71875 -2.8125,3.375 -1.6875,0.98438 -3.9375,1.47656 -6.75,1.47656 h -3.09375 v 2.60156 h 49.78125 v -2.60156 h -3.09375 c -2.67187,0 -4.80469,-0.44531 -6.39844,-1.33594 -1.59375,-0.9375 -2.64843,-2.01562 -3.16406,-3.23437 -0.51562,-1.21875 -0.77344,-4.26563 -0.77344,-9.14063 v -62.85937 c 0,-4.73437 0.25782,-7.66407 0.77344,-8.78907 0.70313,-1.54687 1.64063,-2.64843 2.8125,-3.30468 1.6875,-0.98437 3.9375,-1.47657 6.75,-1.47657 h 3.09375 v -15.62304 c -1.97342,-0.63176 -4.27275,-2.95335 -7.00586,-4.00391 -2.954,-1.13543 -6.4095,-0.76033 -8.46485,-1.16406 -7.8536,-1.54266 -15.62756,-3.37316 -23.3125,-5.96485 l -0.0293,24.1543 -25.875,62.85938 -26.78907,-62.85938 -0.0801,-48.34766 c -4.38178,-2.26097 -8.63564,-4.79241 -12.82227,-7.36718 -5.69196,-3.50055 -11.26343,-7.07103 -16.87695,-10.11328 -3.03647,-1.64561 -6.087,-3.12738 -9.17383,-4.36915 z m 44.0293,24.35352 v 45.84375 h 42.38476 v -26.04101 c -6.6199,-2.53869 -13.1715,-5.57978 -19.64453,-8.74024 -7.69389,-3.75653 -15.27731,-7.66489 -22.74023,-11.0625 z m -163.20899,18.92383 c -1.69629,0.43062 -3.40875,0.83692 -5.15039,1.19922 -9.04946,1.88247 -15.715871,6.2419 -23.865234,9.75 -8.149363,3.5081 -17.7818,6.16556 -26.669922,8.70117 -7.950618,2.26817 -16.143407,3.21548 -24.751953,4.10352 v 5.76757 h 3.164063 c 2.671875,0 4.78125,0.46875 6.328125,1.40625 1.59375,0.89063 2.648437,1.94532 3.164062,3.16407 0.515625,1.21875 0.773438,4.26562 0.773438,9.14062 v 62.71875 c 0,4.78125 -0.257813,7.73438 -0.773438,8.85938 -0.65625,1.59375 -1.59375,2.71875 -2.8125,3.375 -1.6875,0.98438 -3.914062,1.47656 -6.679687,1.47656 h -3.164063 v 2.60156 h 49.851563 v -2.60156 h -3.164063 c -2.671875,0 -4.804687,-0.44531 -6.398437,-1.33594 -1.546875,-0.9375 -2.601563,-2.01562 -3.164063,-3.23437 -0.515625,-1.21875 -0.773437,-4.26563 -0.773437,-9.14063 v -29.17969 h 2.742187 c 5.015625,0 9.492188,1.45313 13.429688,4.35938 3.984375,2.85937 6.421875,8.8125 7.3125,17.85937 h 2.460937 v -47.88281 h -2.460937 c -0.5625,5.10937 -1.78125,9.16406 -3.65625,12.16406 -1.828125,3 -4.078125,5.13281 -6.75,6.39844 -2.671875,1.26563 -6.117188,1.89844 -10.335938,1.89844 h -2.742187 v -39.16406 h 8.859375 c 7.59375,0 12.796875,0.35155 15.609375,1.05468 5.109372,1.26563 8.999996,3.44532 11.671876,6.53907 2.71875,3.09375 4.40625,7.85156 5.0625,14.27343 h 2.88281 z m 257.75391,13.06836 0.082,63.28125 c 0,0 2.13282,16.75782 6.39844,24.39844 4.3125,7.64063 10.40625,13.49999 18.28125,17.57812 7.92188,4.07813 16.96875,6.11719 27.14062,6.11719 7.73437,0 14.48437,-1.24218 20.25,-3.72656 5.8125,-2.53125 11.39063,-6.58594 16.73438,-12.16407 v -8.22656 c -5.53125,6.42187 -10.80469,10.94531 -15.82032,13.57031 -4.96875,2.625 -10.45312,3.9375 -16.45312,3.9375 -7.3125,0 -13.26563,-1.78125 -17.85938,-5.34375 -4.59375,-3.60937 -7.96875,-8.90625 -10.125,-15.89062 -2.15625,-7.03125 -3.23437,-14.8125 -3.23437,-23.34375 0,-8.67188 1.47657,-16.54688 4.42969,-23.625 2.29688,-5.53125 5.92968,-10.00782 10.89843,-13.42969 4.96875,-3.42187 10.66141,-5.25354 16.38282,-5.13281 6.77464,0.14296 13.5,2.29687 19.125,6.89062 5.625,4.59375 9.46875,11.20313 11.53125,19.82813 h 2.74218 v -26.45313 c -0.45589,-0.069 -0.81971,-0.12335 -1.29882,-0.1914 -4.19503,-0.59589 -15.41234,-5.16077 -20.6875,-5.87891 -5.27517,-0.71814 -4.60868,2.41016 -9.39454,0.96094 -4.78586,-1.44922 -9.18736,-2.78071 -14.13476,-4.01563 -4.94741,-1.23492 -10.43989,-2.37312 -15.375,-3.43164 -9.87022,-2.11704 -19.54226,-3.9198 -28.32031,-5.55859 -0.47506,-0.0887 -0.89936,-0.13265 -1.29297,-0.15039 z" />
    </g>
    <text
       xml:space="preserve"
       style="font-style:normal;font-weight:normal;font-size:40px;line-height:1.25;font-family:sans-serif;letter-spacing:0px;word-spacing:0px;fill:#000000;fill-opacity:1;stroke:none"
       x="240.07178"
       y="348.96469"
       id="text21"><tspan
         sodipodi:role="line"
         id="tspan19"
         x="240.07178"
         y="385.45789" /></text>
    <image
       sodipodi:absref="X:\inkscape_ws\ink_start\Inkscape Guide\Chapter 1. Quick Start\fuji-outline.png"
       xlink:href="fuji-outline.png"
       y="315.30881"
       x="-1.5550256"
       id="image31"
       preserveAspectRatio="none"
       height="86.1679"
       width="473.92346" />
    <circle
       id="path342"
       style="fill:#000000;stroke:none"
       cx="171.65947"
       cy="341.52493"
       r="1.5" />
    <path
       style="opacity:1;fill:none;fill-opacity:1;stroke:#ff0000;stroke-width:1;stroke-miterlimit:4;stroke-dasharray:none;stroke-opacity:1"
       d="m 148.94917,343.55491 c 7.80599,-0.0161 27.74865,-8.32718 25.04358,-2.98723 -3.27669,6.46836 -11.30467,12.31359 -0.43018,4.76346 6.20396,-4.30739 5.08892,4.14651 13.44857,-3.04496 9.64253,-8.29508 3.56575,10.20316 9.89611,7.61239 8.23571,-3.37055 15.96671,-20.98531 25.18656,-10.43477 4.37027,5.00103 13.9858,11.62621 7.24619,1.89888 -7.2326,-10.43887 7.55519,7.79442 6.6442,1.17725 -1.18856,-8.63333 -2.14859,-8.52845 6.72246,-4.09562 6.36953,3.18283 12.20624,10.31069 5.61442,0.2783 -6.92274,-10.53603 14.40872,2.79556 15.1226,6.34148 1.57029,7.79982 0.65204,11.61241 6.77291,0.24793 4.57077,-8.48645 22.45619,10.49782 24.54193,2.68438 4.07471,-15.26435 -10.73448,-27.04269 -23.6379,-34.54702 -18.46495,-10.73879 -39.49255,-16.4751 -60.57217,-20.43616 -16.08711,-3.02292 -33.06677,-5.28451 -49.16571,-2.23757 -11.89687,2.25164 -22.46139,7.09772 -34.45844,12.20661 -17.31682,7.3743 -15.59612,32.41433 1.62551,37.41741 6.73678,1.95711 13.9301,0.13744 20.39936,2.9015"
       id="path1279"
       inkscape:connector-curvature="0"
       inkscape:original-d="m 148.94917,343.55491 c 2.72335,-0.83725 5.55703,-1.1201 8.37363,-1.52248 0.26643,-0.0381 2.14099,0.0476 2.28372,0 0.40121,-0.13373 0.63672,-0.5721 1.01498,-0.76123 0.66782,-0.33391 1.82631,-0.0957 2.53747,-0.25375 2.34452,-0.52101 4.58251,-1.06875 6.85115,-1.52248 0.44746,-0.0895 3.56963,-0.99781 3.8062,-0.76124 1.62779,1.62779 -3.20587,7.31223 -3.8062,7.61239 -0.89469,0.44735 -1.64971,2.15721 -2.28371,2.79122 -0.2466,0.24659 -1.36373,0.25374 -1.01499,0.25374 0.62575,0 6.24465,-3.45344 6.85115,-4.05994 0.21867,-0.21867 4.28806,-1.2431 5.07493,-2.02997 0.7257,-0.7257 -0.72878,3.2987 1.26873,3.2987 1.948,0 5.29375,-3.10625 7.10491,-4.31369 2.13905,-1.42604 4.49982,-2.20338 6.85115,-2.79121 0.37411,-0.0935 3.40732,-1.0515 3.55245,-0.76124 0.0566,0.11324 0.19804,8.23129 0,8.62738 -0.0529,0.10572 -1.67099,2.38895 -1.26873,2.79121 0.18913,0.18913 0.57211,-0.0646 0.76124,-0.25375 0.71542,-0.71542 2.64479,-1.75016 3.04495,-2.28371 0.45988,-0.61317 1.05088,-1.48596 1.77623,-2.02997 0.83406,-0.62555 2.02273,-0.754 2.79121,-1.52248 1.11385,-1.11385 1.47327,-1.62475 2.79121,-2.28372 1.07211,-0.53605 5.2826,-5.07493 6.08992,-5.07493 0.67802,0 2.66216,-2.47511 3.55245,-2.02997 0.71795,0.35898 0.8548,1.25881 1.26873,1.77622 0.65645,0.82057 2.19075,1.4605 3.04496,2.02997 0.77461,0.51641 0.92296,1.43046 1.52248,2.02998 0.5992,0.5992 1.48621,0.97872 2.02997,1.52247 1.18849,1.1885 1.81556,3.44525 3.55245,4.31369 0.57766,0.28884 0.83357,2.28372 1.52248,2.28372 0.25374,0 0,-0.50749 0,-0.76124 v -3.04495 c 0,-1.75003 -0.9706,-5.19551 -1.52248,-6.85116 -0.25097,-0.7529 -1.93669,-1.68294 -2.53747,-2.28372 -1.65224,-1.65224 6.71591,3.73858 6.85116,3.8062 0.0547,0.0273 3.07458,3.49319 3.2987,3.04496 0.61087,-1.22173 -0.65446,-8.48041 0,-9.13487 0.68514,-0.68514 1.88962,1.44781 2.28372,1.77622 2.76688,2.30574 6.10938,4.45029 8.88112,5.83617 0.57656,0.28828 1.18632,1.48127 1.77623,1.77622 1.10957,0.55479 0.83804,3.47565 1.26873,3.04496 1.39028,-1.39027 -2.84058,-9.43799 -4.05994,-10.65735 -1.05891,-1.05891 1.01102,-0.81437 1.52248,-0.50749 2.68988,1.61393 6.43533,3.39037 8.37363,5.32867 0.8701,0.8701 3.32673,1.95473 4.31369,2.28372 2.19497,0.73166 6.4741,7.48909 8.11989,9.13487 1.41039,1.41039 6.36882,0.81157 5.07493,-1.77622 -0.9587,-1.9174 -7.81563,-7.43762 -0.25375,-6.59741 2.34128,0.26014 4.69644,0.80424 6.85115,1.52248 0.85005,0.28335 1.56056,1.16019 2.53747,1.26873 0.50439,0.056 1.03451,-0.13942 1.52248,0 0.18185,0.052 0.10244,0.39402 0.25374,0.50749 0.57814,0.43361 1.41029,0.38943 2.02998,0.76124 1.69307,1.01585 4.10632,3.62158 6.5974,2.79121 2.97248,-0.99082 2.75703,-9.25717 2.53747,-11.67233 -0.26682,-2.93499 -2.8418,-6.17422 -4.31369,-8.62738 -2.15542,-3.59236 -4.39073,-7.53991 -7.6124,-10.40361 -2.01722,-1.79308 -4.68145,-2.38991 -7.1049,-3.2987 -3.59482,-1.34806 -7.33618,-3.48608 -10.91109,-5.07493 -1.67825,-0.74589 -2.82229,-2.3469 -4.56744,-3.04496 -6.08085,-2.43234 -12.47936,-5.67458 -18.77724,-7.61239 -7.01515,-2.15851 -14.16972,-4.24839 -21.3147,-5.83617 -3.16197,-0.70266 -6.17417,-0.65782 -9.38862,-1.01498 -1.58667,-0.1763 -0.52166,-0.36968 -2.28372,-0.76124 -2.87428,-0.63873 -5.97724,-0.8539 -8.88112,-1.26874 -3.2423,-0.46318 -6.69612,0.0258 -9.89611,-0.50749 -5.0959,-0.84931 -10.53228,-0.50749 -15.73228,-0.50749 -2.59327,0 -5.56903,-0.42515 -8.11989,0 -1.71688,0.28614 -3.63373,0.1685 -5.32868,0.50749 -3.27023,0.65405 0.2167,0.43507 -3.04495,0.76124 -9.04029,0.90403 -18.43361,2.33129 -26.38963,7.1049 -1.34456,0.80673 -2.17854,2.06481 -3.29871,3.04496 -2.13241,1.86585 -5.08105,3.05107 -7.1049,5.07493 -4.19422,4.19422 -8.64973,11.07545 -7.1049,17.25476 0.12309,0.49234 -0.22696,1.06856 0,1.52248 0.8459,1.6918 2.56601,2.98913 3.55245,4.56743 2.35577,3.76923 4.35689,6.87995 8.11989,9.38862 2.15922,1.43948 9.47645,1.86127 12.43357,2.28372 1.77735,0.25391 4.13217,-0.568 5.83617,0 1.02639,0.34213 3.81143,1.52248 4.56744,1.52248"
       sodipodi:nodetypes="cccsccsccssssccccscccscscccsccssscsccsccccscsccccccccccscscssssccccscccccccsssssc"
       inkscape:path-effect="#path-effect1281" />
    <rect
       style="opacity:1;fill:none;fill-opacity:1;stroke:#ff0000;stroke-width:1;stroke-miterlimit:4;stroke-dasharray:none;stroke-opacity:1"
       id="rect1283"
       width="54.555489"
       height="38.569462"
       x="48.211823"
       y="265.65475" />
    <rect
       y="241.54884"
       x="83.73632"
       height="38.569462"
       width="54.555489"
       id="rect1285"
       style="opacity:1;fill:none;fill-opacity:1;stroke:#ff0000;stroke-width:1;stroke-miterlimit:4;stroke-dasharray:none;stroke-opacity:1" />
    <g
       id="g1292"
       style="font-style:normal;font-variant:normal;font-weight:bold;font-stretch:normal;font-size:144px;line-height:1.25;font-family:'Nimbus Roman No9 L';-inkscape-font-specification:'Nimbus Roman No9 L Bold';letter-spacing:0px;word-spacing:0px;fill:#000000;fill-opacity:1;stroke:#008000"
       aria-label="FHMC ">
      <path
         d="m 214.99805,103.09375 c -3.05288,-0.0556 -6.1783,0.24455 -9.39453,0.97656 -8.76057,1.9939 -15.14597,9.16137 -23.33399,14.02149 -1.77435,1.05319 -3.6435,1.98482 -5.54687,2.86914 v 58.66601 h 3.09375 c 2.67188,0 4.80468,0.46875 6.39843,1.40625 1.59375,0.89063 2.64845,1.94532 3.16407,3.16407 0.51563,1.21875 0.77343,4.26562 0.77343,9.14062 v 27 h -33.67968 v -27 c 0,-4.78125 0.2578,-7.73437 0.77343,-8.85937 0.70313,-1.59375 1.66407,-2.71875 2.88282,-3.375 1.6875,-0.98437 3.91405,-1.47657 6.67968,-1.47657 h 3.16407 v -55.74023 c -4.78639,1.98132 -9.55873,3.93564 -13.72657,6.5625 -11.8754,7.48471 -23.49207,13.47033 -36.125,17.53906 v 31.63867 h 3.16407 c 2.67188,0 4.78125,0.46875 6.32812,1.40625 1.59375,0.89063 2.64843,1.94532 3.16406,3.16407 0.51563,1.21875 0.77344,4.26562 0.77344,9.14062 v 62.71875 c 0,4.78125 -0.25781,7.73438 -0.77344,8.85938 -0.65625,1.59375 -1.59375,2.71875 -2.8125,3.375 -1.6875,0.98438 -3.91405,1.47656 -6.67968,1.47656 h -3.16407 v 2.60156 h 49.85157 v -2.60156 h -3.16407 c -2.67187,0 -4.80468,-0.44531 -6.39843,-1.33594 -1.54687,-0.9375 -2.60157,-2.01562 -3.16407,-3.23437 -0.51563,-1.21875 -0.77343,-4.26563 -0.77343,-9.14063 v -29.53125 h 33.67968 v 29.53125 c 0,4.78125 -0.2578,7.73438 -0.77343,8.85938 -0.70312,1.59375 -1.66407,2.71875 -2.88282,3.375 -1.64063,0.98438 -3.86718,1.47656 -6.67968,1.47656 h -3.09375 v 2.60156 h 49.78125 v -2.60156 h -3.09375 c -2.67187,0 -4.80469,-0.44531 -6.39844,-1.33594 -1.59375,-0.9375 -2.64843,-2.01562 -3.16406,-3.23437 -0.51562,-1.21875 -0.77344,-4.26563 -0.77344,-9.14063 v -62.71875 c 0,-4.78125 0.25782,-7.73437 0.77344,-8.85937 0.70313,-1.59375 1.66406,-2.71875 2.88281,-3.375 1.64062,-0.98437 3.86719,-1.47657 6.67969,-1.47657 h 3.09375 v -74.6914 c -0.84366,-0.24743 -1.68921,-0.47998 -2.54102,-0.68164 -2.93018,-0.6937 -5.91197,-1.10454 -8.96484,-1.16016 z m 16.91992,3.73437 v 72.79883 h 3.02344 c 2.67188,0 4.80468,0.46875 6.39843,1.40625 1.59375,0.89063 2.64845,1.94532 3.16407,3.16407 0.51563,1.17188 0.77343,4.17188 0.77343,9 v 60.32812 c 0,4.26563 -0.0469,6.65626 -0.14062,7.17188 -0.51563,2.20313 -1.24219,3.91406 -2.17969,5.13281 -0.9375,1.21875 -2.32031,2.20312 -4.14844,2.95312 -1.82813,0.70312 -3.79688,1.03128 -5.90625,0.98438 h -0.98437 v 2.60156 h 32.625 v -2.60156 c -4.35938,0 -7.57031,-0.72656 -9.63281,-2.17969 -2.01562,-1.5 -3.32812,-3.42187 -3.9375,-5.76562 -0.23437,-1.07812 -0.35157,-3.96094 -0.35157,-8.64844 v -67.14844 l 37.125,86.34375 h 1.6875 l 36.5625,-86.97656 v 70.66406 c 0,4.78125 -0.2578,7.73438 -0.77343,8.85938 -0.70312,1.59375 -1.64062,2.71875 -2.8125,3.375 -1.6875,0.98438 -3.9375,1.47656 -6.75,1.47656 h -3.09375 v 2.60156 h 49.78125 v -2.60156 h -3.09375 c -2.67187,0 -4.80469,-0.44531 -6.39844,-1.33594 -1.59375,-0.9375 -2.64843,-2.01562 -3.16406,-3.23437 -0.51562,-1.21875 -0.77344,-4.26563 -0.77344,-9.14063 v -62.85937 c 0,-4.73437 0.25782,-7.66407 0.77344,-8.78907 0.70313,-1.54687 1.64063,-2.64843 2.8125,-3.30468 1.6875,-0.98437 3.9375,-1.47657 6.75,-1.47657 h 3.09375 v -15.62304 c -1.97342,-0.63176 -4.27275,-2.95335 -7.00586,-4.00391 -2.954,-1.13543 -6.4095,-0.76033 -8.46485,-1.16406 -7.8536,-1.54266 -15.62756,-3.37316 -23.3125,-5.96485 l -0.0293,24.1543 -25.875,62.85938 -26.78907,-62.85938 -0.0801,-48.34766 c -4.38178,-2.26097 -8.63564,-4.79241 -12.82227,-7.36718 -5.69196,-3.50055 -11.26343,-7.07103 -16.87695,-10.11328 -3.03647,-1.64561 -6.087,-3.12738 -9.17383,-4.36915 z m 44.0293,24.35352 v 45.84375 h 42.38476 v -26.04101 c -6.6199,-2.53869 -13.1715,-5.57978 -19.64453,-8.74024 -7.69389,-3.75653 -15.27731,-7.66489 -22.74023,-11.0625 z m -163.20899,18.92383 c -1.69629,0.43062 -3.40875,0.83692 -5.15039,1.19922 -9.04946,1.88247 -15.715871,6.2419 -23.865234,9.75 -8.149363,3.5081 -17.7818,6.16556 -26.669922,8.70117 -7.950618,2.26817 -16.143407,3.21548 -24.751953,4.10352 v 5.76757 h 3.164063 c 2.671875,0 4.78125,0.46875 6.328125,1.40625 1.59375,0.89063 2.648437,1.94532 3.164062,3.16407 0.515625,1.21875 0.773438,4.26562 0.773438,9.14062 v 62.71875 c 0,4.78125 -0.257813,7.73438 -0.773438,8.85938 -0.65625,1.59375 -1.59375,2.71875 -2.8125,3.375 -1.6875,0.98438 -3.914062,1.47656 -6.679687,1.47656 h -3.164063 v 2.60156 h 49.851563 v -2.60156 h -3.164063 c -2.671875,0 -4.804687,-0.44531 -6.398437,-1.33594 -1.546875,-0.9375 -2.601563,-2.01562 -3.164063,-3.23437 -0.515625,-1.21875 -0.773437,-4.26563 -0.773437,-9.14063 v -29.17969 h 2.742187 c 5.015625,0 9.492188,1.45313 13.429688,4.35938 3.984375,2.85937 6.421875,8.8125 7.3125,17.85937 h 2.460937 v -47.88281 h -2.460937 c -0.5625,5.10937 -1.78125,9.16406 -3.65625,12.16406 -1.828125,3 -4.078125,5.13281 -6.75,6.39844 -2.671875,1.26563 -6.117188,1.89844 -10.335938,1.89844 h -2.742187 v -39.16406 h 8.859375 c 7.59375,0 12.796875,0.35155 15.609375,1.05468 5.109372,1.26563 8.999996,3.44532 11.671876,6.53907 2.71875,3.09375 4.40625,7.85156 5.0625,14.27343 h 2.88281 z m 257.75391,13.06836 0.082,63.28125 c 0,0 2.13282,16.75782 6.39844,24.39844 4.3125,7.64063 10.40625,13.49999 18.28125,17.57812 7.92188,4.07813 16.96875,6.11719 27.14062,6.11719 7.73437,0 14.48437,-1.24218 20.25,-3.72656 5.8125,-2.53125 11.39063,-6.58594 16.73438,-12.16407 v -8.22656 c -5.53125,6.42187 -10.80469,10.94531 -15.82032,13.57031 -4.96875,2.625 -10.45312,3.9375 -16.45312,3.9375 -7.3125,0 -13.26563,-1.78125 -17.85938,-5.34375 -4.59375,-3.60937 -7.96875,-8.90625 -10.125,-15.89062 -2.15625,-7.03125 -3.23437,-14.8125 -3.23437,-23.34375 0,-8.67188 1.47657,-16.54688 4.42969,-23.625 2.29688,-5.53125 5.92968,-10.00782 10.89843,-13.42969 4.96875,-3.42187 10.66141,-5.25354 16.38282,-5.13281 6.77464,0.14296 13.5,2.29687 19.125,6.89062 5.625,4.59375 9.46875,11.20313 11.53125,19.82813 h 2.74218 v -26.45313 c -0.45589,-0.069 -0.81971,-0.12335 -1.29882,-0.1914 -4.19503,-0.59589 -15.41234,-5.16077 -20.6875,-5.87891 -5.27517,-0.71814 -4.60868,2.41016 -9.39454,0.96094 -4.78586,-1.44922 -9.18736,-2.78071 -14.13476,-4.01563 -4.94741,-1.23492 -10.43989,-2.37312 -15.375,-3.43164 -9.87022,-2.11704 -19.54226,-3.9198 -28.32031,-5.55859 -0.47506,-0.0887 -0.89936,-0.13265 -1.29297,-0.15039 z"
         style="fill:none;fill-rule:evenodd;stroke:#008000"
         transform="translate(0,217.62498)"
         id="path1290" />
    </g>
  </g>
</svg>
