<?xml version="1.0" encoding="UTF-8" standalone="no"?>
<!-- Created with Inkscape (http://www.inkscape.org/) -->

<svg
   xmlns:dc="http://purl.org/dc/elements/1.1/"
   xmlns:cc="http://creativecommons.org/ns#"
   xmlns:rdf="http://www.w3.org/1999/02/22-rdf-syntax-ns#"
   xmlns:svg="http://www.w3.org/2000/svg"
   xmlns="http://www.w3.org/2000/svg"
   xmlns:sodipodi="http://sodipodi.sourceforge.net/DTD/sodipodi-0.dtd"
   xmlns:inkscape="http://www.inkscape.org/namespaces/inkscape"
   width="1136"
   height="640"
   viewBox="0 0 1136 640"
   version="1.1"
   id="svg8"
   inkscape:version="0.92.4 (5da689c313, 2019-01-14)"
   sodipodi:docname="cool abstract line.svg">
  <defs
     id="defs2">
    <inkscape:path-effect
       effect="curvestitching"
       id="path-effect820"
       is_visible="true"
       count="30"
       startpoint_edge_variation="0;1"
       startpoint_spacing_variation="0;1"
       endpoint_edge_variation="0;1"
       endpoint_spacing_variation="0;1"
       strokepath="M 0,0 H 1"
       prop_scale="1"
       scale_y_rel="false" />
  </defs>
  <sodipodi:namedview
     id="base"
     pagecolor="#ffffff"
     bordercolor="#666666"
     borderopacity="1.0"
     inkscape:pageopacity="0.0"
     inkscape:pageshadow="2"
     inkscape:zoom="1"
     inkscape:cx="533.22576"
     inkscape:cy="285.22576"
     inkscape:document-units="px"
     inkscape:current-layer="layer1"
     showgrid="false"
     units="px"
     inkscape:window-width="1920"
     inkscape:window-height="1017"
     inkscape:window-x="-8"
     inkscape:window-y="-8"
     inkscape:window-maximized="1" />
  <metadata
     id="metadata5">
    <rdf:RDF>
      <cc:Work
         rdf:about="">
        <dc:format>image/svg+xml</dc:format>
        <dc:type
           rdf:resource="http://purl.org/dc/dcmitype/StillImage" />
        <dc:title></dc:title>
      </cc:Work>
    </rdf:RDF>
  </metadata>
  <g
     inkscape:label="Layer 1"
     inkscape:groupmode="layer"
     id="layer1"
     transform="translate(0,-127.66665)">
    <path
       id="path817"
       style="fill:none;stroke:#000000;stroke-width:1px;stroke-linecap:butt;stroke-linejoin:miter;stroke-opacity:1"
       d="M 970,239.66665 H 292 m 671.61946,8.67148 -678,0 m 671.80897,8.80806 -678,0 m 671.96724,8.91753 -678,1e-5 m 672.13307,9.02726 -678,0 m 672.30986,9.13932 -678.00001,0 m 672.4968,9.25375 -678,10e-6 m 672.69793,9.37492 -678.00001,10e-6 m 672.9479,9.51042 -678,1e-5 m 673.25284,9.66099 -678.00001,1e-5 m 673.61273,9.82664 -678,10e-6 m 674.03377,10.00879 -678,2e-5 m 674.59518,10.21229 -678,2e-5 m 675.3506,10.43315 -678,2e-5 m 676.40773,10.64526 -678,2e-5 m 677.97134,10.74493 -678,3e-5 m 679.63117,10.63337 -677.99999,2e-5 m 680.7883,10.39934 -677.99999,2e-5 m 681.58618,10.14868 -677.99999,2e-5 m 682.18069,9.92192 -677.99999,2e-5 m 682.61622,9.72128 -677.99998,3e-5 m 682.9837,9.54045 -677.99999,2e-5 m 683.29506,9.37677 -677.99998,3e-5 m 683.55031,9.23024 -677.99998,3e-5 m 683.75399,9.10021 -677.99998,3e-5 m 683.94072,8.97839 -677.99998,3e-5 m 684.11739,8.85938 -677.99998,3e-5 m 684.28284,8.74309 -677.99997,3e-5 m 684.44018,8.62752 -677.93693,-0.0484 M 973,515.66665 H 295"
       inkscape:path-effect="#path-effect820"
       inkscape:original-d="m 970,239.66665 c 0,0 -67.74974,88.26999 -67,140 0.73888,50.98048 70,136 70,136 m -681,-276 c 0,0 -67.74974,88.26999 -67,140 0.73888,50.98048 70,136 70,136" />
  </g>
</svg>
