<?xml version="1.0" encoding="UTF-8" standalone="no"?>
<!-- Created with Inkscape (http://www.inkscape.org/) -->

<svg
   xmlns:dc="http://purl.org/dc/elements/1.1/"
   xmlns:cc="http://creativecommons.org/ns#"
   xmlns:rdf="http://www.w3.org/1999/02/22-rdf-syntax-ns#"
   xmlns:svg="http://www.w3.org/2000/svg"
   xmlns="http://www.w3.org/2000/svg"
   xmlns:xlink="http://www.w3.org/1999/xlink"
   xmlns:sodipodi="http://sodipodi.sourceforge.net/DTD/sodipodi-0.dtd"
   xmlns:inkscape="http://www.inkscape.org/namespaces/inkscape"
   width="1024"
   height="1024"
   viewBox="0 0 1024 1024"
   version="1.1"
   id="svg5115"
   inkscape:version="0.92.4 (5da689c313, 2019-01-14)"
   sodipodi:docname="logo_b.svg">
  <title
     id="title5773">字母b</title>
  <defs
     id="defs5109">
    <linearGradient
       inkscape:collect="always"
       id="linearGradient5753">
      <stop
         style="stop-color:#eff300;stop-opacity:1"
         offset="0"
         id="stop5749" />
      <stop
         style="stop-color:#f30000;stop-opacity:1"
         offset="1"
         id="stop5751" />
    </linearGradient>
    <linearGradient
       inkscape:collect="always"
       id="linearGradient5728-4">
      <stop
         style="stop-color:#ff0101;stop-opacity:1"
         offset="0"
         id="stop5724" />
      <stop
         style="stop-color:#ffeb00;stop-opacity:1"
         offset="1"
         id="stop5726" />
    </linearGradient>
    <linearGradient
       inkscape:collect="always"
       xlink:href="#linearGradient5753"
       id="linearGradient5755"
       x1="362"
       y1="512"
       x2="586.9986"
       y2="512.00006"
       gradientUnits="userSpaceOnUse"
       gradientTransform="matrix(-1,0,0,1,1024,-350.46669)" />
    <linearGradient
       inkscape:collect="always"
       xlink:href="#linearGradient5728-4"
       id="linearGradient5765"
       gradientUnits="userSpaceOnUse"
       x1="399.27148"
       y1="451.80957"
       x2="662"
       y2="451.80957"
       gradientTransform="matrix(-1,0,0,1,1024,-350.46669)" />
  </defs>
  <sodipodi:namedview
     id="base"
     pagecolor="#ffffff"
     bordercolor="#666666"
     borderopacity="1.0"
     inkscape:pageopacity="0.0"
     inkscape:pageshadow="2"
     inkscape:zoom="0.51171875"
     inkscape:cx="113.49136"
     inkscape:cy="635.33912"
     inkscape:document-units="px"
     inkscape:current-layer="layer1"
     showgrid="true"
     units="px"
     inkscape:object-paths="true"
     inkscape:snap-intersection-paths="true"
     inkscape:snap-smooth-nodes="true"
     inkscape:snap-midpoints="true"
     inkscape:snap-object-midpoints="false"
     inkscape:snap-center="false"
     showguides="true"
     inkscape:guide-bbox="true"
     inkscape:window-width="1366"
     inkscape:window-height="705"
     inkscape:window-x="-8"
     inkscape:window-y="-8"
     inkscape:window-maximized="1">
    <sodipodi:guide
       position="0,512"
       orientation="0,1"
       id="guide5668"
       inkscape:locked="false"
       inkscape:label=""
       inkscape:color="rgb(0,0,255)" />
    <sodipodi:guide
       position="512,0"
       orientation="1,0"
       id="guide5675"
       inkscape:locked="false"
       inkscape:label=""
       inkscape:color="rgb(0,0,255)" />
  </sodipodi:namedview>
  <metadata
     id="metadata5112">
    <rdf:RDF>
      <cc:Work
         rdf:about="">
        <dc:format>image/svg+xml</dc:format>
        <dc:type
           rdf:resource="http://purl.org/dc/dcmitype/StillImage" />
        <dc:title>字母b</dc:title>
      </cc:Work>
    </rdf:RDF>
  </metadata>
  <g
     inkscape:label="Layer 1"
     inkscape:groupmode="layer"
     id="layer1"
     transform="translate(0,350.46669)">
    <ellipse
       r="75"
       inkscape:transform-center-y="-0.45800765"
       cy="161.0753"
       cx="512"
       id="ellipse5684"
       style="opacity:0.15;fill:#000000;fill-opacity:1;fill-rule:nonzero;stroke:none;stroke-width:0.04429134;stroke-linecap:square;stroke-linejoin:miter;stroke-miterlimit:4;stroke-dasharray:none;stroke-opacity:1;paint-order:stroke markers fill" />
    <path
       inkscape:connector-curvature="0"
       style="opacity:1;fill:url(#linearGradient5755);fill-opacity:1;fill-rule:nonzero;stroke:none;stroke-width:0.08858268;stroke-linecap:square;stroke-linejoin:miter;stroke-miterlimit:4;stroke-dasharray:none;stroke-opacity:1;paint-order:stroke markers fill"
       d="m 512,11.53331 a 150,150 0 0 1 150,150 150,150 0 0 1 -150,150 150,150 0 0 1 -150,-150 150,150 0 0 1 150,-150 z m 0,74.54102 a 75,75 0 0 0 -75,75 75,75 0 0 0 75,75 75,75 0 0 0 75,-75 75,75 0 0 0 -75,-75 z"
       id="path5664" />
    <path
       style="opacity:1;fill:url(#linearGradient5765);fill-opacity:1;fill-rule:nonzero;stroke:none;stroke-width:0.06657225;stroke-linecap:square;stroke-linejoin:miter;stroke-miterlimit:4;stroke-dasharray:none;stroke-opacity:1;paint-order:stroke markers fill"
       d="m 362.00195,-108.84755 c 41.55,0 75,33.45 75,75 v 103.52148 45.27735 l 0.002,46.01367 a 75,75 0 0 0 -0.002,0.0547 v 0.0937 a 75,75 0 0 0 0.002,0.0391 v 0.38086 l 0.0176,-0.0176 A 75,75 0 0 0 512,236.07433 a 75,75 0 0 0 75,-75 A 75,75 0 0 0 517.30469,86.26378 112.729,112.729 0 0 1 624.72852,198.80479 112.729,112.729 0 0 1 512,311.53331 112.729,112.729 0 0 1 500.73438,310.96886 150,150 0 0 1 362,161.53331 h 0.002 z m 43.79297,270.38086 h -0.13867 l 0.0781,0.16797 a 112.729,112.729 0 0 1 0.0605,-0.16797 z"
       id="path5763"
       inkscape:connector-curvature="0" />
  </g>
</svg>
